<?xml version="1.0" ?><!DOCTYPE svg  PUBLIC '-//W3C//DTD SVG 1.1//EN'  'http://www.w3.org/Graphics/SVG/1.1/DTD/svg11.dtd'><svg enable-background="new 0 0 512 512" height="512px" id="Capa_1" version="1.1" viewBox="0 0 512 512" width="512px" xml:space="preserve" xmlns="http://www.w3.org/2000/svg" xmlns:xlink="http://www.w3.org/1999/xlink"><g><path d="M512,256v0.092c0,1.024,0,2.048-0.021,3.082c-1.444,118.774-83.773,218.081-194.458,245.381   c-8.09,1.997-16.323,3.604-24.699,4.813c-8.305,1.198-16.742,1.997-25.283,2.376c-3.83,0.174-7.68,0.256-11.54,0.256   C114.616,512,0,397.384,0,256S114.616,0,256,0c129.956,0,237.292,96.84,253.798,222.29c0.184,1.393,0.358,2.785,0.512,4.188   c0.799,6.922,1.321,13.937,1.546,21.013C511.949,250.317,512,253.153,512,256z" fill="#C9CB80"/><path d="M512,256v0.092c0,1.024,0,2.048-0.021,3.082c-1.444,118.774-83.773,218.081-194.458,245.381   c-8.09,1.997-16.323,3.604-24.699,4.813c-8.305,1.198-16.742,1.997-25.283,2.376l-124.856-95.57c7.475,4.045,9.902-9.38,9.902-9.38   c0.666-2.591,1.29-5.181,1.915-7.762c1.72-7.178,3.41-14.326,5.755-21.391c0.256-0.747,0.502-1.495,0.768-2.263h0.01   c0.041-0.02,0.082-0.031,0.123-0.041c0.317-0.102,0.635-0.205,0.942-0.287c0.061-0.021,0.113-0.031,0.174-0.051   c0.051-0.164,0.123-0.338,0.174-0.512v-0.01c0.02-0.01,0.061-0.021,0.092-0.021c0.307-0.113,0.614-0.205,0.932-0.287   c7.229-2.253,14.449-4.147,21.617-5.724c24.289-5.366,48.026-7.117,69.509-6.922c27.812-0.256,59.433,2.765,91.126,12.646   c0.471,0.143,0.778,0.236,0.932,0.287c0.082,0.021,0.123,0.041,0.123,0.041c-0.01-0.02-0.01-0.031-0.021-0.041   c0.061,0.01,0.113,0.031,0.164,0.041c0.317,0.092,0.625,0.184,0.942,0.297c0.031,0,0.072,0.01,0.102,0.031   c0.072,0.184,0.133,0.369,0.195,0.553c0.266,0.768,0.512,1.516,0.768,2.263c3.205,9.615,5.171,19.364,7.67,29.153   c0,0,2.826,15.616,11.755,8.09c8.94-7.516,23.194-42.025,23.194-42.025c16.261-36.68,22.19-77.261,26.184-116.879   c7.516-74.752-5.642-93.092-7.526-101.089c-0.799-3.369-2.673-5.571-4.588-6.973l0.102-0.102l104.591,78.664   c0.799,6.922,1.321,13.937,1.546,21.013C511.949,250.317,512,253.153,512,256z" fill="#1E1E1E" opacity="0.1"/><path d="M154.501,399.032c-0.625,2.581-1.249,5.171-1.915,7.762c0,0-2.427,13.425-9.902,9.38   c-0.01-0.01-0.031-0.01-0.041-0.02l-2.621-2.007c-0.02-0.021-0.031-0.031-0.041-0.041l-0.317-0.236L154.501,399.032z" fill="#1E1E1E" opacity="0.1"/><path d="M417.731,255.98c-3.994,39.619-9.923,80.2-26.184,116.879c0,0-14.254,34.509-23.194,42.025   c-8.929,7.526-11.755-8.09-11.755-8.09c-2.499-9.789-4.465-19.538-7.67-29.153c-0.256-0.747-0.502-1.495-0.768-2.263   c-0.061-0.184-0.123-0.369-0.195-0.553c-0.031-0.02-0.072-0.031-0.102-0.031c-0.317-0.113-0.625-0.205-0.942-0.297   c-0.051-0.01-0.102-0.031-0.164-0.041c0.01,0.01,0.01,0.021,0.021,0.041c0,0-0.041-0.02-0.123-0.041   c-0.154-0.051-0.461-0.143-0.932-0.287c-31.693-9.882-63.314-12.902-91.126-12.646c-21.483-0.195-45.22,1.556-69.509,6.922   l220.529-220.529c1.915,1.403,3.789,3.604,4.588,6.973C412.088,162.888,425.247,181.227,417.731,255.98z" fill="#1E1E1E" opacity="0.1"/><g><path d="M238.108,331c-0.37,0.772-0.724,1.528-1.053,2.275c-17.55-2.661-33.959-8.868-48.462-17.864    c-9.382-5.821-17.968-12.807-25.558-20.766v-3.433c7.847,8.554,16.859,16.031,26.772,22.173c0.908,0.563,1.833,1.117,2.758,1.664    c0.908,0.531,1.825,1.045,2.742,1.552c0.466,0.265,0.933,0.515,1.407,0.764c0.941,0.507,1.881,0.997,2.838,1.479    c0.474,0.241,0.949,0.474,1.431,0.707c0.957,0.474,1.921,0.933,2.894,1.367c0.973,0.45,1.954,0.884,2.934,1.302    c1.053,0.45,2.106,0.884,3.168,1.294c0.498,0.201,1.005,0.402,1.511,0.587c3.65,1.391,7.38,2.613,11.183,3.666    c0.426,0.113,0.844,0.225,1.27,0.338c1.061,0.281,2.13,0.555,3.2,0.804c0.539,0.129,1.077,0.249,1.616,0.37    c0.539,0.121,1.077,0.241,1.616,0.354c1.198,0.249,2.404,0.482,3.618,0.699c0.418,0.08,0.836,0.153,1.254,0.217    C236.194,330.71,237.151,330.863,238.108,331z" fill="#67686A"/><path d="M371.886,263.636c-11.271,22.294-28.814,40.897-50.295,53.471c-14.246,8.353-30.221,14.037-47.248,16.401    c-0.354-0.772-0.716-1.536-1.085-2.283c1.431-0.185,2.846-0.402,4.261-0.635c0.394-0.064,0.78-0.129,1.166-0.201    c1.23-0.217,2.452-0.45,3.674-0.699c0.49-0.105,0.989-0.209,1.487-0.322c0.523-0.113,1.045-0.225,1.56-0.354    c0.394-0.088,0.78-0.177,1.174-0.273c1.278-0.314,2.549-0.643,3.819-0.997c0.507-0.137,1.013-0.281,1.511-0.426    c0.498-0.145,1.005-0.297,1.511-0.45c0.498-0.153,0.997-0.306,1.495-0.466c0.498-0.153,1.005-0.314,1.495-0.482    c0.9-0.297,1.809-0.611,2.709-0.933c0.474-0.169,0.941-0.338,1.407-0.506c1.503-0.563,2.999-1.142,4.478-1.761    c0.249-0.105,0.507-0.209,0.756-0.314c0.715-0.297,1.423-0.611,2.13-0.917c4.293-1.913,8.474-4.052,12.501-6.408    c2.082-1.214,4.124-2.492,6.126-3.819c0.506-0.338,0.997-0.675,1.495-1.013c0.611-0.41,1.214-0.836,1.817-1.262    c1.648-1.174,3.272-2.38,4.856-3.634c0.37-0.281,0.74-0.579,1.109-0.884c0.41-0.314,0.812-0.643,1.206-0.973    c0.49-0.402,0.981-0.804,1.463-1.222c0.442-0.37,0.876-0.74,1.302-1.117c0.346-0.297,0.683-0.595,1.013-0.892    c0.418-0.37,0.844-0.748,1.254-1.126c0.032-0.032,0.064-0.056,0.088-0.088c0.539-0.49,1.069-0.981,1.6-1.487l0.024-0.024    c0.482-0.458,0.973-0.924,1.455-1.407c0.587-0.563,1.166-1.142,1.737-1.728c0.523-0.531,1.045-1.069,1.56-1.616    c0.515-0.547,1.029-1.093,1.528-1.64c0.45-0.49,0.892-0.973,1.326-1.471c0.121-0.137,0.241-0.265,0.354-0.402    c0.933-1.053,1.841-2.122,2.733-3.208c0.957-1.158,1.889-2.34,2.806-3.529c0.836-1.101,1.656-2.211,2.46-3.336    c0.418-0.579,0.828-1.166,1.23-1.753c0.41-0.595,0.812-1.182,1.206-1.785c0.804-1.19,1.576-2.396,2.323-3.618    c0.756-1.222,1.495-2.452,2.195-3.706c0.37-0.619,0.715-1.246,1.053-1.881c0.257-0.442,0.498-0.892,0.732-1.343    c0.289-0.539,0.571-1.077,0.852-1.616c0.651,0.096,1.318,0.153,2.002,0.153C371.5,263.652,371.693,263.644,371.886,263.636z" fill="#67686A"/><path d="M347.996,374.835c-0.01-0.01-0.021-0.01-0.031-0.01c-0.031-0.02-0.072-0.031-0.102-0.031    c-0.317-0.113-0.625-0.205-0.942-0.297c-0.051-0.01-0.102-0.031-0.164-0.041l-0.174-0.522l-24.218-51.415    c-1.116-1.976-2.14-1.987-3.308-3.963c0.01,0,0.01-0.01,0.02-0.021c0.021-0.01,0.041-0.02,0.061-0.031    c0.051-0.031,0.133-0.072,0.236-0.133c0.082-0.051,0.154-0.092,0.236-0.133c0.133-0.072,0.277-0.143,0.41-0.236    c0.01-0.01,0.02-0.01,0.031-0.02l0.01-0.01c0.727-0.42,1.679-0.973,2.324-1.341c0.236-0.133,0.471-0.266,0.696-0.41    C335.882,337.746,342.118,357.622,347.996,374.835z" fill="#949598"/><path d="M385.706,205.535c0,0.74-0.008,1.487-0.016,2.219c-0.024,1.399-0.072,2.79-0.145,4.173    c-0.032,0.707-0.072,1.415-0.121,2.114c-0.04,0.667-0.088,1.335-0.145,2.002c0,0.048-0.008,0.096-0.008,0.137    c-0.113,1.359-0.241,2.709-0.402,4.06c0,0.048-0.008,0.096-0.016,0.145c-0.072,0.675-0.161,1.351-0.249,2.026    c-0.088,0.691-0.185,1.383-0.289,2.066c-0.096,0.683-0.201,1.367-0.322,2.05c-0.105,0.683-0.225,1.367-0.354,2.042    c-0.233,1.367-0.507,2.717-0.796,4.06c-0.145,0.675-0.297,1.343-0.45,2.01c-0.314,1.335-0.635,2.669-0.989,3.988    c-0.651-0.539-1.351-1.029-2.09-1.455c-0.281,1.085-0.571,2.163-0.876,3.232c-2.299,8.056-5.37,15.79-9.141,23.098    c-0.515,0.997-1.037,1.978-1.584,2.959c-11.062,20.187-27.479,37.022-47.321,48.623c-18.756,10.958-40.592,17.245-63.89,17.245    c-24.472,0-47.321-6.93-66.696-18.941c-9.913-6.142-18.925-13.619-26.772-22.173v3.433c-0.812-0.86-1.624-1.729-2.412-2.605    c-8.265-9.149-15.235-19.472-20.629-30.695c-0.386-0.796-0.764-1.6-1.134-2.412c-4.132-9.061-7.244-18.684-9.197-28.725    c0.812-0.048,1.608-0.129,2.404-0.241c18.161-2.412,32.182-17.968,32.182-36.789c0-16.377-10.604-30.277-25.316-35.205    c-0.748-0.257-1.511-0.482-2.283-0.691c3.192-7.895,7.139-15.404,11.746-22.438l3.465-0.933c2.042-2.975,4.205-5.861,6.488-8.643    c0.289-0.354,0.579-0.707,0.876-1.061c0.716-0.86,1.447-1.704,2.187-2.54c0.281-0.322,0.571-0.643,0.86-0.965    c0.265-0.297,0.531-0.587,0.804-0.884c0.402-0.434,0.804-0.868,1.214-1.302c0.41-0.442,0.828-0.868,1.246-1.302    c0.418-0.426,0.836-0.86,1.262-1.278c0.426-0.426,0.852-0.844,1.278-1.262c0.426-0.418,0.86-0.836,1.294-1.246    c0.442-0.418,0.876-0.82,1.318-1.23c0.442-0.41,0.884-0.812,1.335-1.206c0.442-0.402,0.892-0.796,1.351-1.19    c0.45-0.394,0.908-0.788,1.367-1.174c0.458-0.386,0.917-0.772,1.383-1.15c1.391-1.142,2.806-2.259,4.245-3.336    c0.37-0.273,0.732-0.547,1.101-0.82c0.603-0.442,1.206-0.876,1.817-1.31c1.962-1.399,3.963-2.733,6.006-4.004    c1.536-0.957,3.087-1.889,4.663-2.782c0.265-0.161,0.539-0.306,0.804-0.458c1.174-0.651,2.356-1.294,3.545-1.905    c0.997-0.523,2.01-1.021,3.023-1.511c0.643-0.314,1.294-0.627,1.946-0.925c0.322-0.153,0.635-0.297,0.957-0.434    c0.362-0.169,0.724-0.33,1.093-0.49c0.683-0.306,1.367-0.603,2.058-0.892c0.531-0.217,1.053-0.442,1.584-0.651    c0.45-0.185,0.9-0.362,1.359-0.539c0.41-0.161,0.828-0.322,1.246-0.482c1.455-0.555,2.926-1.077,4.414-1.584    c0.41-0.137,0.828-0.273,1.246-0.402c1.101-0.37,2.219-0.715,3.336-1.037c0.482-0.153,0.973-0.289,1.455-0.426    c0.474-0.137,0.949-0.265,1.431-0.394c0.523-0.137,1.053-0.281,1.584-0.41c0.555-0.145,1.109-0.281,1.664-0.418    c0.177-0.04,0.354-0.08,0.531-0.129c0.531-0.121,1.069-0.241,1.6-0.362c0.619-0.137,1.238-0.273,1.857-0.394    c1.471-0.314,2.959-0.595,4.454-0.844c0.402-0.072,0.804-0.137,1.206-0.201c2.114-0.338,4.253-0.619,6.399-0.852    c0.563-0.064,1.118-0.121,1.68-0.169c0.635-0.064,1.27-0.121,1.905-0.169c1.359-0.105,2.725-0.193,4.092-0.257    c0.675-0.032,1.343-0.056,2.018-0.08c1.351-0.04,2.701-0.064,4.06-0.064c1.318,0,2.637,0.024,3.947,0.064    c0.659,0.016,1.31,0.04,1.97,0.072c0.651,0.032,1.302,0.064,1.954,0.105c0.651,0.04,1.302,0.08,1.946,0.137    c0.651,0.048,1.294,0.105,1.938,0.161c0.643,0.056,1.286,0.121,1.93,0.193c0,0,0,0,0.008,0c0.386,0.04,0.764,0.08,1.15,0.129    c0.458,0.056,0.908,0.105,1.367,0.169c0.024,0,0.04,0,0.056,0.008c0.651,0.08,1.302,0.169,1.954,0.265    c0.587,0.08,1.174,0.169,1.753,0.265c0.201,0.032,0.402,0.064,0.603,0.096c0.386,0.056,0.772,0.121,1.15,0.193    c0.466,0.072,0.925,0.161,1.383,0.249c0.064,0.008,0.129,0.016,0.185,0.032c0.49,0.088,0.973,0.177,1.455,0.281    c0.514,0.096,1.021,0.201,1.527,0.306c0.49,0.104,0.989,0.209,1.479,0.322c0.78,0.177,1.552,0.354,2.323,0.547    c0.571,0.137,1.15,0.281,1.72,0.434c1.921,0.49,3.827,1.029,5.716,1.616c0.627,0.193,1.246,0.386,1.865,0.595    c0.418,0.129,0.836,0.273,1.246,0.418c0.297,0.096,0.595,0.193,0.884,0.297c1.688,0.579,3.361,1.198,5.009,1.857    c1.278,0.498,2.541,1.021,3.787,1.56c1.109,0.482,2.211,0.981,3.312,1.487c1.688,0.788,3.352,1.616,5.001,2.476    c0.265,0.137,0.539,0.281,0.804,0.426c0.579,0.306,1.158,0.619,1.737,0.941c1.15,0.635,2.291,1.286,3.417,1.954    c0.418,0.249,0.836,0.498,1.246,0.748c0.338,0.201,0.675,0.41,1.013,0.627c0.362,0.225,0.732,0.45,1.093,0.683    c0.555,0.354,1.101,0.707,1.648,1.069c0.531,0.346,1.053,0.691,1.576,1.053c0.635,0.426,1.27,0.868,1.897,1.31    c0.386,0.273,0.772,0.547,1.15,0.82c0.989,0.716,1.97,1.439,2.934,2.187c0.338,0.257,0.675,0.515,1.005,0.78    c0.354,0.273,0.707,0.555,1.053,0.836c0.482,0.378,0.957,0.764,1.431,1.158c0.498,0.41,0.997,0.828,1.495,1.254    c0.498,0.418,0.989,0.852,1.479,1.278c0.402,0.346,0.796,0.699,1.182,1.045c0.836,0.756,1.656,1.519,2.468,2.291    c0.378,0.354,0.756,0.716,1.134,1.085c1.729,1.672,3.401,3.401,5.033,5.169c0.434,0.474,0.86,0.949,1.286,1.431    c0.434,0.49,0.868,0.981,1.294,1.471c0.37,0.426,0.74,0.86,1.101,1.294c0.474,0.571,0.949,1.134,1.407,1.712    c0.297,0.362,0.595,0.732,0.884,1.101c2.147,2.701,4.181,5.491,6.102,8.361l3.417,0.917c0.619,0.965,1.222,1.938,1.817,2.918    c0.233,0.386,0.458,0.772,0.683,1.158c0.273,0.458,0.547,0.925,0.804,1.383c0.217,0.378,0.434,0.756,0.651,1.142    c1.608,2.87,3.103,5.813,4.486,8.811c0.193,0.402,0.378,0.812,0.555,1.222c0.177,0.378,0.354,0.764,0.514,1.15    c0.249,0.555,0.49,1.126,0.724,1.688c0.281,0.659,0.555,1.31,0.82,1.978c0.145,0.354,0.281,0.716,0.426,1.077    c0.233,0.595,0.466,1.198,0.691,1.801c0.225,0.619,0.458,1.238,0.675,1.857c0.201,0.555,0.394,1.109,0.579,1.664    c0.121,0.346,0.241,0.699,0.354,1.053c0.201,0.603,0.402,1.214,0.595,1.825c0.177,0.579,0.354,1.158,0.531,1.737    c0.603,2.01,1.158,4.044,1.656,6.094c0.096,0.386,0.193,0.78,0.281,1.166c0.265,1.118,0.515,2.235,0.748,3.361    c0.088,0.418,0.177,0.836,0.257,1.262c0.241,1.198,0.458,2.396,0.659,3.602c-0.852-1.117-1.857-2.114-2.983-2.967    c1.471,7.509,2.275,15.259,2.348,23.178c0.933-1.053,1.72-2.235,2.339-3.505C385.673,202.327,385.706,203.927,385.706,205.535z" fill="#87888D"/><path d="M188.59,315.413c-12.8,21.524-21.678,42.752-27.566,59.965c-0.266,0.768-0.512,1.516-0.768,2.263    c-2.345,7.066-4.035,14.213-5.755,21.391c-0.625,2.581-1.249,5.171-1.915,7.762c0,0-2.427,13.425-9.902,9.38    c-0.01-0.01-0.031-0.01-0.041-0.02c-0.573-0.317-1.178-0.737-1.812-1.27c-0.266-0.225-0.533-0.471-0.809-0.737    c-0.02-0.021-0.031-0.031-0.041-0.041c-0.092-0.092-0.184-0.184-0.277-0.276c-8.939-9.226-22.057-40.97-22.057-40.97    c-16.271-36.68-22.19-77.261-26.184-116.879c-2.785-27.72-2.734-47.677-1.464-62.228c0.307,20.234,16.814,36.547,37.12,36.547    c0.85,0,1.71-0.031,2.539-0.092c1.956,10.045,5.069,19.671,9.206,28.723h-15.729l-0.563,1.628    c-1.126,3.226-1.69,6.605-1.69,10.045c0,3.645,0.635,7.209,1.884,10.588l0.573,1.577h15.862v15.923l1.567,0.584    c3.42,1.29,7.035,1.935,10.742,1.935c3.369,0,6.697-0.543,9.882-1.628l1.638-0.553v-4.383    C170.619,302.602,179.21,309.586,188.59,315.413z" fill="#A6A6A9"/><path d="M148.395,134.843c-4.607,7.035-8.554,14.544-11.746,22.438c-3.039-0.804-6.231-1.23-9.527-1.23    c-17.349,0-31.925,11.898-35.993,27.986c2.557-17.526,6.85-24.842,7.863-29.143c1.881-7.991,9.873-9.398,9.873-9.398    L148.395,134.843z" fill="#A6A6A9"/><path d="M189.307,315.843c-0.584,0.993-1.167,1.976-1.731,2.97c-0.563,0.983-1.116,1.956-1.679,2.939    c-1.853,3.318-3.625,6.615-5.294,9.871c-0.317,0.614-0.625,1.229-0.932,1.833c-0.41,0.819-0.819,1.628-1.219,2.437    c-0.573,1.157-1.137,2.314-1.679,3.461c-0.379,0.768-0.737,1.526-1.085,2.273c-0.215,0.461-0.43,0.922-0.635,1.372    c-2.703,5.827-5.12,11.489-7.26,16.906c-0.287,0.727-0.573,1.444-0.84,2.15c-1.69,4.331-3.195,8.489-4.547,12.442h0.01l0.01-0.01    c0,0,0.01-0.01,0.02-0.01v0.01c-0.051,0.174-0.123,0.348-0.174,0.512c-0.061,0.02-0.113,0.031-0.174,0.051    c-0.307,0.082-0.625,0.184-0.942,0.287c-0.041,0.01-0.082,0.021-0.123,0.041h-0.01c5.888-17.213,14.766-38.441,27.566-59.965    C188.826,315.556,189.071,315.699,189.307,315.843z" fill="#949598"/><path d="M346.762,374.453h-0.008c-0.056-0.169-0.121-0.338-0.169-0.515    C346.65,374.108,346.706,374.284,346.762,374.453z" fill="#949598"/><path d="M346.778,374.497c0,0-0.041-0.02-0.123-0.041c-0.154-0.051-0.461-0.143-0.932-0.287    c-31.693-9.882-63.314-12.902-91.126-12.646c-21.483-0.195-45.22,1.556-69.509,6.922c-7.168,1.577-14.387,3.471-21.617,5.724    c-0.317,0.082-0.625,0.174-0.932,0.287c-0.031,0-0.072,0.01-0.092,0.021v0.01c-0.01,0-0.02,0-0.02,0l-0.01,0.01h-0.01    c1.352-3.953,2.857-8.11,4.547-12.442c0.266-0.707,0.553-1.423,0.84-2.15c2.14-5.417,4.557-11.08,7.26-16.906    c0.205-0.451,0.42-0.911,0.635-1.372c0.348-0.747,0.707-1.505,1.085-2.273c0.543-1.147,1.106-2.304,1.679-3.461    c0.399-0.809,0.809-1.618,1.219-2.437c0.307-0.604,0.614-1.219,0.932-1.833c1.669-3.256,3.441-6.554,5.294-9.871    c0.563-0.983,1.116-1.956,1.679-2.939c0.563-0.993,1.147-1.976,1.731-2.97c0.881,0.533,1.761,1.065,2.652,1.577    c0.563,0.328,1.137,0.655,1.71,0.973c1.249,0.707,2.519,1.382,3.799,2.048c0.676,0.348,1.362,0.696,2.048,1.024    c0.164,0.092,0.328,0.174,0.502,0.246c0.891,0.451,1.792,0.881,2.703,1.29c0.952,0.44,1.905,0.86,2.867,1.27    c0.072,0.041,0.143,0.072,0.225,0.102c0.932,0.399,1.864,0.788,2.806,1.167c0.02,0.01,0.031,0.01,0.041,0.01    c1.003,0.41,2.007,0.799,3.021,1.167c0.512,0.195,1.014,0.379,1.526,0.553c2.181,0.778,4.393,1.505,6.635,2.171    c0.891,0.266,1.792,0.522,2.693,0.758c0.205,0.061,0.42,0.123,0.625,0.174c1.894,0.512,3.82,0.973,5.755,1.393    c0.533,0.123,1.075,0.236,1.618,0.338c0.604,0.133,1.208,0.256,1.813,0.358c0.922,0.184,1.843,0.348,2.765,0.502    c0.174,0.031,0.338,0.061,0.512,0.082c0.41,0.072,0.829,0.133,1.239,0.195c0.061,0.01,0.123,0.02,0.195,0.031    c0.41,0.061,0.819,0.123,1.239,0.184c0.829,0.123,1.649,0.225,2.478,0.328c0.522,0.061,1.034,0.123,1.556,0.174    c0.287,0.041,0.573,0.072,0.85,0.092c0.625,0.072,1.239,0.123,1.864,0.184c3.779,0.338,7.598,0.502,11.459,0.502    c1.403,0,2.796-0.021,4.178-0.072c0.696-0.021,1.393-0.041,2.079-0.082c0.696-0.031,1.382-0.072,2.069-0.113    c0.686-0.041,1.382-0.092,2.069-0.154c0.43-0.031,0.87-0.061,1.3-0.102c0.256-0.021,0.502-0.051,0.748-0.072    c0.031-0.01,0.061-0.01,0.092-0.01c0.655-0.061,1.301-0.133,1.946-0.205c0.686-0.072,1.362-0.154,2.038-0.246    c0.44-0.051,0.881-0.113,1.321-0.174c0.061-0.01,0.123-0.01,0.174-0.031c1.003-0.133,2.007-0.287,3-0.451    c0.993-0.164,1.987-0.338,2.97-0.522c1.26-0.236,2.499-0.492,3.738-0.758c0.901-0.194,1.792-0.41,2.683-0.625    c0.932-0.215,1.843-0.451,2.765-0.696c0.225-0.061,0.461-0.123,0.686-0.184c0.891-0.246,1.782-0.491,2.662-0.758    c1.014-0.297,2.017-0.604,3.011-0.932c0.778-0.246,1.546-0.502,2.314-0.768c0.061-0.02,0.133-0.041,0.195-0.072    c0.358-0.123,0.717-0.246,1.065-0.369c0.686-0.246,1.362-0.492,2.038-0.747c0.85-0.317,1.7-0.645,2.54-0.983    c0.584-0.225,1.157-0.461,1.731-0.707c0.184-0.061,0.358-0.143,0.533-0.215c0.522-0.215,1.044-0.44,1.556-0.666    c1.259-0.543,2.519-1.116,3.758-1.72c1.239-0.584,2.468-1.198,3.697-1.823c1.219-0.635,2.427-1.28,3.625-1.946    c0.021-0.01,0.041-0.02,0.061-0.031c0.051-0.031,0.133-0.072,0.236-0.133c0.082-0.051,0.154-0.092,0.236-0.133    c0.133-0.072,0.277-0.143,0.41-0.236c0.01-0.01,0.02-0.01,0.031-0.02l0.01-0.01c0.266-0.143,0.533-0.297,0.799-0.451    c11.827,20.234,20.142,40.131,25.723,56.412l0.174,0.522C346.767,374.467,346.767,374.477,346.778,374.497z" fill="#ABADB0"/><path d="M383.294,205.535c0,10.918-1.383,21.522-3.98,31.636c-0.281,1.085-0.571,2.163-0.876,3.232    c-2.299,8.056-5.37,15.79-9.141,23.098c-0.281,0.539-0.563,1.077-0.852,1.616c-0.241,0.45-0.482,0.892-0.732,1.343    c-0.346,0.627-0.699,1.254-1.053,1.881c-0.716,1.246-1.447,2.484-2.195,3.706c-0.756,1.222-1.527,2.428-2.323,3.618    c-0.394,0.603-0.796,1.19-1.206,1.785c-0.402,0.587-0.812,1.174-1.23,1.753c-0.804,1.126-1.624,2.235-2.46,3.336    c-0.917,1.19-1.849,2.372-2.806,3.529c-0.892,1.085-1.801,2.155-2.733,3.208c-0.112,0.137-0.233,0.265-0.354,0.402    c-0.434,0.498-0.876,0.981-1.326,1.471c-0.498,0.547-1.013,1.093-1.528,1.64c-0.515,0.547-1.037,1.085-1.56,1.616    c-0.571,0.587-1.15,1.166-1.737,1.728c-0.482,0.482-0.973,0.949-1.455,1.407l-0.024,0.024c-0.531,0.507-1.061,0.997-1.6,1.487    c-0.024,0.032-0.056,0.056-0.088,0.088c-0.41,0.378-0.836,0.756-1.254,1.126c-0.33,0.297-0.667,0.595-1.013,0.892    c-0.426,0.378-0.86,0.748-1.302,1.117c-0.482,0.418-0.973,0.82-1.463,1.222c-0.394,0.33-0.796,0.659-1.206,0.973    c-0.37,0.306-0.74,0.603-1.109,0.884c-1.584,1.254-3.208,2.46-4.856,3.634c-0.603,0.426-1.206,0.852-1.817,1.262    c-0.498,0.338-0.989,0.675-1.495,1.013c-2.002,1.327-4.044,2.605-6.126,3.819c-4.028,2.356-8.208,4.494-12.501,6.408    c-0.707,0.306-1.415,0.619-2.13,0.917c-0.249,0.104-0.507,0.209-0.756,0.314c-1.479,0.619-2.975,1.198-4.478,1.761    c-0.466,0.169-0.933,0.338-1.407,0.506c-0.9,0.322-1.809,0.635-2.709,0.933c-0.498,0.169-0.997,0.33-1.495,0.482    c-0.498,0.161-0.997,0.314-1.495,0.466c-0.506,0.153-1.013,0.306-1.511,0.45c-0.498,0.145-1.005,0.289-1.511,0.426    c-1.27,0.354-2.54,0.683-3.819,0.997c-0.394,0.097-0.78,0.185-1.174,0.273c-0.515,0.129-1.037,0.241-1.56,0.354    c-0.498,0.113-0.997,0.217-1.487,0.322c-1.222,0.249-2.444,0.482-3.674,0.699c-0.386,0.072-0.772,0.137-1.166,0.201    c-1.415,0.233-2.83,0.45-4.261,0.635c0.37,0.748,0.732,1.511,1.085,2.283c1.688,3.618,3.28,7.461,4.703,11.521    c-0.225,0.442-0.547,0.828-0.933,1.134c-1.536-4.422-3.264-8.578-5.097-12.485c-5.403,0.699-10.918,1.061-16.513,1.061    c-6.174,0-12.26-0.434-18.21-1.278c-0.008,0-0.008,0-0.016,0c-2.331,5.097-3.98,9.615-5.105,13.185l-0.088-0.024l-0.764-1.222    c1.118-3.385,2.653-7.509,4.735-12.124c0.33-0.748,0.683-1.503,1.053-2.275c-0.957-0.137-1.913-0.289-2.862-0.45    c-0.418-0.064-0.836-0.137-1.254-0.217c-1.214-0.217-2.42-0.45-3.618-0.699c-0.539-0.113-1.077-0.233-1.616-0.354    c-0.539-0.121-1.077-0.241-1.616-0.37c-1.069-0.249-2.139-0.523-3.2-0.804c-0.426-0.113-0.844-0.225-1.27-0.338    c-3.803-1.053-7.533-2.275-11.183-3.666c-0.506-0.185-1.013-0.386-1.511-0.587c-1.061-0.41-2.114-0.844-3.168-1.294    c-0.981-0.426-1.962-0.852-2.934-1.302c-0.973-0.442-1.938-0.9-2.894-1.367c-0.482-0.233-0.957-0.466-1.431-0.707    c-0.957-0.482-1.897-0.973-2.838-1.479c-0.474-0.249-0.941-0.498-1.407-0.764c-0.917-0.506-1.833-1.021-2.742-1.552    c-0.925-0.547-1.849-1.101-2.758-1.664c-9.913-6.142-18.925-13.619-26.772-22.173c-0.82-0.892-1.624-1.793-2.412-2.709    c-7.605-8.779-14.029-18.62-19.013-29.264c-0.844-1.809-1.648-3.634-2.412-5.491c-3.119-7.581-5.523-15.54-7.131-23.781    c18.161-2.412,32.182-17.968,32.182-36.789c0-16.377-10.604-30.277-25.316-35.205c3.449-8.522,7.798-16.578,12.928-24.062    c2.042-2.975,4.205-5.861,6.488-8.643c0.289-0.354,0.579-0.707,0.876-1.061c0.716-0.86,1.447-1.704,2.187-2.54    c0.281-0.322,0.571-0.643,0.86-0.965c0.265-0.297,0.531-0.587,0.804-0.884c0.402-0.434,0.804-0.868,1.214-1.302    c0.41-0.442,0.828-0.868,1.246-1.302c0.418-0.426,0.836-0.86,1.262-1.278c0.426-0.426,0.852-0.844,1.278-1.262    c0.426-0.418,0.86-0.836,1.294-1.246c0.442-0.418,0.876-0.82,1.318-1.23c0.442-0.41,0.884-0.812,1.335-1.206    c0.442-0.402,0.892-0.796,1.351-1.19c0.45-0.394,0.908-0.788,1.367-1.174c0.458-0.386,0.917-0.772,1.383-1.15    c1.391-1.142,2.806-2.259,4.245-3.336c0.37-0.273,0.732-0.547,1.101-0.82c0.603-0.442,1.206-0.876,1.817-1.31    c1.962-1.391,3.963-2.725,6.006-4.004c1.536-0.957,3.087-1.889,4.663-2.782c0.265-0.161,0.539-0.306,0.804-0.458    c1.174-0.651,2.356-1.294,3.545-1.905c0.997-0.523,2.01-1.021,3.023-1.511c0.643-0.314,1.294-0.627,1.946-0.925    c0.322-0.153,0.635-0.297,0.957-0.434c0.362-0.169,0.724-0.33,1.093-0.49c0.683-0.306,1.367-0.603,2.058-0.892    c0.531-0.217,1.053-0.442,1.584-0.651c0.45-0.185,0.9-0.362,1.359-0.539c0.41-0.161,0.828-0.322,1.246-0.482    c1.455-0.555,2.926-1.077,4.414-1.584c0.41-0.137,0.828-0.273,1.246-0.402c1.101-0.37,2.219-0.715,3.336-1.037    c0.482-0.153,0.973-0.289,1.455-0.426c0.474-0.137,0.949-0.265,1.431-0.394c0.523-0.137,1.053-0.281,1.584-0.41    c0.555-0.145,1.109-0.281,1.664-0.418c0.177-0.04,0.354-0.08,0.531-0.129c0.531-0.121,1.069-0.241,1.6-0.362    c0.619-0.137,1.238-0.273,1.857-0.394c1.471-0.314,2.959-0.595,4.454-0.844c0.402-0.072,0.804-0.137,1.206-0.201    c2.114-0.338,4.253-0.619,6.399-0.852c0.563-0.064,1.118-0.121,1.68-0.169c0.635-0.064,1.27-0.121,1.905-0.169    c1.359-0.105,2.725-0.193,4.092-0.257c0.675-0.032,1.343-0.056,2.018-0.08c1.351-0.04,2.701-0.064,4.06-0.064    c1.318,0,2.637,0.024,3.947,0.064c0.659,0.016,1.31,0.04,1.97,0.072c0.651,0.032,1.302,0.064,1.954,0.105    c0.651,0.04,1.302,0.08,1.946,0.137c0.651,0.048,1.294,0.105,1.938,0.161c0.643,0.056,1.286,0.121,1.93,0.193c0,0,0,0,0.008,0    c0.386,0.04,0.764,0.08,1.15,0.129c0.458,0.056,0.908,0.105,1.367,0.169c0.024,0,0.04,0,0.056,0.008    c0.651,0.08,1.302,0.169,1.954,0.265c0.587,0.08,1.174,0.169,1.753,0.265c0.201,0.032,0.402,0.064,0.603,0.096    c0.386,0.056,0.772,0.121,1.15,0.193c0.466,0.072,0.925,0.161,1.383,0.249c0.064,0.008,0.129,0.016,0.185,0.032    c0.49,0.088,0.973,0.177,1.455,0.281c0.514,0.096,1.021,0.201,1.527,0.306c0.49,0.104,0.989,0.209,1.479,0.322    c0.78,0.177,1.552,0.354,2.323,0.547c0.571,0.137,1.15,0.281,1.72,0.434c1.921,0.49,3.827,1.029,5.716,1.616    c0.627,0.193,1.246,0.386,1.865,0.595c0.418,0.129,0.836,0.273,1.246,0.418c0.297,0.096,0.595,0.193,0.884,0.297    c1.688,0.587,3.361,1.206,5.009,1.857c1.278,0.498,2.541,1.021,3.787,1.56c1.109,0.482,2.211,0.981,3.312,1.487    c1.688,0.788,3.352,1.616,5.001,2.476c0.265,0.137,0.539,0.281,0.804,0.426c0.579,0.306,1.158,0.619,1.737,0.941    c1.15,0.635,2.291,1.286,3.417,1.954c0.418,0.249,0.836,0.498,1.246,0.748c0.338,0.201,0.675,0.41,1.013,0.627    c0.362,0.225,0.732,0.45,1.093,0.683c0.555,0.354,1.101,0.707,1.648,1.069c0.531,0.346,1.053,0.691,1.576,1.053    c0.635,0.426,1.27,0.868,1.897,1.31c0.386,0.273,0.772,0.547,1.15,0.82c0.989,0.716,1.97,1.439,2.934,2.187    c0.338,0.257,0.675,0.515,1.005,0.78c0.354,0.273,0.707,0.555,1.053,0.836c0.482,0.378,0.957,0.764,1.431,1.158    c0.498,0.41,0.997,0.828,1.495,1.254c0.498,0.418,0.989,0.852,1.479,1.278c0.402,0.346,0.796,0.699,1.182,1.045    c0.836,0.756,1.656,1.519,2.468,2.291c0.378,0.354,0.756,0.716,1.134,1.085c1.729,1.672,3.401,3.401,5.033,5.169    c0.434,0.474,0.86,0.949,1.286,1.431c0.434,0.49,0.868,0.981,1.294,1.471c0.37,0.426,0.74,0.86,1.101,1.294    c0.474,0.571,0.949,1.134,1.407,1.712c0.297,0.362,0.595,0.732,0.884,1.101c2.147,2.701,4.181,5.491,6.102,8.361    c9.133,13.659,15.677,29.192,18.941,45.898c1.471,7.509,2.275,15.259,2.348,23.178    C383.294,204.674,383.294,205.101,383.294,205.535z" fill="#B5B7B9"/><path d="M138.936,157.973c-0.747-0.256-1.516-0.481-2.283-0.686c-3.041-0.809-6.236-1.239-9.533-1.239    c-17.347,0-31.918,11.899-35.994,27.986c-0.43,2.949-0.819,6.175-1.126,9.718c0.307,20.234,16.814,36.547,37.12,36.547    c0.85,0,1.71-0.031,2.539-0.092c0.819-0.041,1.608-0.123,2.406-0.236c18.166-2.417,32.184-17.971,32.184-36.792    C164.25,176.804,153.641,162.898,138.936,157.973z M130.499,219.761c-0.788,0.102-1.587,0.164-2.396,0.195    c-0.328,0.01-0.655,0.021-0.983,0.021c-14.797,0-26.798-12.001-26.798-26.798c0-14.797,12.001-26.808,26.798-26.808    c2.079,0,4.096,0.236,6.031,0.676c0.778,0.184,1.556,0.41,2.304,0.645c10.721,3.512,18.463,13.599,18.463,25.487    C153.917,206.827,143.698,218.102,130.499,219.761z" fill="#BDBDC0"/><path d="M135.455,167.69c-0.748-0.236-1.526-0.461-2.304-0.645c-1.935-0.44-3.953-0.676-6.031-0.676    c-14.797,0-26.798,12.012-26.798,26.808c0,14.797,12.001,26.798,26.798,26.798c0.328,0,0.655-0.01,0.983-0.021    c0.809-0.031,1.608-0.092,2.396-0.195c13.199-1.659,23.419-12.933,23.419-26.583C153.917,181.289,146.176,171.203,135.455,167.69z     M127.119,214.805c-11.94,0-21.627-9.687-21.627-21.627c0-11.95,9.687-21.637,21.627-21.637c1.577,0,3.113,0.174,4.588,0.492    c0.788,0.174,1.557,0.379,2.304,0.635c8.571,2.877,14.735,10.977,14.735,20.511c0,10.947-8.141,20.009-18.719,21.422    c-0.778,0.113-1.587,0.184-2.396,0.195C127.457,214.805,127.293,214.805,127.119,214.805z" fill="#515151"/><path d="M151.549,193.178c0,12.368-9.199,22.602-21.14,24.2c-0.89,0.127-1.798,0.2-2.715,0.218    c-0.191,0.009-0.381,0.009-0.572,0.009c-13.494,0-24.427-10.942-24.427-24.427c0-13.494,10.933-24.436,24.427-24.436    c1.78,0,3.514,0.191,5.176,0.554c0.89,0.191,1.762,0.427,2.606,0.717C144.584,173.264,151.549,182.409,151.549,193.178z" fill="#7E7F7F"/><path d="M148.748,193.178c0,10.95-8.144,20.01-18.716,21.425c-0.788,0.113-1.592,0.177-2.404,0.193    c-0.169,0.008-0.338,0.008-0.506,0.008c-11.947,0-21.626-9.688-21.626-21.626c0-11.947,9.68-21.634,21.626-21.634    c1.576,0,3.111,0.169,4.583,0.49c0.788,0.169,1.56,0.378,2.307,0.635C142.582,175.547,148.748,183.643,148.748,193.178z" fill="#9A9A9A"/><g><circle cx="127.124" cy="188.186" fill="#B4B4B4" r="0.841"/><circle cx="127.124" cy="183.782" fill="#B4B4B4" r="0.841"/><circle cx="127.124" cy="179.379" fill="#B4B4B4" r="0.841"/><circle cx="127.124" cy="174.975" fill="#B4B4B4" r="0.841"/><circle cx="123.912" cy="184.349" fill="#B4B4B4" r="0.841"/><circle cx="122.406" cy="180.211" fill="#B4B4B4" r="0.841"/><circle cx="120.9" cy="176.074" fill="#B4B4B4" r="0.841"/><circle cx="121.088" cy="185.981" fill="#B4B4B4" r="0.841"/><circle cx="118.257" cy="182.608" fill="#B4B4B4" r="0.841"/><circle cx="115.427" cy="179.234" fill="#B4B4B4" r="0.841"/><circle cx="118.992" cy="188.48" fill="#B4B4B4" r="0.841"/><circle cx="115.178" cy="186.278" fill="#B4B4B4" r="0.841"/><circle cx="111.365" cy="184.076" fill="#B4B4B4" r="0.841"/><circle cx="117.877" cy="191.545" fill="#B4B4B4" r="0.841"/><circle cx="113.54" cy="190.78" fill="#B4B4B4" r="0.841"/><circle cx="109.204" cy="190.016" fill="#B4B4B4" r="0.841"/><circle cx="117.877" cy="194.807" fill="#B4B4B4" r="0.841"/><circle cx="113.541" cy="195.571" fill="#B4B4B4" r="0.841"/><circle cx="109.204" cy="196.336" fill="#B4B4B4" r="0.841"/><circle cx="118.994" cy="197.872" fill="#B4B4B4" r="0.841"/><circle cx="115.18" cy="200.073" fill="#B4B4B4" r="0.841"/><circle cx="111.367" cy="202.275" fill="#B4B4B4" r="0.841"/><circle cx="121.091" cy="200.37" fill="#B4B4B4" r="0.841"/><circle cx="118.26" cy="203.743" fill="#B4B4B4" r="0.841"/><circle cx="115.43" cy="207.116" fill="#B4B4B4" r="0.841"/><circle cx="123.916" cy="202" fill="#B4B4B4" r="0.841"/><circle cx="122.41" cy="206.138" fill="#B4B4B4" r="0.841"/><circle cx="120.904" cy="210.276" fill="#B4B4B4" r="0.841"/><circle cx="127.128" cy="202.566" fill="#B4B4B4" r="0.841"/><circle cx="127.128" cy="206.969" fill="#B4B4B4" r="0.841"/><circle cx="127.128" cy="211.372" fill="#B4B4B4" r="0.841"/><circle cx="130.34" cy="201.999" fill="#B4B4B4" r="0.841"/><circle cx="131.846" cy="206.136" fill="#B4B4B4" r="0.841"/><circle cx="133.352" cy="210.274" fill="#B4B4B4" r="0.841"/><circle cx="133.165" cy="200.367" fill="#B4B4B4" r="0.841"/><circle cx="135.995" cy="203.74" fill="#B4B4B4" r="0.841"/><circle cx="138.825" cy="207.113" fill="#B4B4B4" r="0.841"/><circle cx="135.261" cy="197.868" fill="#B4B4B4" r="0.841"/><circle cx="139.074" cy="200.07" fill="#B4B4B4" r="0.841"/><circle cx="142.887" cy="202.271" fill="#B4B4B4" r="0.841"/><circle cx="136.376" cy="194.803" fill="#B4B4B4" r="0.841"/><circle cx="140.712" cy="195.567" fill="#B4B4B4" r="0.841"/><circle cx="145.048" cy="196.332" fill="#B4B4B4" r="0.841"/><circle cx="136.375" cy="191.541" fill="#B4B4B4" r="0.841"/><circle cx="140.711" cy="190.776" fill="#B4B4B4" r="0.841"/><circle cx="145.048" cy="190.012" fill="#B4B4B4" r="0.841"/><circle cx="135.259" cy="188.476" fill="#B4B4B4" r="0.841"/><circle cx="139.072" cy="186.275" fill="#B4B4B4" r="0.841"/><circle cx="142.885" cy="184.073" fill="#B4B4B4" r="0.841"/><circle cx="133.161" cy="185.978" fill="#B4B4B4" r="0.841"/><circle cx="135.992" cy="182.605" fill="#B4B4B4" r="0.841"/><circle cx="138.822" cy="179.232" fill="#B4B4B4" r="0.841"/><circle cx="130.336" cy="184.348" fill="#B4B4B4" r="0.841"/><circle cx="131.842" cy="180.21" fill="#B4B4B4" r="0.841"/><circle cx="133.348" cy="176.072" fill="#B4B4B4" r="0.841"/><circle cx="123.918" cy="189.354" fill="#B4B4B4" r="0.841"/><circle cx="122.213" cy="192.31" fill="#B4B4B4" r="0.841"/><circle cx="122.807" cy="195.67" fill="#B4B4B4" r="0.841"/><circle cx="125.422" cy="197.862" fill="#B4B4B4" r="0.841"/><circle cx="128.834" cy="197.861" fill="#B4B4B4" r="0.841"/><circle cx="131.447" cy="195.666" fill="#B4B4B4" r="0.841"/><circle cx="132.038" cy="192.306" fill="#B4B4B4" r="0.841"/><circle cx="130.331" cy="189.351" fill="#B4B4B4" r="0.841"/></g><path d="M182.129,270.599c0,3.65-0.635,7.211-1.881,10.588l-0.579,1.576h-16.634v16.264l-1.64,0.555    c-3.184,1.085-6.512,1.632-9.889,1.632c-3.698,0-7.316-0.651-10.741-1.938l-1.568-0.587v-15.926h-15.854l-0.579-1.576    c-1.246-3.377-1.881-6.938-1.881-10.588c0-3.441,0.563-6.818,1.688-10.041l0.563-1.624h16.063V242.5l1.568-0.587    c3.425-1.286,7.043-1.938,10.741-1.938c3.377,0,6.705,0.547,9.889,1.632l1.64,0.555v16.771h16.843l0.563,1.624    C181.566,263.781,182.129,267.158,182.129,270.599z" fill="#474747"/><path d="M179.718,270.598c0,3.426-0.61,6.718-1.731,9.754h-17.365v16.947c-2.859,0.972-5.923,1.504-9.115,1.504    c-3.483,0-6.817-0.631-9.896-1.788v-16.663h-16.585c-1.121-3.036-1.731-6.328-1.731-9.754c0-3.242,0.546-6.349,1.554-9.25h16.762    v-17.174c3.079-1.156,6.413-1.788,9.896-1.788c3.192,0,6.257,0.532,9.115,1.504v17.458h17.543    C179.171,264.249,179.718,267.356,179.718,270.598z" fill="#8B8B8F"/><path d="M315.922,93.504v116.195l-0.008,0.048c-3.344,31.185-29.553,54.709-60.972,54.709    c-31.451,0-57.668-23.556-60.98-54.781l-0.008-0.088V95.224c0.265-0.161,0.539-0.306,0.804-0.458    c18.274-10.21,39.329-16.023,61.744-16.023c21.144,0,41.082,5.177,58.616,14.334C315.384,93.214,315.657,93.359,315.922,93.504z" fill="#353446"/><path d="M315.118,93.078v116.581c-3.256,30.357-28.958,53.993-60.176,53.993c-31.242,0-56.96-23.676-60.184-54.066    V94.766c18.274-10.21,39.329-16.023,61.744-16.023C277.646,78.743,297.584,83.921,315.118,93.078z" fill="#8D8E92"/><path d="M296.282,217.096c-1.503,2.114-3.972,3.328-6.399,3.988c-10.467,2.854-21.361,4.164-32.206,4.269v0.032    c-0.908,0.024-1.825,0.032-2.742,0.032c-11.304,0-22.679-1.302-33.597-4.277c-2.428-0.659-4.896-1.873-6.399-3.988    c-2.508-3.537-2.645-8.281-2.581-12.437c0.064-3.762-0.008-7.533,0-11.296c0-5.346,0.024-10.693,0.008-16.039    c-0.016-4.888,0.008-9.776,0-14.664v-7.348c0-3.771,0.563-8.795,3.489-11.513c3.425-3.184,8.53-3.674,12.903-4.542    c5.435-1.093,10.934-1.825,16.465-2.219c2.766-0.201,5.547-0.306,8.321-0.33v-0.032c0.908-0.024,1.825-0.032,2.741-0.032    c3.24,0,6.48,0.105,9.712,0.338c5.531,0.394,11.03,1.126,16.465,2.219c4.374,0.868,9.479,1.359,12.903,4.542    c2.926,2.717,3.489,7.742,3.489,11.513v7.348c-0.008,4.888,0.016,9.776,0,14.664c-0.016,5.346,0.008,10.693,0.008,16.039    c0.008,3.762-0.064,7.533,0,11.296C298.927,208.815,298.79,213.558,296.282,217.096z" fill="#585859"/><path d="M293.491,207.569c0,3.996-3.24,7.236-7.236,7.236h-62.633c-3.996,0-7.236-3.239-7.236-7.236v-52.961    c0-3.996,3.239-7.236,7.236-7.236h62.633c3.996,0,7.236,3.239,7.236,7.236V207.569z" fill="#B7D0B1"/><path d="M282.896,117.679v6.649c0,1.576-1.503,2.846-3.369,2.846H230.06c-1.865,0-3.369-1.27-3.369-2.846v-6.649    c0-1.576,1.503-2.846,3.369-2.846h7.445v-9.623c0-6.528,3.369-12.236,8.393-15.364c2.597-1.616,5.644-2.549,8.892-2.549    c3.256,0,6.303,0.933,8.9,2.549c5.025,3.135,8.385,8.843,8.385,15.364v9.623h7.453    C281.393,114.833,282.896,116.103,282.896,117.679z" fill="#94969B"/><path d="M255.129,347.303c-4.775,0-9.5-0.559-14.044-1.662l-0.698-0.169l-1.299-2.078v-0.335l0.027-0.116    c0.057-0.217,0.096-0.366,0.147-0.528c1.164-4.343,4.953-15.606,14.743-25.628c0.094-0.102,0.199-0.207,0.312-0.312l0.05-0.046    l0.057-0.037c0.301-0.195,0.647-0.298,1.001-0.298c0.336,0,0.666,0.096,0.952,0.278l0.043,0.027l0.04,0.033    c0.113,0.094,0.236,0.207,0.369,0.34c2.498,2.38,11.021,11.276,15.227,25.243c0.079,0.243,0.154,0.502,0.229,0.77l0.03,0.107    v0.111c0,0.941-0.492,1.746-1.284,2.147l-0.171,0.087h-0.081c-0.064,0.018-0.376,0.104-0.47,0.133    C267.621,346.097,262.113,347.303,255.129,347.303z" fill="#67686A"/><path d="M271.512,343.003v0.048c0,0.603-0.338,1.126-0.844,1.383c0,0,0,0-0.008,0    c-0.177,0.056-0.378,0.105-0.587,0.169c-4.317,1.166-15.548,3.473-28.798,0.257c-0.129-0.032-0.249-0.056-0.378-0.088    l-1.005-1.608c0-0.008,0-0.008,0-0.016c0.04-0.153,0.08-0.314,0.137-0.49c1.214-4.526,4.96-15.492,14.552-25.308l0.008-0.008    c0.088-0.096,0.177-0.185,0.273-0.273c0.161-0.105,0.354-0.169,0.563-0.169c0.193,0,0.37,0.056,0.523,0.153    c0.096,0.08,0.201,0.177,0.314,0.289c2.733,2.605,10.918,11.263,15.026,24.906C271.367,342.496,271.44,342.745,271.512,343.003z" fill="#828388"/><path d="M417.731,255.98c-3.994,39.619-9.923,80.2-26.184,116.879c0,0-14.254,34.509-23.194,42.025    c-8.929,7.526-11.755-8.09-11.755-8.09c-2.499-9.789-4.465-19.538-7.67-29.153c-0.256-0.747-0.502-1.495-0.768-2.263    c-0.061-0.184-0.123-0.369-0.195-0.553c-5.704-16.66-14.234-37.007-26.378-57.713c0.266-0.154,0.533-0.317,0.799-0.481    c0.236-0.133,0.471-0.266,0.696-0.41c0.174-0.102,0.348-0.205,0.512-0.307c1.065-0.645,2.12-1.311,3.164-1.997    c0.256-0.164,0.512-0.328,0.768-0.502c0.645-0.42,1.29-0.86,1.925-1.301c2.642-1.812,5.212-3.717,7.711-5.724    c0.461-0.369,0.922-0.737,1.372-1.116c0.655-0.533,1.311-1.085,1.966-1.649c0.502-0.43,0.993-0.86,1.485-1.29    c0.737-0.655,1.464-1.311,2.191-1.987c0.41-0.369,0.809-0.747,1.208-1.137c0.891-0.829,1.761-1.679,2.621-2.55    c0.44-0.451,0.891-0.901,1.331-1.362c0.594-0.604,1.178-1.229,1.761-1.853c0.42-0.451,0.84-0.911,1.259-1.372    c2.519-2.785,4.925-5.693,7.189-8.694c0.471-0.614,0.932-1.239,1.393-1.864c1.004-1.372,1.976-2.765,2.929-4.188    c0.348-0.512,0.686-1.034,1.024-1.556c0.307-0.471,0.614-0.942,0.911-1.423c0.369-0.573,0.727-1.157,1.085-1.751    c0.297-0.481,0.594-0.973,0.881-1.464c0.266-0.44,0.532-0.891,0.788-1.352c0.328-0.563,0.645-1.126,0.963-1.7    c0.133-0.225,0.256-0.461,0.389-0.696c0.102-0.184,0.205-0.379,0.307-0.563h-0.01c-0.86-0.051-1.679-0.174-2.499-0.369    c0.225-0.389,0.44-0.778,0.645-1.167c0.195-0.348,0.369-0.696,0.553-1.044c0.133-0.246,0.266-0.502,0.389-0.747    c1.649-3.195,3.164-6.472,4.526-9.82c0-0.01,0-0.01,0.01-0.01c0.573-1.372,1.106-2.755,1.628-4.147    c1.096-2.99,2.099-6.031,2.98-9.114c0.072-0.266,0.154-0.533,0.225-0.799c0.225-0.809,0.44-1.618,0.645-2.437    c0.748,0.43,1.444,0.922,2.099,1.454c0.348-1.311,0.676-2.652,0.983-3.983c0.164-0.666,0.317-1.331,0.451-2.007    c0.287-1.352,0.563-2.693,0.799-4.065c0.123-0.676,0.246-1.362,0.348-2.038c0.123-0.686,0.225-1.372,0.328-2.058    c0.102-0.676,0.195-1.372,0.287-2.058c0.092-0.676,0.174-1.352,0.246-2.028c0.01-0.051,0.02-0.102,0.02-0.143    c0.164-1.352,0.287-2.703,0.399-4.065c0-0.041,0.01-0.082,0.01-0.133c0.051-0.666,0.102-1.331,0.143-2.007    c0.051-0.696,0.092-1.403,0.123-2.109c0.072-1.382,0.123-2.775,0.143-4.178c0.01-0.727,0.02-1.475,0.02-2.212    c0-1.608-0.041-3.215-0.092-4.802c-0.625,1.27-1.403,2.447-2.345,3.502c-0.01-1.352-0.041-2.693-0.102-4.024    c-0.021-0.573-0.051-1.137-0.072-1.71c-0.215-3.973-0.614-7.895-1.188-11.766c-0.092-0.563-0.174-1.126-0.277-1.679    c-0.205-1.341-0.451-2.673-0.707-3.994c1.126,0.85,2.13,1.843,2.98,2.97c-0.195-1.208-0.41-2.406-0.655-3.604    c-0.082-0.43-0.164-0.85-0.256-1.26c-0.236-1.126-0.481-2.243-0.748-3.369c-0.092-0.379-0.174-0.778-0.287-1.157    c-0.195-0.829-0.399-1.649-0.614-2.458c-0.328-1.229-0.676-2.437-1.034-3.645c-0.184-0.573-0.358-1.157-0.533-1.731    c-0.195-0.614-0.399-1.219-0.594-1.823c-0.113-0.358-0.236-0.707-0.358-1.055c-0.184-0.553-0.379-1.116-0.573-1.669    c-0.215-0.614-0.451-1.239-0.676-1.853c-0.225-0.604-0.461-1.208-0.696-1.802c-0.143-0.358-0.276-0.727-0.42-1.075    c-0.266-0.666-0.543-1.321-0.819-1.976c-0.236-0.563-0.481-1.137-0.727-1.69c-0.164-0.389-0.338-0.778-0.512-1.147    c-0.184-0.41-0.369-0.829-0.553-1.229c-1.393-3-2.888-5.939-4.495-8.806c-0.215-0.389-0.43-0.768-0.645-1.147    c-0.256-0.451-0.533-0.922-0.809-1.382c-0.225-0.379-0.451-0.768-0.676-1.157c-0.604-0.983-1.198-1.956-1.823-2.918l34.929,9.421    c0,0,2.673,0.471,5.284,2.417c1.915,1.403,3.789,3.604,4.588,6.973C412.088,162.888,425.247,181.227,417.731,255.98z" fill="#A6A6A9"/><path d="M341.199,235.864c-7.456,0-13.522-6.066-13.522-13.522s6.066-13.522,13.522-13.522    c7.456,0,13.522,6.066,13.522,13.522S348.655,235.864,341.199,235.864z" fill="#515151"/><circle cx="341.199" cy="222.342" fill="#B19F20" r="12.718"/><path d="M371.299,207.271c-7.456,0-13.522-6.066-13.522-13.522s6.066-13.522,13.522-13.522    c7.456,0,13.522,6.066,13.522,13.522S378.756,207.271,371.299,207.271z" fill="#515151"/><circle cx="371.299" cy="193.749" fill="#369779" r="12.718"/><path d="M371.299,264.457c-7.456,0-13.522-6.066-13.522-13.522c0-7.456,6.066-13.522,13.522-13.522    c7.456,0,13.522,6.066,13.522,13.522C384.821,258.391,378.756,264.457,371.299,264.457z" fill="#515151"/><path d="M384.017,250.934c0,6.826-5.378,12.397-12.132,12.702c-0.193,0.008-0.386,0.016-0.587,0.016    c-0.683,0-1.351-0.056-2.002-0.153c-6.078-0.965-10.717-6.223-10.717-12.566c0-7.027,5.692-12.719,12.719-12.719    c2.645,0,5.105,0.804,7.139,2.187c0.724,0.49,1.399,1.061,2.002,1.688C382.659,244.382,384.017,247.493,384.017,250.934z" fill="#B73738"/><path d="M401.4,235.864c-7.456,0-13.522-6.066-13.522-13.522s6.066-13.522,13.522-13.522    c7.456,0,13.522,6.066,13.522,13.522S408.856,235.864,401.4,235.864z" fill="#515151"/><circle cx="401.4" cy="222.342" fill="#2F6CAE" r="12.718"/><g><path d="M243,105c1-6,5-12,12-11c4,1,8,3,9,7c1,3-1,6-3,9     s-6,3-9,2c-4-2-5-8-2-12c3-2,8-3,10,1c1,2,1,4,0,6c-2,3-7,3-9,0c0-2-2-5,4-6c1,0,3,1,3,3c0,1-1,3-3,3c-1,0-2-1-3-3c2,1,0-6,5,0     c0,0-1,2-2,2s-1-1-2-2c1,0,1-1,2-1l1,1l-1,1l-1-1c1,0,1,0,2,0c0,0-1,6-1,0" fill="none" stroke="#545B98" stroke-miterlimit="10" stroke-width="2"/></g><g opacity="0.5"><g><path d="M236.462,119.962c-0.061-0.123-0.133-0.195-0.205-0.205c-0.02-0.01-0.041,0-0.061,0.01      c-0.061,0.01-0.113,0.061-0.154,0.154c-0.072,0.123-0.154,0.266-0.236,0.44c-0.092,0.174-0.195,0.338-0.297,0.492      c-0.102,0.154-0.205,0.287-0.307,0.41c-0.102,0.133-0.195,0.205-0.287,0.236c0.01-0.082,0.02-0.164,0.031-0.236      c0.031-0.143,0.061-0.317,0.102-0.492c0.031-0.184,0.072-0.358,0.102-0.543c0.102-0.553,0.174-0.952,0.215-1.219      c0.041-0.266,0.041-0.491-0.01-0.686c-0.02-0.072-0.041-0.133-0.072-0.205c-0.031-0.072-0.082-0.123-0.133-0.143      c-0.102-0.072-0.195-0.01-0.277,0.184c-0.143,0.307-0.266,0.573-0.389,0.809c-0.113,0.235-0.246,0.492-0.399,0.788      c-0.154,0.287-0.317,0.584-0.492,0.891c-0.225,0.369-0.43,0.676-0.604,0.932c-0.174,0.246-0.318,0.44-0.451,0.584      c-0.133,0.154-0.256,0.256-0.348,0.328c-0.102,0.061-0.184,0.102-0.246,0.123c0-0.041,0.01-0.082,0.021-0.123      c0-0.041,0.01-0.092,0.02-0.143c0.041-0.154,0.072-0.317,0.102-0.481c0.041-0.164,0.072-0.328,0.102-0.502      c0.133-0.573,0.225-1.024,0.277-1.341c0.051-0.317,0.061-0.594,0.01-0.829c-0.061-0.236-0.133-0.369-0.236-0.41      c-0.215-0.143-0.461-0.061-0.727,0.225c-0.102,0.113-0.205,0.246-0.307,0.41c-0.092,0.164-0.184,0.317-0.276,0.461      c-0.061,0.123-0.092,0.266-0.113,0.43c-0.01,0.164,0.01,0.317,0.061,0.461c0.051,0.123,0.123,0.195,0.195,0.225      c0.082,0.031,0.154-0.01,0.225-0.123c0.092-0.164,0.184-0.328,0.276-0.492c0.092-0.154,0.184-0.266,0.266-0.338      c-0.031,0.123-0.061,0.256-0.082,0.389c-0.031,0.143-0.051,0.266-0.082,0.379c-0.143,0.625-0.235,1.126-0.297,1.526      c-0.061,0.389-0.072,0.727-0.01,1.004c0.041,0.215,0.123,0.358,0.246,0.43c0.041,0.031,0.082,0.051,0.123,0.061      c0.041,0.021,0.092,0.021,0.143,0.021c0.492,0,1.188-0.748,2.079-2.253c0.082-0.154,0.154-0.297,0.236-0.42      c0.072-0.123,0.143-0.256,0.215-0.389c-0.061,0.358-0.092,0.655-0.113,0.881c-0.02,0.225,0,0.44,0.031,0.635      c0.051,0.184,0.123,0.328,0.225,0.41c0.154,0.082,0.307,0.082,0.471,0.01c0.164-0.072,0.317-0.205,0.481-0.389      c0.154-0.194,0.307-0.41,0.461-0.666c0.154-0.235,0.287-0.491,0.43-0.758c0.01-0.021,0.021-0.041,0.031-0.061      c0.061-0.123,0.092-0.266,0.102-0.44C236.534,120.248,236.513,120.095,236.462,119.962z" fill="#494853"/><path d="M242.022,119.808c-0.082-0.082-0.154-0.092-0.215-0.031c-0.522,0.399-0.922,0.696-1.208,0.911      c-0.287,0.205-0.502,0.338-0.645,0.41c0.01-0.051,0.02-0.102,0.031-0.143c0.01-0.041,0.021-0.072,0.031-0.102      c0.123-0.399,0.215-0.788,0.297-1.147c0.092-0.369,0.102-0.707,0.041-1.024c-0.051-0.307-0.154-0.502-0.307-0.584      c-0.502-0.287-1.147-0.225-1.935,0.205c-0.307,0.154-0.614,0.358-0.942,0.614c-0.307,0.246-0.635,0.522-0.973,0.85      c-0.02,0.01-0.041,0.031-0.061,0.051c-0.072,0.072-0.123,0.184-0.164,0.348c-0.031,0.164-0.021,0.328,0.01,0.481      c0.041,0.154,0.092,0.256,0.164,0.317c0.061,0.061,0.133,0.061,0.205-0.01c0.02-0.021,0.031-0.031,0.051-0.041      c0.338-0.317,0.655-0.584,0.952-0.819c0.317-0.246,0.614-0.44,0.901-0.594c0.317-0.174,0.594-0.287,0.85-0.317      c0.256-0.031,0.481-0.021,0.676,0.051c-0.02,0.082-0.031,0.154-0.051,0.205c-0.031,0.113-0.061,0.235-0.092,0.369      c-0.031,0.133-0.072,0.256-0.113,0.379c-0.102,0.358-0.195,0.686-0.246,0.973c-0.061,0.297-0.072,0.553-0.031,0.788      c0.051,0.266,0.133,0.42,0.256,0.481c0.041,0.021,0.082,0.041,0.133,0.041c0.061,0,0.164-0.031,0.297-0.092      c0.133-0.061,0.328-0.184,0.594-0.348c0.195-0.123,0.41-0.276,0.655-0.451c0.235-0.174,0.492-0.358,0.758-0.573      c0.01,0,0.01,0,0.02-0.01c0.01,0,0.02-0.01,0.031-0.02c0.092-0.072,0.143-0.184,0.174-0.338c0.031-0.164,0.031-0.317,0-0.471      C242.145,120.003,242.094,119.88,242.022,119.808z" fill="#494853"/><path d="M247.275,119.962c-0.061-0.123-0.133-0.195-0.205-0.205c-0.062-0.021-0.123,0.02-0.174,0.092      c-0.01,0.01-0.01,0.021-0.02,0.031c-0.01,0.01-0.01,0.031-0.021,0.041c-0.072,0.123-0.154,0.266-0.235,0.44      c-0.092,0.174-0.195,0.338-0.297,0.492c-0.102,0.154-0.205,0.287-0.307,0.41c-0.102,0.133-0.195,0.205-0.287,0.236      c0.01-0.082,0.021-0.164,0.031-0.236c0.031-0.143,0.061-0.317,0.102-0.492c0.031-0.184,0.072-0.358,0.113-0.543      c0.102-0.553,0.164-0.952,0.205-1.219c0.041-0.266,0.041-0.491-0.01-0.686c-0.021-0.072-0.041-0.133-0.072-0.205      c-0.031-0.072-0.072-0.123-0.123-0.143c-0.113-0.072-0.205-0.01-0.287,0.184c-0.143,0.307-0.266,0.573-0.379,0.809      c-0.123,0.235-0.256,0.492-0.41,0.788c-0.154,0.287-0.317,0.584-0.492,0.891c-0.225,0.369-0.43,0.676-0.604,0.932      c-0.164,0.246-0.317,0.44-0.451,0.584c-0.133,0.154-0.246,0.256-0.348,0.328c-0.102,0.061-0.184,0.102-0.246,0.123      c0-0.041,0.01-0.082,0.02-0.123c0-0.041,0.01-0.092,0.02-0.143c0.041-0.154,0.072-0.317,0.102-0.481      c0.041-0.164,0.072-0.328,0.102-0.502c0.133-0.573,0.225-1.024,0.277-1.341s0.061-0.594,0.01-0.829      c-0.051-0.236-0.133-0.369-0.236-0.41c-0.215-0.143-0.461-0.061-0.727,0.225c-0.102,0.113-0.205,0.246-0.307,0.41      c-0.072,0.123-0.143,0.246-0.215,0.358c-0.02,0.031-0.041,0.072-0.061,0.102c-0.061,0.123-0.092,0.266-0.102,0.43      c-0.02,0.164,0,0.317,0.051,0.461c0.051,0.123,0.123,0.195,0.195,0.225c0.02,0.01,0.031,0.01,0.051,0.01      c0.01,0,0.01,0,0.02-0.01c0.051,0,0.102-0.041,0.154-0.123c0.092-0.164,0.184-0.328,0.277-0.492      c0.102-0.154,0.184-0.266,0.266-0.338c-0.031,0.123-0.061,0.256-0.082,0.389c-0.031,0.143-0.051,0.266-0.082,0.379      c-0.133,0.625-0.236,1.126-0.297,1.526c-0.061,0.389-0.061,0.727-0.01,1.004c0.051,0.215,0.123,0.358,0.246,0.43      c0.041,0.031,0.082,0.051,0.123,0.061c0.051,0.021,0.092,0.021,0.143,0.021c0.502,0,1.188-0.748,2.079-2.253      c0.082-0.154,0.164-0.297,0.236-0.42c0.072-0.123,0.143-0.256,0.215-0.389c-0.061,0.358-0.092,0.655-0.113,0.881      c-0.01,0.225,0,0.44,0.031,0.635c0.051,0.184,0.123,0.328,0.225,0.41c0.154,0.082,0.317,0.082,0.471,0.01      c0.164-0.072,0.328-0.205,0.481-0.389c0.154-0.194,0.317-0.41,0.471-0.666c0.143-0.235,0.277-0.491,0.42-0.758      c0.01-0.021,0.02-0.041,0.031-0.061c0.061-0.123,0.092-0.266,0.102-0.44C247.347,120.248,247.327,120.095,247.275,119.962z" fill="#494853"/><path d="M252.406,119.962c-0.061-0.123-0.123-0.195-0.205-0.205c-0.041-0.01-0.061,0-0.102,0.02l-0.01,0.01      c0,0-0.01,0-0.01,0.01c-0.031,0.031-0.061,0.072-0.082,0.113c0,0.01-0.01,0.01-0.01,0.01c-0.072,0.123-0.143,0.266-0.236,0.44      c-0.092,0.174-0.184,0.338-0.287,0.492c-0.102,0.154-0.215,0.287-0.317,0.41c-0.102,0.133-0.195,0.205-0.287,0.236      c0.01-0.082,0.021-0.164,0.031-0.236c0.031-0.143,0.061-0.317,0.102-0.492c0.031-0.184,0.072-0.358,0.113-0.543      c0.102-0.553,0.174-0.952,0.205-1.219c0.041-0.266,0.041-0.491-0.01-0.686c-0.01-0.072-0.041-0.133-0.072-0.205      c-0.031-0.072-0.072-0.123-0.123-0.143c-0.113-0.072-0.205-0.01-0.287,0.184c-0.133,0.307-0.266,0.573-0.379,0.809      c-0.123,0.235-0.256,0.492-0.41,0.788c-0.154,0.287-0.317,0.584-0.492,0.891c-0.225,0.369-0.42,0.676-0.594,0.932      c-0.174,0.246-0.328,0.44-0.461,0.584c-0.133,0.154-0.246,0.256-0.348,0.328c-0.102,0.061-0.184,0.102-0.246,0.123      c0.01-0.041,0.01-0.082,0.02-0.123c0.01-0.041,0.01-0.092,0.031-0.143c0.031-0.154,0.061-0.317,0.102-0.481      c0.031-0.164,0.061-0.328,0.102-0.502c0.123-0.573,0.215-1.024,0.266-1.341c0.061-0.317,0.061-0.594,0.01-0.829      c-0.051-0.236-0.133-0.369-0.236-0.41c-0.215-0.143-0.461-0.061-0.717,0.225c-0.113,0.113-0.215,0.246-0.317,0.41      c-0.082,0.154-0.174,0.297-0.256,0.43c-0.01,0.01-0.01,0.021-0.02,0.031c-0.01,0.01-0.01,0.031-0.021,0.041      c-0.051,0.113-0.072,0.246-0.082,0.389c-0.02,0.164,0,0.317,0.051,0.461c0.051,0.123,0.123,0.195,0.205,0.225      c0.072,0.031,0.133,0,0.184-0.082c0.01-0.01,0.02-0.031,0.031-0.041c0.092-0.164,0.195-0.328,0.287-0.492      c0.092-0.154,0.174-0.266,0.266-0.338c-0.041,0.123-0.061,0.256-0.092,0.389c-0.021,0.143-0.051,0.266-0.072,0.379      c-0.143,0.625-0.246,1.126-0.307,1.526c-0.062,0.389-0.062,0.727-0.01,1.004c0.051,0.215,0.133,0.358,0.246,0.43      c0.041,0.031,0.092,0.051,0.133,0.061c0.041,0.021,0.082,0.021,0.133,0.021c0.502,0,1.188-0.748,2.079-2.253      c0.082-0.154,0.164-0.297,0.236-0.42c0.072-0.123,0.143-0.256,0.215-0.389c-0.051,0.358-0.092,0.655-0.113,0.881      c-0.01,0.225,0,0.44,0.041,0.635c0.041,0.184,0.113,0.328,0.215,0.41c0.154,0.082,0.317,0.082,0.471,0.01      c0.164-0.072,0.328-0.205,0.481-0.389c0.164-0.194,0.317-0.41,0.471-0.666c0.133-0.225,0.266-0.461,0.399-0.717      c0.021-0.031,0.031-0.072,0.051-0.102c0.061-0.123,0.102-0.266,0.102-0.44C252.477,120.248,252.457,120.095,252.406,119.962z" fill="#494853"/><path d="M256.205,120.125c-0.031-0.154-0.082-0.256-0.154-0.317c-0.072-0.061-0.143-0.061-0.215,0.01      c-0.02,0.021-0.051,0.041-0.072,0.061v0.01c-0.338,0.297-0.635,0.594-0.87,0.881c0.01-0.061,0.01-0.102,0.021-0.143      c0-0.041,0.01-0.092,0.02-0.154c0.041-0.266,0.082-0.512,0.113-0.727c0.021-0.215,0.051-0.41,0.072-0.594      c0.031-0.317,0.041-0.563,0.051-0.737c0-0.174-0.01-0.307-0.041-0.42c-0.041-0.195-0.102-0.307-0.195-0.338      c-0.031-0.021-0.061-0.031-0.092-0.031c-0.031,0.01-0.061,0.021-0.092,0.031c-0.338,0.276-0.645,0.522-0.901,0.727      c-0.256,0.205-0.543,0.44-0.85,0.686c-0.317,0.246-0.614,0.481-0.901,0.707l-0.01,0.01c0,0-0.01,0-0.01,0.01      c-0.031,0.031-0.061,0.072-0.082,0.113c0,0.01-0.01,0.01-0.01,0.01c-0.02,0.061-0.041,0.123-0.061,0.195      c-0.031,0.164-0.041,0.317-0.01,0.471c0.031,0.164,0.082,0.287,0.154,0.358c0.082,0.072,0.154,0.082,0.225,0.031      c0.01-0.01,0.021-0.021,0.031-0.021c0.174-0.154,0.369-0.297,0.563-0.451c0.205-0.174,0.41-0.328,0.604-0.492      c0.195-0.164,0.379-0.307,0.553-0.44c0.174-0.143,0.328-0.266,0.461-0.379c-0.02,0.143-0.041,0.297-0.061,0.471      c-0.031,0.174-0.061,0.369-0.092,0.604c-0.061,0.399-0.123,0.758-0.164,1.075c-0.051,0.328-0.072,0.492-0.072,0.502      c-0.051,0.277-0.02,0.502,0.082,0.686c0.051,0.092,0.113,0.143,0.195,0.143c0.061,0,0.102-0.031,0.143-0.102      c0.133-0.154,0.277-0.317,0.44-0.502c0.133-0.154,0.287-0.317,0.481-0.512c0.174-0.184,0.369-0.379,0.574-0.573      c0.01-0.01,0.02-0.021,0.031-0.031c0.072-0.072,0.123-0.184,0.154-0.348C256.246,120.433,256.246,120.279,256.205,120.125z" fill="#494853"/><path d="M261.294,119.962c-0.061-0.123-0.133-0.195-0.205-0.205c-0.061-0.021-0.123,0.02-0.174,0.092      c-0.01,0.01-0.01,0.021-0.02,0.031c-0.01,0.01-0.01,0.031-0.021,0.041c-0.072,0.123-0.154,0.266-0.235,0.44      c-0.092,0.174-0.195,0.338-0.297,0.492c-0.102,0.154-0.205,0.287-0.307,0.41c-0.102,0.133-0.195,0.205-0.287,0.236      c0.01-0.082,0.021-0.164,0.031-0.236c0.031-0.143,0.061-0.317,0.102-0.492c0.031-0.184,0.072-0.358,0.102-0.543      c0.102-0.553,0.174-0.952,0.215-1.219c0.041-0.266,0.041-0.491-0.01-0.686c-0.021-0.072-0.041-0.133-0.072-0.205      c-0.031-0.072-0.082-0.123-0.133-0.143c-0.102-0.072-0.195-0.01-0.276,0.184c-0.143,0.307-0.266,0.573-0.389,0.809      c-0.113,0.235-0.246,0.492-0.399,0.788c-0.154,0.287-0.317,0.584-0.491,0.891c-0.225,0.369-0.43,0.676-0.604,0.932      c-0.174,0.246-0.318,0.44-0.451,0.584c-0.133,0.154-0.256,0.256-0.348,0.328c-0.102,0.061-0.184,0.102-0.246,0.123      c0-0.041,0.01-0.082,0.02-0.123c0-0.041,0.01-0.092,0.02-0.143c0.041-0.154,0.072-0.317,0.102-0.481      c0.041-0.164,0.072-0.328,0.102-0.502c0.133-0.573,0.225-1.024,0.277-1.341c0.051-0.317,0.061-0.594,0-0.829      c-0.051-0.236-0.123-0.369-0.225-0.41c-0.215-0.143-0.461-0.061-0.727,0.225c-0.102,0.113-0.205,0.246-0.307,0.41      c-0.092,0.164-0.184,0.317-0.276,0.461v0.01c-0.061,0.123-0.092,0.256-0.113,0.42c-0.01,0.164,0.01,0.317,0.061,0.461      c0.051,0.123,0.123,0.195,0.195,0.225c0.041,0.021,0.082,0.01,0.123-0.01c0.01-0.01,0.02-0.021,0.031-0.031      c0.031-0.021,0.051-0.041,0.072-0.082c0.092-0.164,0.184-0.328,0.277-0.492c0.092-0.154,0.184-0.266,0.266-0.338      c-0.031,0.123-0.061,0.256-0.082,0.389c-0.031,0.143-0.051,0.266-0.082,0.379c-0.143,0.625-0.236,1.126-0.297,1.526      c-0.061,0.389-0.072,0.727-0.01,1.004c0.041,0.215,0.123,0.358,0.246,0.43c0.041,0.031,0.082,0.051,0.123,0.061      c0.041,0.021,0.092,0.021,0.143,0.021c0.491,0,1.188-0.748,2.079-2.253c0.082-0.154,0.154-0.297,0.236-0.42      c0.072-0.123,0.143-0.256,0.215-0.389c-0.061,0.358-0.092,0.655-0.113,0.881c-0.02,0.225,0,0.44,0.031,0.635      c0.051,0.184,0.123,0.328,0.225,0.41c0.154,0.082,0.307,0.082,0.471,0.01c0.164-0.072,0.317-0.205,0.481-0.389      c0.154-0.194,0.307-0.41,0.461-0.666c0.154-0.235,0.287-0.491,0.43-0.758c0.01-0.021,0.02-0.041,0.031-0.061      c0.061-0.123,0.092-0.266,0.102-0.44C261.366,120.248,261.345,120.095,261.294,119.962z" fill="#494853"/><path d="M266.424,119.962c-0.061-0.123-0.123-0.195-0.205-0.205c-0.02-0.01-0.041,0-0.061,0.01      c-0.061,0.01-0.102,0.061-0.154,0.154c-0.072,0.123-0.143,0.266-0.236,0.44c-0.092,0.174-0.184,0.338-0.297,0.492      c-0.102,0.154-0.205,0.287-0.307,0.41c-0.102,0.133-0.195,0.205-0.287,0.236c0.01-0.082,0.021-0.164,0.031-0.236      c0.031-0.143,0.061-0.317,0.102-0.492c0.031-0.184,0.072-0.358,0.113-0.543c0.102-0.553,0.174-0.952,0.205-1.219      c0.041-0.266,0.041-0.491-0.01-0.686c-0.02-0.072-0.041-0.133-0.072-0.205c-0.031-0.072-0.072-0.123-0.123-0.143      c-0.113-0.072-0.205-0.01-0.287,0.184c-0.143,0.307-0.266,0.573-0.379,0.809c-0.123,0.235-0.256,0.492-0.41,0.788      c-0.154,0.287-0.317,0.584-0.491,0.891c-0.225,0.369-0.42,0.676-0.594,0.932c-0.174,0.246-0.328,0.44-0.461,0.584      c-0.133,0.154-0.246,0.256-0.348,0.328c-0.102,0.061-0.184,0.102-0.246,0.123c0.01-0.041,0.01-0.082,0.02-0.123      c0-0.041,0.01-0.092,0.031-0.143c0.031-0.154,0.061-0.317,0.092-0.481c0.041-0.164,0.072-0.328,0.102-0.502      c0.133-0.573,0.225-1.024,0.277-1.341c0.061-0.317,0.061-0.594,0.01-0.829c-0.051-0.236-0.133-0.369-0.236-0.41      c-0.215-0.143-0.461-0.061-0.727,0.225c-0.102,0.113-0.205,0.246-0.307,0.41c-0.082,0.154-0.174,0.297-0.256,0.43      c-0.01,0.01-0.01,0.021-0.02,0.031c-0.01,0.01-0.01,0.031-0.021,0.041c-0.051,0.113-0.072,0.246-0.082,0.389      c-0.02,0.164,0,0.317,0.051,0.461c0.051,0.123,0.123,0.195,0.205,0.225c0.061,0.031,0.123,0,0.184-0.082      c0.01-0.01,0.02-0.031,0.031-0.041c0.092-0.164,0.184-0.328,0.287-0.492c0.092-0.154,0.174-0.266,0.256-0.338      c-0.031,0.123-0.061,0.256-0.082,0.389c-0.031,0.143-0.051,0.266-0.082,0.379c-0.133,0.625-0.236,1.126-0.297,1.526      c-0.061,0.389-0.061,0.727-0.01,1.004c0.051,0.215,0.133,0.358,0.246,0.43c0.041,0.031,0.082,0.051,0.133,0.061      c0.041,0.021,0.082,0.021,0.133,0.021c0.502,0,1.188-0.748,2.079-2.253c0.082-0.154,0.164-0.297,0.236-0.42      c0.072-0.123,0.143-0.256,0.215-0.389c-0.061,0.358-0.092,0.655-0.113,0.881c-0.01,0.225,0,0.44,0.041,0.635      c0.041,0.184,0.113,0.328,0.215,0.41c0.154,0.082,0.317,0.082,0.471,0.01c0.164-0.072,0.328-0.205,0.481-0.389      c0.154-0.194,0.317-0.41,0.471-0.666c0.143-0.235,0.287-0.491,0.42-0.758c0.01-0.021,0.02-0.041,0.031-0.061      c0.061-0.123,0.102-0.266,0.102-0.44C266.496,120.248,266.475,120.095,266.424,119.962z" fill="#494853"/><path d="M271.985,119.808c-0.041-0.051-0.072-0.072-0.113-0.072h-0.01c-0.031,0-0.061,0.01-0.092,0.041      c-0.522,0.399-0.922,0.696-1.208,0.911c-0.287,0.205-0.502,0.338-0.645,0.41c0.01-0.051,0.02-0.102,0.031-0.143      c0.01-0.041,0.021-0.072,0.031-0.102c0.123-0.399,0.215-0.788,0.307-1.147c0.082-0.369,0.092-0.707,0.031-1.024      c-0.051-0.307-0.154-0.502-0.307-0.584c-0.502-0.287-1.147-0.225-1.935,0.205c-0.307,0.154-0.614,0.358-0.942,0.614      c-0.307,0.246-0.625,0.522-0.973,0.85c-0.02,0.01-0.041,0.031-0.061,0.051c-0.072,0.072-0.123,0.184-0.154,0.348      c-0.031,0.164-0.031,0.328,0.01,0.481c0.031,0.154,0.082,0.256,0.154,0.317s0.143,0.061,0.205-0.01      c0.021-0.021,0.031-0.031,0.051-0.041c0.338-0.317,0.655-0.584,0.952-0.819c0.317-0.246,0.614-0.44,0.901-0.594      c0.317-0.174,0.604-0.287,0.85-0.317c0.256-0.031,0.481-0.021,0.676,0.051c-0.01,0.082-0.031,0.154-0.051,0.205      c-0.021,0.113-0.051,0.235-0.092,0.369c-0.031,0.133-0.072,0.256-0.113,0.379c-0.102,0.358-0.184,0.686-0.246,0.973      c-0.061,0.297-0.072,0.553-0.031,0.788c0.051,0.266,0.143,0.42,0.266,0.481c0.031,0.021,0.072,0.041,0.123,0.041      c0.072,0,0.174-0.031,0.297-0.092c0.133-0.061,0.338-0.184,0.594-0.348c0.195-0.123,0.42-0.276,0.655-0.451      c0.236-0.174,0.502-0.369,0.789-0.584c0.01,0,0.021,0,0.031-0.02c0.082-0.072,0.133-0.184,0.174-0.338      c0.031-0.164,0.031-0.317,0-0.471C272.108,120.003,272.056,119.88,271.985,119.808z" fill="#494853"/><path d="M277.811,120.166c-0.02-0.164-0.072-0.287-0.143-0.358c-0.072-0.082-0.143-0.092-0.215-0.031      c-0.522,0.399-0.922,0.696-1.208,0.911c-0.287,0.205-0.502,0.338-0.645,0.41c0.01-0.051,0.02-0.102,0.031-0.143      c0.01-0.041,0.021-0.072,0.031-0.102c0.123-0.399,0.215-0.788,0.307-1.147c0.082-0.369,0.092-0.707,0.031-1.024      c-0.051-0.307-0.154-0.502-0.307-0.584c-0.502-0.287-1.147-0.225-1.935,0.205c-0.307,0.154-0.614,0.358-0.942,0.614      c-0.297,0.236-0.614,0.502-0.942,0.819h-0.01c-0.031,0.031-0.051,0.051-0.082,0.082c-0.072,0.072-0.123,0.184-0.154,0.348      c-0.041,0.164-0.031,0.328,0.01,0.481c0.031,0.154,0.082,0.256,0.154,0.317c0.051,0.041,0.092,0.051,0.143,0.031      c0.01,0,0.021,0,0.031-0.02c0.01,0,0.02-0.01,0.031-0.021c0.358-0.328,0.696-0.614,1.004-0.86      c0.317-0.246,0.614-0.44,0.901-0.594c0.317-0.174,0.594-0.287,0.85-0.317c0.256-0.031,0.481-0.021,0.676,0.051      c-0.01,0.082-0.031,0.154-0.051,0.205c-0.02,0.113-0.051,0.235-0.092,0.369c-0.031,0.133-0.072,0.256-0.113,0.379      c-0.102,0.358-0.194,0.686-0.246,0.973c-0.061,0.297-0.072,0.553-0.031,0.788c0.051,0.266,0.133,0.42,0.256,0.481      c0.041,0.021,0.082,0.041,0.133,0.041c0.072,0,0.164-0.031,0.297-0.092c0.133-0.061,0.338-0.184,0.594-0.348      c0.195-0.123,0.41-0.276,0.655-0.451c0.246-0.184,0.522-0.379,0.809-0.604c0.092-0.072,0.143-0.184,0.174-0.338      C277.852,120.474,277.852,120.32,277.811,120.166z" fill="#494853"/></g></g><g opacity="0.5"><g><path d="M250.307,352.236c-0.061-0.072-0.123-0.113-0.205-0.113c-0.031,0-0.061,0-0.092,0.01      c-0.01,0.01-0.021,0.01-0.031,0.021c-0.01,0-0.021,0.01-0.021,0.01c-0.01,0.01-0.02,0.021-0.031,0.031      c-0.01,0-0.021,0-0.031,0.021c-0.01,0.01-0.01,0.01-0.01,0.02c-0.072,0.072-0.154,0.154-0.236,0.246      c-0.092,0.102-0.184,0.195-0.287,0.287c-0.102,0.092-0.205,0.174-0.307,0.246c-0.102,0.072-0.205,0.123-0.297,0.133      c0.02-0.051,0.02-0.092,0.031-0.133c0.031-0.092,0.072-0.184,0.102-0.297c0.031-0.102,0.072-0.215,0.113-0.317      c0.102-0.328,0.174-0.563,0.215-0.727c0.031-0.154,0.031-0.287-0.01-0.399c-0.021-0.041-0.051-0.082-0.082-0.123      c-0.031-0.041-0.072-0.072-0.123-0.092c-0.113-0.041-0.205,0-0.276,0.113c-0.143,0.184-0.277,0.338-0.389,0.481      c-0.113,0.143-0.256,0.297-0.41,0.471c-0.154,0.164-0.317,0.338-0.492,0.522c-0.225,0.225-0.42,0.41-0.594,0.553      c-0.174,0.143-0.328,0.266-0.461,0.348c-0.133,0.082-0.246,0.154-0.348,0.195c-0.102,0.041-0.184,0.061-0.246,0.072      c0.01-0.031,0.01-0.051,0.02-0.072c0.01-0.031,0.02-0.061,0.031-0.092c0.031-0.082,0.061-0.184,0.102-0.276      c0.031-0.102,0.061-0.195,0.102-0.297c0.123-0.348,0.215-0.614,0.266-0.799c0.061-0.184,0.061-0.348,0.01-0.492      c-0.051-0.133-0.133-0.215-0.235-0.246c-0.215-0.082-0.461-0.031-0.717,0.133c-0.113,0.072-0.215,0.154-0.307,0.246      c-0.102,0.102-0.195,0.195-0.287,0.276c-0.051,0.072-0.092,0.154-0.102,0.256c-0.01,0.092,0,0.184,0.051,0.266      c0.061,0.072,0.123,0.123,0.205,0.133c0.082,0.02,0.154,0,0.215-0.072c0.092-0.092,0.195-0.195,0.287-0.287      c0.092-0.092,0.184-0.164,0.266-0.205c-0.031,0.072-0.061,0.154-0.092,0.236c-0.02,0.082-0.051,0.154-0.072,0.225      c-0.143,0.369-0.246,0.666-0.307,0.901c-0.061,0.225-0.061,0.43,0,0.594c0.041,0.133,0.123,0.215,0.236,0.256      c0.041,0.021,0.092,0.031,0.133,0.041c0.041,0,0.082,0.01,0.133,0.01c0.502,0,1.188-0.451,2.079-1.341      c0.082-0.092,0.164-0.174,0.236-0.246s0.143-0.154,0.215-0.236c-0.051,0.215-0.092,0.389-0.113,0.522      c-0.01,0.143,0,0.266,0.041,0.379c0.041,0.113,0.113,0.195,0.215,0.246c0.164,0.051,0.317,0.051,0.481,0      c0.154-0.041,0.317-0.123,0.471-0.225c0.164-0.113,0.317-0.246,0.471-0.399c0.143-0.133,0.287-0.276,0.41-0.44      c0.02-0.01,0.031-0.031,0.041-0.041c0.061-0.072,0.102-0.164,0.102-0.256C250.378,352.41,250.358,352.317,250.307,352.236z" fill="#494853"/><path d="M255.867,352.154c-0.072-0.051-0.143-0.051-0.215-0.021c-0.512,0.236-0.911,0.41-1.198,0.533      c-0.287,0.123-0.502,0.205-0.655,0.246c0.01-0.031,0.021-0.061,0.031-0.082c0.01-0.021,0.02-0.041,0.041-0.061      c0.113-0.236,0.215-0.461,0.297-0.676c0.082-0.225,0.092-0.42,0.041-0.614c-0.061-0.174-0.164-0.297-0.317-0.338      c-0.502-0.174-1.147-0.133-1.935,0.123c-0.297,0.082-0.614,0.205-0.942,0.358c-0.307,0.154-0.645,0.317-1.003,0.512      c-0.01,0.01-0.021,0.01-0.031,0.021c-0.01,0-0.021,0.01-0.021,0.01c-0.01,0.01-0.02,0.021-0.031,0.031      c-0.01,0.01-0.031,0.021-0.041,0.041c-0.031,0.041-0.051,0.082-0.061,0.123c-0.031,0.102-0.031,0.195,0.01,0.287      c0.031,0.092,0.082,0.154,0.154,0.195c0.072,0.031,0.143,0.031,0.215-0.01c0.01-0.01,0.02-0.01,0.031-0.021      c0.338-0.184,0.666-0.348,0.973-0.491s0.614-0.256,0.891-0.348c0.317-0.102,0.604-0.164,0.86-0.184      c0.246-0.02,0.471-0.01,0.666,0.031c-0.01,0.041-0.031,0.082-0.051,0.123c-0.02,0.061-0.051,0.133-0.092,0.215      c-0.031,0.072-0.072,0.143-0.102,0.225c-0.113,0.205-0.195,0.399-0.256,0.573c-0.061,0.174-0.061,0.328-0.031,0.471      c0.051,0.154,0.143,0.246,0.266,0.276c0.031,0.021,0.082,0.021,0.123,0.021c0.072,0,0.174-0.01,0.307-0.051      c0.133-0.041,0.328-0.102,0.594-0.205c0.184-0.072,0.41-0.164,0.655-0.266c0.235-0.102,0.481-0.215,0.768-0.338      c0.01-0.01,0.031-0.01,0.041-0.021c0,0,0,0,0.01,0c0.082-0.051,0.133-0.113,0.164-0.205c0.031-0.092,0.031-0.184,0-0.277      C255.99,352.266,255.939,352.195,255.867,352.154z" fill="#494853"/><path d="M261.12,352.236c-0.061-0.072-0.123-0.113-0.205-0.113c-0.072-0.01-0.143,0.021-0.205,0.092      c-0.01,0-0.01,0.01-0.01,0.01c-0.072,0.072-0.143,0.154-0.236,0.256c-0.092,0.102-0.184,0.195-0.287,0.287      c-0.102,0.092-0.205,0.174-0.307,0.246c-0.102,0.072-0.205,0.123-0.297,0.133c0.02-0.051,0.031-0.092,0.031-0.133      c0.031-0.092,0.072-0.184,0.102-0.297c0.041-0.102,0.072-0.215,0.113-0.317c0.102-0.328,0.174-0.563,0.215-0.727      c0.031-0.154,0.031-0.287-0.01-0.399c-0.021-0.041-0.051-0.082-0.082-0.123c-0.031-0.041-0.072-0.072-0.123-0.092      c-0.113-0.041-0.205,0-0.276,0.113c-0.143,0.184-0.276,0.338-0.389,0.481c-0.113,0.143-0.256,0.297-0.41,0.471      c-0.154,0.164-0.317,0.338-0.492,0.522c-0.225,0.225-0.42,0.41-0.594,0.553c-0.174,0.143-0.328,0.266-0.461,0.348      c-0.133,0.082-0.246,0.154-0.348,0.195c-0.102,0.041-0.184,0.061-0.246,0.072c0.01-0.031,0.01-0.051,0.02-0.072      c0.01-0.031,0.02-0.061,0.031-0.092c0.031-0.082,0.061-0.184,0.102-0.276c0.031-0.102,0.072-0.195,0.102-0.297      c0.123-0.348,0.215-0.614,0.276-0.799c0.051-0.184,0.051-0.348,0-0.492c-0.051-0.133-0.133-0.215-0.236-0.246      c-0.215-0.082-0.451-0.031-0.717,0.133c-0.113,0.072-0.215,0.154-0.307,0.246c-0.082,0.082-0.154,0.154-0.225,0.215      c-0.02,0.031-0.041,0.041-0.061,0.061c-0.051,0.072-0.092,0.154-0.102,0.256c-0.01,0.092,0.01,0.184,0.061,0.266      c0.051,0.072,0.113,0.123,0.195,0.133c0.02,0,0.041,0.01,0.061,0.01c0.01-0.01,0.031-0.01,0.041-0.021c0,0,0,0,0.01,0      c0.031-0.021,0.072-0.031,0.102-0.061c0.102-0.092,0.195-0.195,0.287-0.287c0.092-0.092,0.184-0.164,0.266-0.205      c-0.031,0.072-0.061,0.154-0.092,0.236c-0.02,0.082-0.051,0.154-0.072,0.225c-0.143,0.369-0.246,0.666-0.307,0.901      c-0.061,0.225-0.061,0.43,0,0.594c0.041,0.133,0.123,0.215,0.236,0.256c0.051,0.021,0.092,0.031,0.133,0.041      c0.041,0,0.092,0.01,0.143,0.01c0.492,0,1.178-0.451,2.068-1.341c0.082-0.092,0.164-0.174,0.236-0.246s0.154-0.154,0.215-0.236      c-0.051,0.215-0.092,0.389-0.102,0.522c-0.021,0.143-0.01,0.266,0.031,0.379c0.041,0.113,0.113,0.195,0.225,0.246      c0.154,0.051,0.307,0.051,0.471,0c0.154-0.041,0.317-0.123,0.471-0.225c0.164-0.113,0.317-0.246,0.471-0.399      c0.133-0.123,0.266-0.266,0.379-0.41c0.02-0.01,0.051-0.031,0.072-0.061v-0.01c0.072-0.072,0.102-0.164,0.102-0.256      C261.192,352.41,261.171,352.317,261.12,352.236z" fill="#494853"/><path d="M266.291,352.317c-0.01-0.031-0.031-0.051-0.041-0.082c-0.051-0.072-0.123-0.113-0.195-0.113      c-0.031,0-0.072,0-0.102,0.01h-0.01c0,0-0.01,0-0.01,0.01c-0.031,0.02-0.061,0.041-0.082,0.072h-0.01      c-0.072,0.072-0.154,0.164-0.246,0.266c-0.092,0.102-0.184,0.195-0.287,0.287c-0.102,0.092-0.205,0.174-0.307,0.246      c-0.102,0.072-0.205,0.123-0.287,0.133c0.01-0.051,0.02-0.092,0.02-0.133c0.041-0.092,0.072-0.184,0.102-0.297      c0.041-0.102,0.072-0.215,0.113-0.317c0.102-0.328,0.174-0.563,0.215-0.727c0.041-0.154,0.031-0.287-0.01-0.399      c-0.021-0.041-0.041-0.082-0.082-0.123c-0.031-0.041-0.072-0.072-0.123-0.092c-0.113-0.041-0.205,0-0.276,0.113      c-0.143,0.184-0.276,0.338-0.389,0.481c-0.113,0.143-0.246,0.297-0.399,0.471c-0.164,0.164-0.328,0.338-0.492,0.522      c-0.225,0.225-0.43,0.41-0.604,0.553c-0.174,0.143-0.328,0.266-0.461,0.348c-0.133,0.082-0.246,0.154-0.348,0.195      c-0.092,0.041-0.174,0.061-0.246,0.072c0.01-0.031,0.021-0.051,0.021-0.072c0.01-0.031,0.02-0.061,0.031-0.092      c0.031-0.082,0.072-0.184,0.102-0.276c0.031-0.102,0.072-0.195,0.102-0.297c0.123-0.348,0.215-0.614,0.276-0.799      c0.051-0.184,0.051-0.348,0-0.492c-0.051-0.133-0.123-0.215-0.225-0.246c-0.225-0.082-0.461-0.031-0.727,0.133      c-0.113,0.072-0.215,0.154-0.307,0.246c-0.102,0.102-0.195,0.195-0.287,0.276c0,0.01-0.01,0.01-0.01,0.021      c-0.01,0-0.01,0.01-0.01,0.01c-0.041,0.061-0.072,0.133-0.082,0.225s0.01,0.184,0.061,0.266      c0.051,0.072,0.113,0.123,0.195,0.133c0.051,0.01,0.102,0.01,0.143-0.01c0.02-0.01,0.051-0.031,0.072-0.061      c0.102-0.092,0.195-0.195,0.287-0.287c0.092-0.092,0.184-0.164,0.266-0.205c-0.031,0.072-0.061,0.154-0.082,0.236      c-0.031,0.082-0.061,0.154-0.082,0.225c-0.143,0.369-0.246,0.666-0.307,0.901c-0.061,0.225-0.061,0.43,0,0.594      c0.041,0.133,0.123,0.215,0.236,0.256c0.051,0.021,0.092,0.031,0.133,0.041c0.041,0,0.092,0.01,0.143,0.01      c0.492,0,1.188-0.451,2.068-1.341c0.082-0.092,0.164-0.174,0.236-0.246c0.082-0.072,0.154-0.154,0.225-0.236      c-0.061,0.215-0.102,0.389-0.113,0.522c-0.02,0.143-0.01,0.266,0.031,0.379c0.041,0.113,0.123,0.195,0.225,0.246      c0.154,0.051,0.307,0.051,0.471,0c0.164-0.041,0.317-0.123,0.481-0.225c0.154-0.113,0.307-0.246,0.461-0.399      c0.133-0.123,0.266-0.266,0.399-0.42c0.021-0.021,0.031-0.041,0.051-0.061c0.072-0.072,0.102-0.164,0.102-0.256      C266.332,352.44,266.312,352.379,266.291,352.317z" fill="#494853"/><path d="M266.291,352.317l-0.338-0.184h-0.01c0,0-0.01,0-0.01,0.01c-0.031,0.02-0.061,0.041-0.082,0.072      c-0.031,0.031-0.061,0.061-0.072,0.113c-0.041,0.102-0.041,0.195-0.02,0.276c0.031,0.102,0.092,0.174,0.164,0.215      c0.072,0.051,0.143,0.051,0.215,0.021c0.01,0,0.02-0.01,0.031-0.01c0.184-0.092,0.369-0.174,0.563-0.266L266.291,352.317z" fill="#494853"/></g></g><circle cx="151.506" cy="270.595" fill="#7F8080" r="6.542"/><g opacity="0.2"><path d="M375.409,192.113c-0.092-0.225-0.184-0.338-0.307-0.369c-0.113-0.021-0.215,0.072-0.307,0.297     c-0.102,0.215-0.225,0.471-0.358,0.768c-0.133,0.307-0.276,0.594-0.43,0.86c-0.143,0.256-0.297,0.502-0.451,0.717     c-0.154,0.215-0.297,0.348-0.43,0.399c0.021-0.143,0.031-0.276,0.041-0.399c0.051-0.266,0.102-0.553,0.154-0.87     c0.051-0.307,0.102-0.625,0.164-0.942c0.154-0.963,0.256-1.669,0.317-2.13c0.051-0.461,0.051-0.86-0.02-1.198     c-0.031-0.113-0.061-0.236-0.113-0.358c-0.051-0.123-0.113-0.205-0.184-0.256c-0.164-0.113-0.297-0.01-0.41,0.328     c-0.215,0.532-0.399,1.003-0.573,1.413c-0.174,0.41-0.369,0.87-0.594,1.372c-0.236,0.512-0.471,1.024-0.727,1.557     c-0.338,0.655-0.625,1.198-0.881,1.628c-0.256,0.44-0.481,0.778-0.676,1.034c-0.195,0.256-0.369,0.44-0.512,0.563     c-0.154,0.113-0.276,0.184-0.369,0.215l0.031-0.215c0.01-0.072,0.021-0.164,0.041-0.256c0.051-0.266,0.102-0.543,0.154-0.829     c0.051-0.297,0.102-0.584,0.143-0.87c0.195-1.014,0.328-1.802,0.41-2.355c0.082-0.553,0.082-1.034,0.01-1.444     c-0.082-0.41-0.195-0.655-0.348-0.727c-0.317-0.236-0.676-0.102-1.065,0.399c-0.164,0.195-0.317,0.43-0.461,0.727     c-0.133,0.287-0.276,0.553-0.41,0.799c-0.082,0.215-0.133,0.461-0.154,0.758c-0.021,0.287,0.01,0.553,0.082,0.788     c0.082,0.225,0.174,0.358,0.297,0.399c0.113,0.051,0.225-0.02,0.317-0.215c0.143-0.287,0.287-0.573,0.42-0.85     c0.133-0.277,0.266-0.481,0.389-0.594c-0.041,0.215-0.092,0.44-0.123,0.686c-0.041,0.236-0.082,0.461-0.113,0.645     c-0.215,1.085-0.358,1.976-0.451,2.662c-0.092,0.686-0.092,1.27-0.01,1.751c0.072,0.389,0.184,0.645,0.358,0.768     c0.061,0.041,0.133,0.082,0.195,0.102c0.061,0.031,0.123,0.041,0.205,0.041c0.727,0,1.751-1.321,3.062-3.942     c0.123-0.266,0.236-0.512,0.348-0.727c0.102-0.215,0.215-0.451,0.317-0.686c-0.082,0.625-0.143,1.137-0.164,1.536     c-0.021,0.399-0.01,0.768,0.051,1.106c0.061,0.338,0.174,0.573,0.328,0.717c0.225,0.154,0.461,0.154,0.696,0.02     c0.236-0.133,0.471-0.358,0.707-0.686c0.225-0.328,0.461-0.707,0.686-1.157c0.225-0.451,0.451-0.922,0.666-1.423     c0.102-0.225,0.154-0.471,0.154-0.768C375.521,192.614,375.48,192.348,375.409,192.113z" fill="#010002"/></g><g opacity="0.2"><path d="M405.606,220.703c-0.082-0.215-0.184-0.338-0.297-0.358c-0.113-0.031-0.215,0.072-0.317,0.287     c-0.102,0.215-0.215,0.471-0.348,0.778c-0.133,0.297-0.276,0.584-0.43,0.85c-0.154,0.266-0.307,0.502-0.461,0.717     c-0.143,0.225-0.287,0.358-0.42,0.399c0.021-0.143,0.031-0.277,0.041-0.399c0.041-0.256,0.092-0.553,0.143-0.86     c0.061-0.317,0.113-0.635,0.164-0.942c0.154-0.963,0.256-1.679,0.318-2.14c0.061-0.451,0.051-0.85-0.01-1.188     c-0.031-0.123-0.072-0.246-0.113-0.369c-0.051-0.113-0.113-0.205-0.195-0.246c-0.154-0.123-0.297-0.02-0.41,0.328     c-0.205,0.522-0.399,0.993-0.563,1.403c-0.174,0.41-0.379,0.87-0.604,1.382c-0.225,0.502-0.471,1.024-0.727,1.546     c-0.328,0.655-0.625,1.198-0.881,1.628c-0.256,0.44-0.481,0.778-0.676,1.034c-0.195,0.256-0.369,0.44-0.512,0.563     c-0.143,0.123-0.266,0.195-0.358,0.215c0-0.072,0.01-0.143,0.021-0.215c0.01-0.072,0.031-0.154,0.041-0.256     c0.051-0.266,0.102-0.543,0.154-0.829c0.051-0.287,0.102-0.584,0.154-0.87c0.184-1.014,0.317-1.792,0.399-2.345     c0.082-0.563,0.082-1.044,0.01-1.454c-0.072-0.41-0.195-0.645-0.338-0.727c-0.328-0.236-0.686-0.102-1.075,0.399     c-0.154,0.195-0.307,0.44-0.451,0.727c-0.143,0.287-0.276,0.553-0.41,0.799c-0.092,0.215-0.143,0.471-0.164,0.758     c-0.02,0.287,0.01,0.553,0.092,0.799c0.072,0.215,0.174,0.348,0.287,0.399c0.123,0.041,0.225-0.031,0.317-0.225     c0.143-0.287,0.287-0.573,0.42-0.85c0.143-0.277,0.276-0.471,0.399-0.594c-0.051,0.215-0.092,0.451-0.133,0.686     c-0.041,0.246-0.072,0.461-0.113,0.655c-0.205,1.085-0.358,1.966-0.451,2.652c-0.092,0.696-0.092,1.28,0,1.761     c0.061,0.379,0.184,0.635,0.348,0.758c0.072,0.051,0.133,0.082,0.195,0.113c0.061,0.02,0.133,0.031,0.205,0.031     c0.737,0,1.751-1.311,3.062-3.942c0.123-0.266,0.235-0.512,0.348-0.727c0.113-0.215,0.215-0.44,0.317-0.686     c-0.082,0.625-0.133,1.137-0.164,1.536c-0.021,0.399,0,0.768,0.051,1.106c0.072,0.338,0.174,0.584,0.328,0.727     c0.236,0.143,0.461,0.143,0.696,0.02c0.246-0.133,0.471-0.369,0.707-0.696c0.236-0.317,0.461-0.707,0.696-1.157     c0.225-0.44,0.451-0.922,0.666-1.423c0.092-0.215,0.143-0.471,0.154-0.758C405.719,221.204,405.688,220.938,405.606,220.703z" fill="#010002"/></g><g opacity="0.2"><path d="M375.46,249.528c0-0.01,0-0.01,0-0.01c-0.01-0.082-0.031-0.154-0.051-0.225     c-0.092-0.215-0.184-0.338-0.307-0.358c-0.113-0.031-0.215,0.072-0.307,0.287c-0.102,0.215-0.225,0.471-0.358,0.778     c-0.133,0.297-0.276,0.584-0.43,0.85c-0.143,0.266-0.297,0.502-0.451,0.727c-0.154,0.215-0.297,0.348-0.43,0.389     c0.021-0.143,0.031-0.277,0.041-0.389c0.051-0.266,0.102-0.563,0.154-0.87c0.051-0.317,0.102-0.625,0.164-0.942     c0.154-0.963,0.256-1.679,0.317-2.14c0.051-0.451,0.051-0.85-0.02-1.188c-0.031-0.123-0.061-0.246-0.113-0.358     c-0.051-0.123-0.113-0.205-0.184-0.256c-0.164-0.123-0.297-0.01-0.41,0.328c-0.215,0.522-0.399,0.993-0.573,1.403     c-0.174,0.42-0.369,0.87-0.594,1.382c-0.236,0.502-0.471,1.024-0.727,1.557c-0.338,0.645-0.625,1.188-0.881,1.628     c-0.256,0.43-0.481,0.778-0.676,1.024c-0.195,0.256-0.369,0.44-0.512,0.563c-0.154,0.123-0.276,0.195-0.369,0.215     c0.01-0.072,0.021-0.143,0.031-0.215s0.021-0.154,0.041-0.256c0.051-0.266,0.102-0.543,0.154-0.829     c0.051-0.287,0.102-0.573,0.143-0.87c0.195-1.014,0.328-1.792,0.41-2.345c0.082-0.553,0.082-1.045,0.01-1.454     c-0.082-0.41-0.195-0.645-0.348-0.717c-0.317-0.246-0.676-0.113-1.065,0.389c-0.164,0.195-0.317,0.44-0.461,0.727     c-0.133,0.287-0.276,0.553-0.41,0.799c-0.082,0.215-0.133,0.471-0.154,0.758c-0.021,0.287,0.01,0.553,0.082,0.799     c0.082,0.215,0.174,0.348,0.297,0.399c0.113,0.051,0.225-0.031,0.317-0.225c0.143-0.287,0.287-0.563,0.42-0.84     c0.133-0.287,0.266-0.481,0.389-0.604c-0.041,0.215-0.092,0.451-0.123,0.686c-0.041,0.246-0.082,0.461-0.113,0.655     c-0.215,1.085-0.358,1.966-0.451,2.662c-0.092,0.686-0.092,1.27-0.01,1.751c0.072,0.389,0.184,0.635,0.358,0.758     c0.061,0.051,0.133,0.082,0.195,0.113c0.061,0.021,0.123,0.031,0.205,0.031c0.727,0,1.751-1.311,3.062-3.942     c0.123-0.266,0.236-0.502,0.348-0.717c0.102-0.225,0.215-0.451,0.317-0.696c-0.082,0.635-0.143,1.147-0.164,1.536     c-0.021,0.399-0.01,0.768,0.051,1.106c0.061,0.338,0.174,0.584,0.328,0.727c0.225,0.143,0.461,0.154,0.696,0.02     c0.174-0.102,0.348-0.256,0.522-0.451c0-0.01,0-0.01,0.01-0.01c0.051-0.072,0.113-0.143,0.174-0.225     c0.225-0.328,0.461-0.717,0.686-1.167c0.225-0.44,0.451-0.922,0.666-1.423c0.102-0.215,0.154-0.471,0.154-0.758     C375.521,249.897,375.501,249.702,375.46,249.528z" fill="#010002"/></g><g opacity="0.2"><path d="M345.303,220.703c-0.082-0.215-0.184-0.338-0.297-0.358c-0.113-0.031-0.215,0.072-0.317,0.287     c-0.102,0.215-0.215,0.471-0.348,0.778c-0.133,0.297-0.277,0.584-0.43,0.85c-0.154,0.266-0.307,0.502-0.461,0.717     c-0.143,0.225-0.287,0.358-0.42,0.399c0.021-0.143,0.031-0.277,0.041-0.399c0.051-0.256,0.092-0.553,0.154-0.86     c0.051-0.317,0.102-0.635,0.154-0.942c0.154-0.963,0.266-1.679,0.317-2.14c0.061-0.451,0.051-0.85-0.01-1.188     c-0.031-0.123-0.072-0.246-0.113-0.369c-0.051-0.113-0.113-0.205-0.195-0.246c-0.154-0.123-0.297-0.02-0.41,0.328     c-0.205,0.522-0.399,0.993-0.563,1.403c-0.174,0.41-0.379,0.87-0.604,1.382c-0.225,0.502-0.471,1.024-0.727,1.546     c-0.328,0.655-0.625,1.198-0.881,1.628c-0.256,0.44-0.481,0.778-0.676,1.034c-0.195,0.256-0.369,0.44-0.512,0.563     c-0.143,0.123-0.266,0.195-0.358,0.215c0.01-0.072,0.01-0.143,0.02-0.215c0.01-0.072,0.031-0.154,0.051-0.256     c0.041-0.266,0.092-0.543,0.143-0.829c0.051-0.287,0.102-0.584,0.154-0.87c0.184-1.014,0.328-1.792,0.399-2.345     c0.082-0.563,0.082-1.044,0.01-1.454c-0.072-0.41-0.195-0.645-0.338-0.727c-0.328-0.236-0.686-0.102-1.075,0.399     c-0.154,0.195-0.307,0.44-0.451,0.727c-0.143,0.287-0.276,0.553-0.41,0.799c-0.092,0.215-0.143,0.471-0.164,0.758     c-0.021,0.287,0.01,0.553,0.092,0.799c0.072,0.215,0.174,0.348,0.287,0.399c0.123,0.041,0.225-0.031,0.317-0.225     c0.143-0.287,0.287-0.573,0.42-0.85c0.143-0.277,0.276-0.471,0.399-0.594c-0.051,0.215-0.092,0.451-0.133,0.686     c-0.041,0.246-0.072,0.461-0.113,0.655c-0.205,1.085-0.358,1.966-0.451,2.652c-0.092,0.696-0.092,1.28,0,1.761     c0.061,0.379,0.184,0.635,0.348,0.758c0.072,0.051,0.133,0.082,0.195,0.113c0.061,0.02,0.133,0.031,0.205,0.031     c0.737,0,1.751-1.311,3.062-3.942c0.123-0.266,0.236-0.512,0.348-0.727c0.113-0.215,0.215-0.44,0.317-0.686     c-0.082,0.625-0.133,1.137-0.164,1.536c-0.02,0.399,0,0.768,0.051,1.106c0.072,0.338,0.174,0.584,0.328,0.727     c0.236,0.143,0.461,0.143,0.696,0.02c0.246-0.133,0.481-0.369,0.707-0.696c0.236-0.317,0.461-0.707,0.696-1.157     c0.225-0.44,0.451-0.922,0.666-1.423c0.092-0.215,0.143-0.471,0.154-0.758C345.416,221.204,345.385,220.938,345.303,220.703z" fill="#010002"/></g></g></g><g/><g/><g/><g/><g/><g/></svg>