<?xml version="1.0" ?><!DOCTYPE svg  PUBLIC '-//W3C//DTD SVG 1.1//EN'  'http://www.w3.org/Graphics/SVG/1.1/DTD/svg11.dtd'><svg enable-background="new 0 0 512 512" height="512px" id="Capa_1" version="1.1" viewBox="0 0 512 512" width="512px" xml:space="preserve" xmlns="http://www.w3.org/2000/svg" xmlns:xlink="http://www.w3.org/1999/xlink"><g><path d="M512,256v0.092c-0.041,120.136-82.842,220.928-194.478,248.463c-2.099,0.512-4.198,1.004-6.318,1.464   c-1.966,0.43-3.932,0.84-5.919,1.229c-5.284,1.034-10.639,1.915-16.046,2.611c-4.905,0.635-9.851,1.137-14.848,1.485   C268.319,511.785,262.185,512,256,512C114.616,512,0,397.384,0,256S114.616,0,256,0c124.058,0,227.512,88.248,250.993,205.404   c1.669,8.294,2.929,16.732,3.768,25.293c0.184,1.864,0.348,3.748,0.492,5.622c0.092,1.259,0.174,2.498,0.256,3.758   c0,0.01,0,0.01,0,0.01c0.154,2.437,0.266,4.884,0.348,7.332v0.072C511.949,250.317,512,253.153,512,256z" fill="#CF9181"/><path d="M512,256v0.092c-0.041,120.136-82.842,220.928-194.478,248.463   c-2.099,0.512-4.198,1.004-6.318,1.464c-1.966,0.43-3.932,0.84-5.919,1.229c-5.284,1.034-10.639,1.915-16.046,2.611   c-4.905,0.635-9.851,1.137-14.848,1.485L63.549,348.365l380.948-190.3l62.495,47.34c1.669,8.294,2.929,16.732,3.768,25.293   c0.184,1.864,0.348,3.748,0.492,5.622c0.092,1.259,0.174,2.498,0.256,3.758c0,0.01,0,0.01,0,0.01   c0.154,2.437,0.266,4.884,0.348,7.332v0.072C511.949,250.317,512,253.153,512,256z" fill="#1E1E1E" opacity="0.1"/><g><path d="M452.669,173.453c-0.077-0.539-0.154-1.064-0.244-1.565c-0.013-0.026-0.013-0.051-0.013-0.077    c-0.103-0.513-0.205-1.013-0.333-1.488c-0.103-0.475-0.231-0.923-0.359-1.36c-0.013-0.026-0.013-0.051-0.026-0.077    c-0.282-0.923-0.616-1.783-0.975-2.591c-0.18-0.398-0.359-0.782-0.551-1.167c-0.398-0.744-0.808-1.449-1.257-2.09    c-0.192-0.269-0.385-0.539-0.577-0.795c-0.077-0.103-0.154-0.192-0.218-0.282c-0.154-0.18-0.295-0.359-0.462-0.539    c-0.077-0.115-0.18-0.231-0.282-0.333c-0.18-0.205-0.359-0.398-0.539-0.577c-1.026-1.064-2.116-1.924-3.206-2.616    c-0.244-0.167-0.474-0.308-0.718-0.449c-0.257-0.154-0.513-0.295-0.77-0.436c-0.256-0.141-0.513-0.269-0.769-0.385    c-0.218-0.115-0.436-0.218-0.654-0.308c-3.219-1.411-5.81-1.565-5.81-1.565s-9.747-1.141-27.253-2.591    c-30.498-2.526-84.529-5.976-151.654-5.925c-30.664-0.026-58.61,0.68-82.81,1.706c0.321-1.103-0.359-2.334-0.359-2.334    l-35.012,2.603l0.333,1.539c-12.107,0.744-22.649,1.513-31.408,2.219c-19.019,1.539-29.651,2.783-29.651,2.783    s-15.428,0.936-17.762,18.699c-2.334,17.775-12.62,89.3-3.27,159.426c0,0,0.423,4.219,3.501,9.336c0.475,0.782,1,1.59,1.603,2.398    c0.141,0.192,0.295,0.385,0.449,0.59c2.014,2.591,4.758,5.245,8.477,7.592c0.269,0.18,0.551,0.346,0.834,0.513    c0.898,0.539,1.86,1.064,2.886,1.565c0.359,0.18,0.731,0.346,1.116,0.526c0.821,0.372,1.68,0.731,2.578,1.077    c0.423,0.154,0.846,0.308,1.282,0.462c3.206,1.116,6.836,2.026,10.991,2.616c0.449,0.064,0.911,0.128,1.372,0.179    c0.744,0.103,1.526,0.18,2.308,0.257c9.914,0.923,30.305,2.347,56.878,3.604c0.103,0.013,0.218,0.013,0.333,0.026    c29.484,1.385,66.535,2.603,105.331,2.77c38.821-0.167,75.885-1.385,105.382-2.783c0.103,0,0.192-0.013,0.295-0.013    c26.573-1.257,46.952-2.68,56.866-3.604c35.063-3.27,37.397-27.112,37.397-27.112    C465.289,262.752,455.004,191.228,452.669,173.453z" fill="#303C52"/><g><path d="M138.411,150.911l-0.589-2.693l35.008-2.609c0,0,1.01,1.851,0,3.03" fill="#343D48"/><path d="M407.654,152.164c-2.026,10.337-10.324,38.731-40.45,116.668c0,0-11.683,40.668-43.002,41.604     c-20.571,0.616-40.745,1.629-66.984,1.475c-26.252,0.154-46.413-0.859-66.984-1.475c-31.318-0.936-43.015-41.604-43.015-41.604     c-30.292-78.424-38.513-106.677-40.475-116.86c30.869-2.501,83.849-5.784,149.256-5.733     C323.125,146.188,377.157,149.637,407.654,152.164z" fill="#404C66"/><path d="M455.94,332.879c0,0-2.334,23.841-37.397,27.112c-9.914,0.923-30.292,2.347-56.866,3.604     c-0.103,0-0.192,0.013-0.295,0.013c-29.497,1.398-66.561,2.616-105.382,2.783c-38.795-0.167-75.846-1.385-105.331-2.77     c-0.115-0.013-0.231-0.013-0.333-0.026c-26.573-1.257-46.965-2.68-56.878-3.604c-35.063-3.27-37.397-27.112-37.397-27.112     c-9.349-70.126,0.936-141.651,3.27-159.426c2.334-17.762,17.762-18.699,17.762-18.699s10.632-1.244,29.651-2.783     c1.962,10.183,10.183,38.436,40.475,116.86c0,0,11.696,40.668,43.015,41.604c20.571,0.616,40.732,1.629,66.984,1.475     c26.24,0.154,46.413-0.859,66.984-1.475c31.318-0.936,43.002-41.604,43.002-41.604c10.632-27.509,18.545-48.85,24.419-65.394     c1.5,0.577,3.129,0.898,4.848,0.898c7.451,0,13.492-6.04,13.492-13.492c0-6.105-4.053-11.26-9.606-12.927     c4.412-13.569,6.425-21.315,7.297-25.752c17.506,1.449,27.253,2.591,27.253,2.591s15.428,0.936,17.762,18.699     C455.004,191.229,465.289,262.753,455.94,332.879z" fill="#2E384E"/><path d="M386.621,194.845c-0.026,0.09-0.038,0.128-0.038,0.128c-5.989,17.121-14.492,40.27-26.573,71.55     l-0.103,0.269l-0.09,0.269c-0.103,0.346-10.824,36.179-37.038,36.961c-4.745,0.141-9.478,0.308-14.261,0.475     c-14.479,0.5-29.459,1.013-47.17,1.013c-1.359,0-2.745,0-4.142-0.013h-1.18c-0.013,0-0.013,0-0.026,0     c-1.398,0.013-2.783,0.013-4.142,0.013c-17.711,0-32.691-0.513-47.17-1.013c-4.784-0.167-9.516-0.333-14.261-0.475     c-26.214-0.782-36.936-36.615-37.038-36.961l-0.09-0.269l-0.103-0.269c-12.081-31.28-20.584-54.429-26.573-71.55     c0,0-0.013-0.039-0.039-0.128c-0.5-1.808-5.81-23.098,19.699-29.805c22.11-5.822,73.204-6.489,109.717-6.271h1.206     c36.512-0.218,87.607,0.449,109.717,6.271C392.431,171.748,387.121,193.037,386.621,194.845z" fill="#0A1220"/><path d="M378.844,297.888c0,0-9.715-45.532,63.252-88.702c0,0,24.457,4.417-1.283,39.676     C440.813,248.862,397.683,309.481,378.844,297.888z" fill="#303C52" opacity="0.9"/><path d="M71.953,219.218c0,0,23.881-35.196,50.18,0c0,0,12.585,30.124-1.933,53.31     c0,0-12.818,24.635-36.13,28.258c0,0-18.012,3.602-21.877,1.13S71.953,219.218,71.953,219.218z" fill="#303C52" opacity="0.9"/><circle cx="96.731" cy="234.703" fill="#293346" r="24.778"/><path d="M120.223,234.705c0,2.706-0.462,5.297-1.295,7.708c-2.36,6.772-7.721,12.132-14.492,14.479     c-2.411,0.846-5.002,1.308-7.708,1.308c-2.706,0-5.297-0.462-7.708-1.308c-6.772-2.347-12.132-7.708-14.492-14.479     c-0.834-2.411-1.295-5.002-1.295-7.708c0-2.706,0.462-5.297,1.295-7.708c2.36-6.771,7.721-12.132,14.492-14.479     c2.411-0.846,5.002-1.308,7.708-1.308c2.706,0,5.297,0.462,7.708,1.308c6.771,2.347,12.132,7.708,14.492,14.479     C119.761,229.408,120.223,231.999,120.223,234.705z" fill="#212B39"/><path d="M337.131,284.152c-0.052,2.125-1.82,3.874-3.945,3.905c-49.953,0.728-99.905,0.728-149.858,0     c-2.124-0.031-3.892-1.781-3.945-3.905c-0.921-37.641-0.921-75.283,0-112.924c0.053-2.125,1.82-3.874,3.945-3.905     c49.953-0.727,99.905-0.727,149.858,0c2.125,0.031,3.893,1.78,3.945,3.905C338.052,208.87,338.052,246.511,337.131,284.152z" fill="#242C40"/><g><path d="M324.411,275.714c0,1.1-0.9,2-2,2H193.169c-1.1,0-2-0.9-2-2v-96.516c0-1.1,0.9-2,2-2h129.242      c1.1,0,2,0.9,2,2V275.714z" fill="#0C080C"/></g><path d="M409.963,190.844c0,7.451-6.041,13.492-13.492,13.492c-1.719,0-3.347-0.321-4.848-0.898     c3.642-10.234,6.502-18.634,8.734-25.521C405.91,179.584,409.963,184.739,409.963,190.844z" fill="#1F2739"/><path d="M396.471,203.053c-1.09,0-2.16-0.142-3.2-0.423c3.067-8.646,5.72-16.391,7.897-23.062     c4.479,1.875,7.512,6.346,7.512,11.276C408.68,197.576,403.203,203.053,396.471,203.053z" fill="#2C4A93"/><g><g><circle cx="101.205" cy="306.333" fill="#1A2333" r="1.933"/><circle cx="101.205" cy="334.536" fill="#1A2333" r="1.933"/><circle cx="136.084" cy="334.536" fill="#1A2333" r="1.933"/><circle cx="136.084" cy="306.333" fill="#1A2333" r="1.933"/><circle cx="129.108" cy="306.333" fill="#1A2333" r="1.933"/><circle cx="122.132" cy="306.333" fill="#1A2333" r="1.933"/><circle cx="115.157" cy="306.333" fill="#1A2333" r="1.933"/><circle cx="108.181" cy="306.333" fill="#1A2333" r="1.933"/><circle cx="108.181" cy="313.384" fill="#1A2333" r="1.933"/><circle cx="108.181" cy="320.435" fill="#1A2333" r="1.933"/><circle cx="108.181" cy="327.485" fill="#1A2333" r="1.933"/><circle cx="115.157" cy="327.485" fill="#1A2333" r="1.933"/><circle cx="122.132" cy="327.485" fill="#1A2333" r="1.933"/><circle cx="129.108" cy="327.485" fill="#1A2333" r="1.933"/><circle cx="129.108" cy="320.435" fill="#1A2333" r="1.933"/><circle cx="129.108" cy="313.384" fill="#1A2333" r="1.933"/><circle cx="122.132" cy="313.384" fill="#1A2333" r="1.933"/><circle cx="115.157" cy="313.384" fill="#1A2333" r="1.933"/><circle cx="115.157" cy="320.435" fill="#1A2333" r="1.933"/><circle cx="122.132" cy="320.435" fill="#1A2333" r="1.933"/><circle cx="108.181" cy="334.536" fill="#1A2333" r="1.933"/><circle cx="115.157" cy="334.536" fill="#1A2333" r="1.933"/><circle cx="122.132" cy="334.536" fill="#1A2333" r="1.933"/><circle cx="129.108" cy="334.536" fill="#1A2333" r="1.933"/><circle cx="136.084" cy="327.485" fill="#1A2333" r="1.933"/><circle cx="136.084" cy="320.435" fill="#1A2333" r="1.933"/><circle cx="136.084" cy="313.384" fill="#1A2333" r="1.933"/><circle cx="101.205" cy="313.384" fill="#1A2333" r="1.933"/><circle cx="101.205" cy="320.435" fill="#1A2333" r="1.933"/><circle cx="101.205" cy="327.485" fill="#1A2333" r="1.933"/><g><circle cx="94.615" cy="327.485" fill="#2B303C" r="1.933"/></g><g><circle cx="94.615" cy="320.435" fill="#2B303C" r="1.933"/></g><g><circle cx="94.615" cy="313.384" fill="#2B303C" r="1.933"/></g><g><circle cx="143.113" cy="313.384" fill="#2B303C" r="1.933"/></g><g><circle cx="143.113" cy="320.435" fill="#2B303C" r="1.933"/></g><g><circle cx="143.113" cy="327.485" fill="#2B303C" r="1.933"/></g></g></g><path d="M94.907,235.513l-7.554,7.554c-0.616-0.41-1.334-0.654-2.129-0.654H74.528     c-0.834-2.411-1.295-5.002-1.295-7.708c0-2.706,0.462-5.297,1.295-7.708h10.221c0.154,0.026,0.308,0.039,0.475,0.039     c0.167,0,0.333-0.013,0.487-0.039c0.192-0.026,0.372-0.064,0.551-0.128L94.907,235.513z" fill="#293346"/><path d="M96.728,237.334l7.836,7.836c-0.064,0.205-0.103,0.423-0.128,0.654c-0.013,0.128-0.026,0.256-0.026,0.385     c0,0.154,0.013,0.295,0.026,0.449v10.234c-2.411,0.846-5.002,1.308-7.708,1.308c-2.706,0-5.297-0.462-7.708-1.308v-10.683     c0-0.359-0.051-0.705-0.141-1.026L96.728,237.334z" fill="#293346"/><path d="M96.728,233.704l-8.349-8.349c0.41-0.603,0.641-1.334,0.641-2.116v-10.722     c2.411-0.846,5.002-1.308,7.708-1.308c2.706,0,5.297,0.462,7.708,1.308v10.337c-0.013,0.128-0.026,0.257-0.026,0.385     c0,0.154,0.013,0.295,0.026,0.449c0.077,0.616,0.295,1.193,0.628,1.68L96.728,233.704z" fill="#293346"/><path d="M120.223,234.705c0,2.706-0.462,5.297-1.295,7.708h-10.722c-0.782,0-1.513,0.231-2.116,0.654     l-7.554-7.554l8.644-8.644c0.18,0.064,0.359,0.103,0.551,0.128c0.154,0.026,0.308,0.039,0.475,0.039     c0.167,0,0.333-0.013,0.487-0.039h10.234C119.761,229.408,120.223,231.999,120.223,234.705z" fill="#293346"/><g><g><path d="M98.536,235.513l7.554,7.554c-0.731,0.475-1.282,1.218-1.526,2.103l-7.836-7.836l-7.849,7.849       c-0.244-0.885-0.795-1.629-1.526-2.116l7.554-7.554l-8.644-8.644c0.872-0.231,1.616-0.782,2.116-1.513l8.349,8.349l8.336-8.336       c0.5,0.731,1.244,1.27,2.116,1.5L98.536,235.513z" fill="#212B39"/></g></g><path d="M399.592,261.557c-7.001,0-12.696-5.695-12.696-12.696c0-7.001,5.695-12.697,12.696-12.697     c7.001,0,12.697,5.695,12.697,12.697C412.289,255.863,406.593,261.557,399.592,261.557z" fill="#1F2739"/><circle cx="399.592" cy="248.862" fill="#293346" r="11.414"/><path d="M429.399,237.907c-7.001,0-12.697-5.695-12.697-12.696c0-7.001,5.696-12.697,12.697-12.697     c7.001,0,12.697,5.695,12.697,12.697C442.096,232.212,436.4,237.907,429.399,237.907z" fill="#1F2739"/><circle cx="429.399" cy="225.211" fill="#293346" r="11.414"/><g><g><path d="M392.751,230.009c-0.788-0.922-1.13-2.122-0.966-3.38c0.162-1.234,0.794-2.376,1.782-3.219       l25.027-21.358c2.056-1.757,5.037-1.653,6.644,0.23l-0.974,0.833c-1.15-1.345-3.319-1.385-4.838-0.087L394.4,224.385       c-0.745,0.636-1.221,1.492-1.341,2.41c-0.118,0.894,0.12,1.739,0.668,2.381L392.751,230.009z" fill="#9EA9BA"/></g></g><g><path d="M430.992,209.164c-0.027,0.023-0.067,0.027-0.119,0.013c-0.13-0.004-0.349-0.153-0.656-0.448      c-0.27-0.266-0.54-0.593-0.811-0.977c-0.27-0.384-0.561-0.824-0.874-1.319c-0.107-0.171-0.22-0.347-0.336-0.525      c-0.117-0.179-0.226-0.342-0.327-0.491c-0.046-0.077-0.109-0.17-0.189-0.277c-0.188,0.014-0.339,0.109-0.456,0.281      c-0.115,0.173-0.173,0.45-0.172,0.831c-0.009,0.332,0.019,0.726,0.085,1.184c0.065,0.457,0.167,0.979,0.304,1.566      c0.031,0.122-0.007,0.162-0.115,0.122c-0.108-0.04-0.251-0.144-0.43-0.313c-0.183-0.166-0.352-0.359-0.507-0.577      c-0.155-0.22-0.248-0.389-0.278-0.51c-0.145-0.611-0.254-1.155-0.328-1.635c-0.075-0.479-0.102-0.889-0.081-1.231      c0.022-0.93,0.336-1.347,0.941-1.251c0.176,0.025,0.441,0.209,0.795,0.55c0.368,0.359,0.721,0.784,1.056,1.274      c0.335,0.49,0.678,1.01,1.031,1.559c0.021,0.041,0.05,0.088,0.088,0.143c0.038,0.057,0.082,0.121,0.133,0.196      c0.016-0.16,0-0.441-0.047-0.842c-0.047-0.4-0.127-0.977-0.24-1.732c-0.016-0.104,0.038-0.128,0.162-0.073      c0.124,0.055,0.281,0.176,0.471,0.366c0.179,0.169,0.342,0.358,0.49,0.57c0.147,0.21,0.232,0.379,0.255,0.507      c0.055,0.422,0.105,0.806,0.147,1.152c0.043,0.345,0.072,0.643,0.087,0.894c0.017,0.339,0.018,0.58,0.005,0.724      C431.062,209.038,431.034,209.128,430.992,209.164z" fill="#9EA9BA"/></g><g><path d="M399.441,234.897c-0.027,0.023-0.067,0.027-0.119,0.013c-0.13-0.004-0.349-0.153-0.656-0.448      c-0.27-0.266-0.54-0.593-0.811-0.977c-0.27-0.384-0.561-0.824-0.874-1.319c-0.107-0.171-0.22-0.347-0.336-0.525      c-0.117-0.179-0.226-0.342-0.327-0.491c-0.046-0.077-0.109-0.17-0.189-0.277c-0.188,0.014-0.339,0.109-0.456,0.281      c-0.115,0.173-0.173,0.45-0.172,0.832c-0.009,0.332,0.019,0.726,0.085,1.184c0.065,0.457,0.167,0.979,0.304,1.566      c0.031,0.122-0.007,0.162-0.115,0.122s-0.251-0.144-0.43-0.313c-0.183-0.166-0.352-0.359-0.507-0.577      c-0.155-0.22-0.248-0.389-0.278-0.51c-0.145-0.611-0.254-1.155-0.328-1.635c-0.075-0.479-0.102-0.889-0.081-1.231      c0.022-0.93,0.336-1.347,0.941-1.251c0.176,0.025,0.441,0.209,0.795,0.55c0.368,0.359,0.721,0.784,1.056,1.274      c0.335,0.49,0.678,1.01,1.031,1.559c0.021,0.041,0.05,0.088,0.088,0.143c0.038,0.057,0.082,0.121,0.133,0.196      c0.016-0.16,0-0.441-0.047-0.842c-0.047-0.4-0.127-0.977-0.24-1.732c-0.016-0.104,0.038-0.128,0.162-0.073      c0.124,0.055,0.281,0.176,0.471,0.366c0.179,0.169,0.342,0.358,0.49,0.57c0.147,0.21,0.232,0.379,0.255,0.507      c0.055,0.422,0.105,0.806,0.147,1.152c0.043,0.345,0.072,0.643,0.087,0.894c0.017,0.339,0.018,0.58,0.005,0.724      C399.511,234.77,399.483,234.861,399.441,234.897z" fill="#9EA9BA"/></g><g><g><path d="M347.678,189.765c-0.071,0-0.139-0.025-0.2-0.072c-0.194-0.094-0.333-0.366-0.415-0.818       c-0.063-0.403-0.046-0.855,0.045-1.353c0.093-0.498,0.227-1.056,0.401-1.673c0.061-0.213,0.12-0.433,0.177-0.658       c0.056-0.226,0.105-0.433,0.147-0.624c0.031-0.094,0.056-0.213,0.076-0.355c-0.307-0.119-0.664-0.148-1.07-0.09       c-0.405,0.059-0.859,0.243-1.361,0.552c-0.452,0.262-0.929,0.6-1.432,1.015c-0.502,0.414-1.036,0.907-1.601,1.476       c-0.113,0.12-0.225,0.126-0.338,0.019c-0.113-0.107-0.195-0.291-0.247-0.552c-0.061-0.261-0.066-0.535-0.015-0.818       c0.051-0.285,0.133-0.487,0.247-0.605c0.584-0.594,1.136-1.11,1.654-1.549c0.517-0.439,1.017-0.789,1.5-1.05       c1.261-0.736,2.292-0.855,3.092-0.356c0.237,0.142,0.401,0.475,0.493,0.997c0.091,0.546,0.071,1.134-0.061,1.763       c-0.134,0.629-0.293,1.288-0.477,1.976c-0.021,0.048-0.039,0.106-0.054,0.177c-0.016,0.072-0.034,0.155-0.054,0.251       c0.235-0.119,0.581-0.356,1.038-0.713c0.456-0.356,1.095-0.878,1.916-1.566c0.113-0.096,0.228-0.077,0.346,0.054       c0.118,0.13,0.198,0.338,0.239,0.623c0.051,0.261,0.051,0.527,0,0.801c-0.051,0.272-0.144,0.468-0.277,0.587       c-0.472,0.38-0.903,0.724-1.294,1.033c-0.389,0.309-0.738,0.569-1.046,0.782c-0.421,0.285-0.736,0.481-0.947,0.588       C347.952,189.711,347.791,189.765,347.678,189.765z" fill="#9CA0A6"/><path d="M352.571,192.149c-0.083,0-0.157-0.012-0.223-0.035c-0.068-0.025-0.137-0.061-0.208-0.107       c-0.184-0.119-0.313-0.368-0.384-0.747c-0.093-0.475-0.09-1.05,0.008-1.727c0.098-0.676,0.259-1.549,0.485-2.618       c0.041-0.188,0.081-0.403,0.123-0.64c0.041-0.236,0.088-0.462,0.139-0.676c-0.134,0.119-0.274,0.314-0.423,0.588       c-0.149,0.272-0.301,0.552-0.455,0.836c-0.103,0.191-0.218,0.262-0.346,0.214s-0.233-0.178-0.316-0.393       c-0.081-0.236-0.113-0.498-0.093-0.782c0.021-0.285,0.078-0.535,0.17-0.747c0.143-0.238,0.292-0.5,0.446-0.784       c0.154-0.285,0.318-0.521,0.492-0.713c0.421-0.498,0.805-0.629,1.155-0.391c0.164,0.071,0.287,0.309,0.369,0.713       c0.081,0.403,0.079,0.878-0.009,1.424c-0.086,0.546-0.233,1.317-0.438,2.313c-0.051,0.285-0.105,0.569-0.162,0.855       c-0.056,0.284-0.11,0.558-0.162,0.818c-0.02,0.096-0.036,0.178-0.046,0.249c-0.01,0.071-0.02,0.142-0.03,0.214       c0.103-0.025,0.233-0.096,0.392-0.214c0.159-0.119,0.343-0.303,0.554-0.552c0.21-0.249,0.455-0.587,0.731-1.014       s0.595-0.962,0.954-1.602c0.277-0.521,0.539-1.033,0.785-1.531c0.245-0.498,0.461-0.949,0.646-1.353       c0.184-0.403,0.389-0.866,0.615-1.388c0.124-0.333,0.272-0.439,0.447-0.32c0.081,0.048,0.148,0.13,0.199,0.249       c0.051,0.119,0.093,0.238,0.124,0.355c0.071,0.333,0.076,0.724,0.015,1.175c-0.061,0.452-0.174,1.152-0.338,2.1       c-0.061,0.309-0.121,0.619-0.178,0.926c-0.056,0.309-0.11,0.594-0.162,0.855c-0.01,0.119-0.025,0.249-0.046,0.391       c0.144-0.046,0.298-0.177,0.462-0.391c0.164-0.213,0.328-0.451,0.492-0.711c0.164-0.261,0.318-0.54,0.462-0.837       c0.144-0.297,0.272-0.552,0.384-0.765c0.103-0.214,0.215-0.309,0.339-0.285c0.123,0.025,0.23,0.142,0.323,0.356       c0.081,0.238,0.12,0.498,0.115,0.784c-0.006,0.284-0.06,0.533-0.162,0.747c-0.237,0.498-0.477,0.966-0.724,1.405       c-0.245,0.44-0.495,0.82-0.746,1.14c-0.252,0.32-0.505,0.546-0.761,0.676c-0.257,0.13-0.508,0.125-0.754-0.019       c-0.164-0.142-0.283-0.378-0.354-0.711c-0.061-0.332-0.079-0.694-0.054-1.086c0.026-0.391,0.085-0.895,0.177-1.512       c-0.113,0.238-0.228,0.462-0.346,0.676c-0.118,0.213-0.244,0.451-0.377,0.711C354.464,190.855,353.361,192.149,352.571,192.149       z" fill="#9CA0A6"/><path d="M361.574,189.052c-0.051,0-0.091-0.012-0.123-0.036c-0.164-0.094-0.279-0.242-0.346-0.445       c-0.068-0.201-0.111-0.361-0.132-0.481c-0.083-0.521-0.059-1.062,0.069-1.619c0.129-0.558,0.291-1.144,0.485-1.761       c0.063-0.19,0.119-0.393,0.17-0.605c0.051-0.214,0.101-0.416,0.153-0.605c0.011-0.023,0.026-0.071,0.046-0.142       c-0.061,0.048-0.135,0.119-0.223,0.213c-0.088,0.096-0.187,0.238-0.299,0.427c-0.185,0.262-0.381,0.6-0.585,1.015       c-0.205,0.414-0.416,0.849-0.631,1.299c-0.051,0.119-0.105,0.23-0.162,0.338c-0.056,0.107-0.11,0.22-0.162,0.339       c-0.093,0.19-0.203,0.278-0.331,0.267c-0.129-0.012-0.234-0.136-0.316-0.374c-0.093-0.214-0.134-0.468-0.124-0.766       c0.011-0.296,0.063-0.539,0.154-0.729c0.051-0.119,0.105-0.232,0.162-0.339s0.11-0.219,0.162-0.338       c0.247-0.521,0.49-1.015,0.731-1.478c0.24-0.464,0.477-0.86,0.708-1.192c0.232-0.333,0.462-0.577,0.693-0.73       c0.23-0.155,0.455-0.161,0.67-0.019c0.174,0.12,0.297,0.285,0.369,0.5c0.071,0.213,0.118,0.403,0.138,0.569       c0.093,0.546,0.071,1.104-0.061,1.673c-0.134,0.569-0.303,1.198-0.507,1.886c-0.021,0.048-0.044,0.125-0.07,0.232       c-0.025,0.107-0.054,0.209-0.084,0.303c0.154-0.142,0.351-0.314,0.592-0.516c0.24-0.201,0.541-0.469,0.9-0.801       c0.133-0.096,0.255-0.077,0.369,0.054c0.113,0.13,0.189,0.338,0.23,0.623c0.051,0.261,0.049,0.527-0.008,0.801       c-0.056,0.272-0.142,0.468-0.254,0.587c-0.328,0.262-0.626,0.498-0.893,0.713c-0.267,0.213-0.492,0.403-0.676,0.569       c-0.103,0.094-0.193,0.172-0.269,0.232c-0.078,0.059-0.147,0.112-0.208,0.159c-0.083,0.048-0.147,0.09-0.193,0.125       C361.674,189.034,361.625,189.052,361.574,189.052z" fill="#9CA0A6"/><path d="M364.99,192.149c-0.083,0-0.157-0.012-0.223-0.035c-0.068-0.025-0.137-0.061-0.208-0.107       c-0.184-0.119-0.313-0.368-0.384-0.747c-0.093-0.475-0.09-1.05,0.008-1.727c0.098-0.676,0.259-1.549,0.485-2.618       c0.041-0.188,0.081-0.403,0.123-0.64c0.041-0.236,0.088-0.462,0.139-0.676c-0.134,0.119-0.274,0.314-0.423,0.588       c-0.149,0.272-0.301,0.552-0.455,0.836c-0.103,0.191-0.218,0.262-0.346,0.214s-0.233-0.178-0.316-0.393       c-0.081-0.236-0.113-0.498-0.093-0.782c0.021-0.285,0.078-0.535,0.17-0.747c0.143-0.238,0.292-0.5,0.446-0.784       c0.154-0.285,0.318-0.521,0.492-0.713c0.421-0.498,0.805-0.629,1.155-0.391c0.164,0.071,0.287,0.309,0.369,0.713       c0.081,0.403,0.079,0.878-0.009,1.424c-0.086,0.546-0.233,1.317-0.438,2.313c-0.051,0.285-0.105,0.569-0.162,0.855       c-0.056,0.284-0.11,0.558-0.162,0.818c-0.02,0.096-0.036,0.178-0.046,0.249c-0.01,0.071-0.02,0.142-0.03,0.214       c0.103-0.025,0.233-0.096,0.392-0.214c0.159-0.119,0.343-0.303,0.554-0.552c0.21-0.249,0.455-0.587,0.731-1.014       c0.277-0.427,0.595-0.962,0.954-1.602c0.277-0.521,0.539-1.033,0.785-1.531c0.245-0.498,0.461-0.949,0.646-1.353       c0.184-0.403,0.389-0.866,0.615-1.388c0.124-0.333,0.272-0.439,0.447-0.32c0.081,0.048,0.148,0.13,0.199,0.249       c0.051,0.119,0.093,0.238,0.124,0.355c0.071,0.333,0.076,0.724,0.015,1.175c-0.061,0.452-0.174,1.152-0.338,2.1       c-0.061,0.309-0.121,0.619-0.178,0.926c-0.056,0.309-0.11,0.594-0.162,0.855c-0.01,0.119-0.025,0.249-0.046,0.391       c0.144-0.046,0.298-0.177,0.462-0.391c0.164-0.213,0.328-0.451,0.492-0.711c0.164-0.261,0.318-0.54,0.462-0.837       c0.144-0.297,0.272-0.552,0.384-0.765c0.103-0.214,0.215-0.309,0.339-0.285c0.123,0.025,0.23,0.142,0.323,0.356       c0.081,0.238,0.12,0.498,0.115,0.784c-0.006,0.284-0.06,0.533-0.162,0.747c-0.237,0.498-0.477,0.966-0.724,1.405       c-0.245,0.44-0.495,0.82-0.746,1.14c-0.252,0.32-0.505,0.546-0.761,0.676s-0.508,0.125-0.754-0.019       c-0.164-0.142-0.283-0.378-0.354-0.711c-0.061-0.332-0.079-0.694-0.054-1.086c0.026-0.391,0.085-0.895,0.177-1.512       c-0.113,0.238-0.228,0.462-0.346,0.676c-0.118,0.213-0.244,0.451-0.377,0.711C366.883,190.855,365.78,192.149,364.99,192.149z" fill="#9CA0A6"/></g></g><g><g><path d="M345.297,195.824c-0.026,0-0.05-0.011-0.072-0.031c-0.07-0.041-0.121-0.158-0.15-0.354       c-0.023-0.174-0.017-0.369,0.016-0.585c0.034-0.215,0.082-0.457,0.145-0.723c0.022-0.092,0.043-0.187,0.064-0.284       c0.02-0.098,0.038-0.187,0.053-0.27c0.011-0.041,0.02-0.092,0.028-0.153c-0.111-0.051-0.24-0.064-0.387-0.039       c-0.146,0.026-0.311,0.105-0.492,0.239c-0.164,0.113-0.336,0.259-0.518,0.439c-0.182,0.179-0.375,0.392-0.579,0.638       c-0.041,0.052-0.082,0.054-0.122,0.008s-0.071-0.126-0.089-0.239c-0.022-0.113-0.024-0.231-0.005-0.354       c0.019-0.123,0.048-0.21,0.089-0.262c0.211-0.257,0.411-0.48,0.598-0.669c0.187-0.19,0.368-0.341,0.543-0.454       c0.456-0.318,0.829-0.369,1.119-0.154c0.086,0.061,0.145,0.205,0.178,0.431c0.033,0.236,0.026,0.49-0.022,0.762       c-0.048,0.272-0.106,0.557-0.173,0.854c-0.008,0.021-0.014,0.046-0.019,0.076c-0.006,0.031-0.012,0.067-0.02,0.108       c0.085-0.051,0.21-0.154,0.376-0.308c0.165-0.154,0.396-0.379,0.693-0.677c0.041-0.041,0.082-0.033,0.125,0.023       c0.043,0.056,0.072,0.146,0.087,0.269c0.019,0.113,0.019,0.228,0,0.346c-0.019,0.118-0.052,0.202-0.1,0.254       c-0.171,0.164-0.327,0.313-0.468,0.446c-0.141,0.133-0.267,0.246-0.378,0.338c-0.152,0.123-0.266,0.208-0.342,0.254       C345.396,195.801,345.337,195.824,345.297,195.824z" fill="#205B6A"/><path d="M347.891,195.977c-0.045,0-0.082-0.036-0.111-0.108c-0.059-0.133-0.076-0.302-0.05-0.508       c0-0.01,0.014-0.133,0.042-0.369c0.028-0.235,0.061-0.502,0.098-0.8c0.018-0.174,0.035-0.325,0.05-0.454       c0.015-0.128,0.028-0.244,0.039-0.346c-0.078,0.082-0.167,0.174-0.267,0.277c-0.1,0.103-0.207,0.213-0.32,0.331       c-0.113,0.118-0.229,0.239-0.348,0.362c-0.119,0.123-0.234,0.241-0.345,0.354c-0.041,0.041-0.082,0.033-0.125-0.023       c-0.043-0.056-0.073-0.146-0.092-0.269c-0.015-0.113-0.012-0.228,0.008-0.346c0.02-0.118,0.053-0.202,0.097-0.254       c0.167-0.164,0.341-0.339,0.521-0.524c0.18-0.185,0.344-0.354,0.493-0.508c0.148-0.154,0.321-0.333,0.517-0.539       c0.019-0.01,0.036-0.018,0.053-0.023c0.017-0.005,0.034,0.003,0.053,0.023c0.052,0.021,0.089,0.103,0.111,0.246       c0.018,0.082,0.027,0.187,0.025,0.316c-0.002,0.128-0.012,0.311-0.031,0.546c-0.011,0.133-0.025,0.28-0.042,0.439       s-0.038,0.341-0.064,0.546c-0.004,0.041-0.008,0.077-0.011,0.108s-0.007,0.067-0.011,0.108c0.148-0.225,0.33-0.462,0.545-0.708       c0.041-0.051,0.082-0.054,0.122-0.008c0.041,0.046,0.071,0.125,0.089,0.238c0.022,0.113,0.024,0.231,0.005,0.354       c-0.019,0.123-0.048,0.21-0.089,0.261c-0.126,0.154-0.243,0.303-0.351,0.446c-0.107,0.144-0.2,0.272-0.278,0.385       c-0.093,0.133-0.176,0.256-0.251,0.369C347.952,195.952,347.924,195.977,347.891,195.977z" fill="#205B6A"/><path d="M350.741,195.824c-0.026,0-0.05-0.011-0.072-0.031c-0.07-0.041-0.12-0.158-0.15-0.354       c-0.023-0.174-0.017-0.369,0.016-0.585c0.034-0.215,0.082-0.457,0.145-0.723c0.022-0.092,0.044-0.187,0.064-0.284       c0.02-0.098,0.038-0.187,0.053-0.27c0.011-0.041,0.02-0.092,0.028-0.153c-0.111-0.051-0.24-0.064-0.387-0.039       c-0.146,0.026-0.311,0.105-0.492,0.239c-0.164,0.113-0.336,0.259-0.518,0.439c-0.182,0.179-0.375,0.392-0.579,0.638       c-0.041,0.052-0.082,0.054-0.122,0.008s-0.071-0.126-0.089-0.239c-0.022-0.113-0.024-0.231-0.005-0.354       c0.019-0.123,0.048-0.21,0.089-0.262c0.211-0.257,0.411-0.48,0.598-0.669c0.187-0.19,0.368-0.341,0.543-0.454       c0.456-0.318,0.829-0.369,1.119-0.154c0.086,0.061,0.145,0.205,0.178,0.431c0.033,0.236,0.026,0.49-0.022,0.762       c-0.048,0.272-0.106,0.557-0.173,0.854c-0.008,0.021-0.014,0.046-0.019,0.076c-0.006,0.031-0.012,0.067-0.019,0.108       c0.085-0.051,0.21-0.154,0.376-0.308c0.165-0.154,0.396-0.379,0.693-0.677c0.041-0.041,0.082-0.033,0.125,0.023       c0.043,0.056,0.072,0.146,0.087,0.269c0.019,0.113,0.019,0.228,0,0.346c-0.019,0.118-0.052,0.202-0.1,0.254       c-0.171,0.164-0.327,0.313-0.468,0.446c-0.141,0.133-0.267,0.246-0.378,0.338c-0.152,0.123-0.266,0.208-0.342,0.254       C350.84,195.801,350.782,195.824,350.741,195.824z" fill="#205B6A"/><path d="M354.02,195.824c-0.026,0-0.05-0.011-0.072-0.031c-0.07-0.041-0.12-0.158-0.15-0.354       c-0.023-0.174-0.017-0.369,0.016-0.585c0.034-0.215,0.082-0.457,0.145-0.723c0.022-0.092,0.044-0.187,0.064-0.284       c0.02-0.098,0.038-0.187,0.053-0.27c0.011-0.041,0.02-0.092,0.028-0.153c-0.111-0.051-0.24-0.064-0.387-0.039       c-0.146,0.026-0.311,0.105-0.492,0.239c-0.164,0.113-0.336,0.259-0.518,0.439c-0.182,0.179-0.375,0.392-0.579,0.638       c-0.041,0.052-0.082,0.054-0.122,0.008s-0.071-0.126-0.089-0.239c-0.022-0.113-0.024-0.231-0.005-0.354       c0.019-0.123,0.048-0.21,0.089-0.262c0.211-0.257,0.411-0.48,0.598-0.669c0.187-0.19,0.368-0.341,0.543-0.454       c0.456-0.318,0.829-0.369,1.119-0.154c0.086,0.061,0.145,0.205,0.178,0.431c0.033,0.236,0.026,0.49-0.022,0.762       c-0.048,0.272-0.106,0.557-0.173,0.854c-0.008,0.021-0.014,0.046-0.019,0.076c-0.006,0.031-0.012,0.067-0.019,0.108       c0.085-0.051,0.21-0.154,0.376-0.308c0.165-0.154,0.396-0.379,0.693-0.677c0.041-0.041,0.082-0.033,0.125,0.023       c0.043,0.056,0.072,0.146,0.087,0.269c0.019,0.113,0.019,0.228,0,0.346c-0.019,0.118-0.052,0.202-0.1,0.254       c-0.171,0.164-0.327,0.313-0.468,0.446c-0.141,0.133-0.267,0.246-0.378,0.338c-0.152,0.123-0.266,0.208-0.342,0.254       C354.119,195.801,354.061,195.824,354.02,195.824z" fill="#205B6A"/><path d="M355.79,196.855c-0.03,0-0.057-0.005-0.081-0.015c-0.024-0.011-0.049-0.026-0.075-0.046       c-0.067-0.051-0.113-0.159-0.139-0.323c-0.034-0.205-0.033-0.454,0.003-0.746c0.035-0.292,0.094-0.669,0.175-1.132       c0.015-0.081,0.029-0.174,0.044-0.277c0.015-0.102,0.032-0.2,0.05-0.292c-0.048,0.051-0.099,0.136-0.153,0.254       c-0.054,0.118-0.109,0.239-0.164,0.361c-0.037,0.083-0.079,0.113-0.125,0.093s-0.084-0.077-0.114-0.17       c-0.029-0.102-0.041-0.215-0.034-0.338c0.008-0.123,0.028-0.231,0.062-0.323c0.052-0.103,0.106-0.216,0.161-0.339       c0.056-0.123,0.115-0.225,0.178-0.308c0.152-0.215,0.291-0.272,0.418-0.169c0.059,0.031,0.104,0.133,0.134,0.308       c0.029,0.174,0.029,0.379-0.003,0.616c-0.031,0.236-0.084,0.569-0.159,1c-0.019,0.123-0.038,0.246-0.058,0.369       c-0.02,0.123-0.04,0.241-0.058,0.354c-0.007,0.041-0.013,0.077-0.017,0.108c-0.004,0.031-0.007,0.061-0.011,0.093       c0.037-0.011,0.084-0.041,0.142-0.093c0.058-0.051,0.124-0.131,0.2-0.239s0.164-0.254,0.265-0.438       c0.1-0.185,0.215-0.416,0.345-0.693c0.1-0.225,0.195-0.446,0.284-0.662c0.089-0.215,0.167-0.41,0.234-0.585       c0.067-0.174,0.141-0.374,0.222-0.6c0.045-0.144,0.098-0.19,0.162-0.138c0.029,0.021,0.053,0.056,0.072,0.108       c0.019,0.051,0.034,0.103,0.045,0.153c0.026,0.144,0.028,0.313,0.005,0.508c-0.022,0.195-0.063,0.498-0.122,0.908       c-0.022,0.133-0.044,0.267-0.064,0.4c-0.02,0.133-0.04,0.257-0.058,0.369c-0.004,0.051-0.009,0.108-0.017,0.169       c0.052-0.02,0.108-0.076,0.167-0.169c0.059-0.092,0.119-0.195,0.178-0.307c0.059-0.113,0.115-0.234,0.167-0.362       s0.098-0.239,0.139-0.331c0.037-0.093,0.078-0.133,0.123-0.123c0.044,0.011,0.083,0.061,0.117,0.154       c0.029,0.103,0.043,0.215,0.042,0.339c-0.002,0.123-0.022,0.23-0.058,0.323c-0.086,0.215-0.173,0.418-0.262,0.607       c-0.089,0.19-0.179,0.354-0.27,0.493c-0.091,0.138-0.183,0.236-0.275,0.292c-0.093,0.056-0.184,0.054-0.273-0.008       c-0.059-0.061-0.102-0.163-0.128-0.307c-0.022-0.143-0.029-0.3-0.019-0.47c0.009-0.169,0.031-0.387,0.064-0.654       c-0.041,0.103-0.082,0.2-0.125,0.292c-0.043,0.092-0.088,0.195-0.136,0.307C356.475,196.295,356.076,196.855,355.79,196.855z" fill="#205B6A"/><path d="M358.752,196.855c-0.03,0-0.057-0.005-0.081-0.015c-0.024-0.011-0.049-0.026-0.075-0.046       c-0.067-0.051-0.113-0.159-0.139-0.323c-0.034-0.205-0.033-0.454,0.003-0.746c0.035-0.292,0.094-0.669,0.175-1.132       c0.015-0.081,0.029-0.174,0.044-0.277c0.015-0.102,0.032-0.2,0.05-0.292c-0.048,0.051-0.099,0.136-0.153,0.254       c-0.054,0.118-0.109,0.239-0.164,0.361c-0.037,0.083-0.079,0.113-0.125,0.093c-0.046-0.021-0.084-0.077-0.114-0.17       c-0.029-0.102-0.041-0.215-0.034-0.338c0.008-0.123,0.028-0.231,0.062-0.323c0.052-0.103,0.106-0.216,0.161-0.339       c0.056-0.123,0.115-0.225,0.178-0.308c0.152-0.215,0.291-0.272,0.418-0.169c0.059,0.031,0.104,0.133,0.134,0.308       c0.029,0.174,0.029,0.379-0.003,0.616c-0.031,0.236-0.084,0.569-0.159,1c-0.019,0.123-0.038,0.246-0.058,0.369       c-0.02,0.123-0.04,0.241-0.058,0.354c-0.007,0.041-0.013,0.077-0.017,0.108s-0.007,0.061-0.011,0.093       c0.037-0.011,0.084-0.041,0.142-0.093c0.058-0.051,0.124-0.131,0.2-0.239s0.164-0.254,0.265-0.438       c0.1-0.185,0.215-0.416,0.345-0.693c0.1-0.225,0.195-0.446,0.284-0.662c0.089-0.215,0.167-0.41,0.234-0.585       c0.067-0.174,0.141-0.374,0.222-0.6c0.045-0.144,0.098-0.19,0.162-0.138c0.029,0.021,0.053,0.056,0.072,0.108       c0.019,0.051,0.034,0.103,0.045,0.153c0.026,0.144,0.028,0.313,0.005,0.508c-0.022,0.195-0.063,0.498-0.122,0.908       c-0.022,0.133-0.044,0.267-0.064,0.4c-0.02,0.133-0.04,0.257-0.058,0.369c-0.004,0.051-0.009,0.108-0.017,0.169       c0.052-0.02,0.108-0.076,0.167-0.169c0.059-0.092,0.119-0.195,0.178-0.307s0.115-0.234,0.167-0.362s0.098-0.239,0.139-0.331       c0.037-0.093,0.078-0.133,0.123-0.123c0.044,0.011,0.083,0.061,0.117,0.154c0.029,0.103,0.043,0.215,0.042,0.339       c-0.002,0.123-0.022,0.23-0.058,0.323c-0.086,0.215-0.173,0.418-0.262,0.607c-0.089,0.19-0.179,0.354-0.27,0.493       c-0.091,0.138-0.183,0.236-0.275,0.292c-0.093,0.056-0.184,0.054-0.273-0.008c-0.059-0.061-0.102-0.163-0.128-0.307       c-0.022-0.143-0.029-0.3-0.02-0.47c0.01-0.169,0.031-0.387,0.064-0.654c-0.041,0.103-0.082,0.2-0.125,0.292       c-0.043,0.092-0.088,0.195-0.136,0.307C359.436,196.295,359.038,196.855,358.752,196.855z" fill="#205B6A"/><path d="M362.537,195.977c-0.045,0-0.082-0.036-0.111-0.108c-0.059-0.133-0.076-0.302-0.05-0.508       c0-0.01,0.014-0.133,0.042-0.369c0.028-0.235,0.061-0.502,0.098-0.8c0.018-0.174,0.035-0.325,0.05-0.454       c0.015-0.128,0.028-0.244,0.039-0.346c-0.078,0.082-0.167,0.174-0.267,0.277c-0.1,0.103-0.207,0.213-0.32,0.331       c-0.113,0.118-0.229,0.239-0.348,0.362c-0.119,0.123-0.234,0.241-0.345,0.354c-0.041,0.041-0.082,0.033-0.125-0.023       c-0.043-0.056-0.073-0.146-0.091-0.269c-0.015-0.113-0.012-0.228,0.008-0.346c0.02-0.118,0.053-0.202,0.097-0.254       c0.167-0.164,0.341-0.339,0.521-0.524c0.18-0.185,0.344-0.354,0.493-0.508c0.148-0.154,0.321-0.333,0.517-0.539       c0.019-0.01,0.036-0.018,0.053-0.023c0.017-0.005,0.034,0.003,0.053,0.023c0.052,0.021,0.089,0.103,0.111,0.246       c0.018,0.082,0.027,0.187,0.025,0.316c-0.002,0.128-0.012,0.311-0.031,0.546c-0.011,0.133-0.025,0.28-0.042,0.439       c-0.017,0.159-0.038,0.341-0.064,0.546c-0.004,0.041-0.008,0.077-0.011,0.108s-0.007,0.067-0.011,0.108       c0.148-0.225,0.33-0.462,0.545-0.708c0.041-0.051,0.082-0.054,0.122-0.008c0.041,0.046,0.071,0.125,0.089,0.238       c0.022,0.113,0.024,0.231,0.005,0.354c-0.019,0.123-0.048,0.21-0.089,0.261c-0.126,0.154-0.243,0.303-0.351,0.446       c-0.107,0.144-0.2,0.272-0.278,0.385c-0.093,0.133-0.176,0.256-0.251,0.369C362.598,195.952,362.57,195.977,362.537,195.977z" fill="#205B6A"/><path d="M363.879,196.855c-0.03,0-0.057-0.005-0.081-0.015c-0.024-0.011-0.049-0.026-0.075-0.046       c-0.067-0.051-0.113-0.159-0.139-0.323c-0.034-0.205-0.033-0.454,0.003-0.746c0.035-0.292,0.094-0.669,0.175-1.132       c0.015-0.081,0.029-0.174,0.044-0.277c0.015-0.102,0.032-0.2,0.05-0.292c-0.048,0.051-0.099,0.136-0.153,0.254       c-0.054,0.118-0.109,0.239-0.164,0.361c-0.037,0.083-0.079,0.113-0.125,0.093s-0.084-0.077-0.114-0.17       c-0.029-0.102-0.041-0.215-0.034-0.338c0.008-0.123,0.028-0.231,0.062-0.323c0.052-0.103,0.106-0.216,0.161-0.339       c0.056-0.123,0.115-0.225,0.178-0.308c0.152-0.215,0.291-0.272,0.418-0.169c0.059,0.031,0.104,0.133,0.134,0.308       c0.029,0.174,0.029,0.379-0.003,0.616c-0.031,0.236-0.084,0.569-0.159,1c-0.019,0.123-0.038,0.246-0.058,0.369       c-0.02,0.123-0.04,0.241-0.058,0.354c-0.007,0.041-0.013,0.077-0.017,0.108s-0.007,0.061-0.011,0.093       c0.037-0.011,0.084-0.041,0.142-0.093s0.124-0.131,0.2-0.239c0.076-0.108,0.164-0.254,0.265-0.438s0.215-0.416,0.345-0.693       c0.1-0.225,0.195-0.446,0.284-0.662c0.089-0.215,0.167-0.41,0.234-0.585c0.067-0.174,0.141-0.374,0.222-0.6       c0.045-0.144,0.098-0.19,0.162-0.138c0.029,0.021,0.053,0.056,0.072,0.108c0.019,0.051,0.034,0.103,0.045,0.153       c0.026,0.144,0.028,0.313,0.005,0.508c-0.022,0.195-0.063,0.498-0.122,0.908c-0.022,0.133-0.044,0.267-0.064,0.4       c-0.02,0.133-0.04,0.257-0.058,0.369c-0.004,0.051-0.009,0.108-0.017,0.169c0.052-0.02,0.108-0.076,0.167-0.169       c0.059-0.092,0.119-0.195,0.178-0.307s0.115-0.234,0.167-0.362c0.052-0.128,0.098-0.239,0.139-0.331       c0.037-0.093,0.078-0.133,0.123-0.123c0.044,0.011,0.083,0.061,0.117,0.154c0.029,0.103,0.043,0.215,0.042,0.339       c-0.002,0.123-0.022,0.23-0.058,0.323c-0.086,0.215-0.173,0.418-0.262,0.607c-0.089,0.19-0.179,0.354-0.27,0.493       c-0.091,0.138-0.183,0.236-0.275,0.292c-0.093,0.056-0.184,0.054-0.273-0.008c-0.059-0.061-0.102-0.163-0.128-0.307       c-0.022-0.143-0.029-0.3-0.019-0.47c0.01-0.169,0.031-0.387,0.064-0.654c-0.041,0.103-0.082,0.2-0.125,0.292       c-0.043,0.092-0.088,0.195-0.136,0.307C364.563,196.295,364.165,196.855,363.879,196.855z" fill="#205B6A"/></g></g><g><g><path d="M344.241,202.32c-0.042,0-0.084-0.003-0.125-0.008c-0.042-0.005-0.088-0.013-0.138-0.023       c-0.1-0.041-0.183-0.128-0.251-0.262c-0.024-0.061-0.042-0.136-0.05-0.223c-0.008-0.087,0.002-0.218,0.032-0.393       c0.03-0.174,0.079-0.413,0.151-0.715c0.07-0.303,0.168-0.695,0.293-1.178c-0.192,0.083-0.405,0.18-0.638,0.292       c-0.234,0.113-0.476,0.226-0.727,0.339c-0.092,0.041-0.185,0.033-0.282-0.023c-0.096-0.056-0.164-0.146-0.206-0.269       c-0.034-0.113-0.028-0.228,0.018-0.346c0.046-0.118,0.119-0.202,0.219-0.254c0.267-0.123,0.526-0.241,0.777-0.354       c0.251-0.113,0.472-0.212,0.663-0.3c0.193-0.087,0.405-0.187,0.639-0.3c0.084-0.041,0.163-0.046,0.237-0.016       c0.109,0.031,0.189,0.108,0.238,0.231c0.042,0.092,0.056,0.175,0.044,0.246c-0.012,0.072-0.028,0.149-0.044,0.231       c-0.017,0.041-0.03,0.085-0.038,0.131c-0.008,0.046-0.021,0.1-0.038,0.162c-0.058,0.175-0.119,0.387-0.181,0.639       c-0.062,0.251-0.127,0.505-0.194,0.761c-0.043,0.144-0.075,0.267-0.101,0.369c-0.024,0.103-0.046,0.195-0.062,0.277       c0.158-0.041,0.388-0.158,0.689-0.354c0.258-0.174,0.534-0.374,0.826-0.6c0.291-0.225,0.596-0.472,0.914-0.739       c0.066-0.051,0.133-0.103,0.2-0.154c0.067-0.051,0.133-0.108,0.201-0.169c0.092-0.071,0.188-0.095,0.287-0.07       c0.101,0.026,0.184,0.095,0.251,0.208c0.058,0.113,0.077,0.229,0.057,0.346c-0.021,0.118-0.077,0.213-0.169,0.285       c-0.067,0.061-0.137,0.121-0.207,0.177c-0.071,0.057-0.144,0.116-0.219,0.177c-0.318,0.257-0.627,0.503-0.926,0.739       c-0.301,0.236-0.585,0.441-0.852,0.616C344.988,202.145,344.559,202.32,344.241,202.32z" fill="#205B6A"/><path d="M349.212,200.95c-0.042,0-0.074-0.005-0.1-0.016c-0.133-0.041-0.227-0.105-0.281-0.192       c-0.055-0.087-0.091-0.156-0.107-0.208c-0.067-0.225-0.048-0.459,0.056-0.7c0.105-0.241,0.236-0.495,0.394-0.761       c0.051-0.082,0.097-0.17,0.139-0.262c0.042-0.093,0.083-0.18,0.124-0.262c0.009-0.01,0.021-0.031,0.038-0.061       c-0.05,0.021-0.11,0.051-0.181,0.092c-0.071,0.041-0.152,0.103-0.244,0.185c-0.151,0.113-0.31,0.259-0.476,0.439       c-0.167,0.179-0.338,0.367-0.514,0.562c-0.042,0.051-0.086,0.1-0.131,0.146c-0.046,0.046-0.09,0.095-0.131,0.147       c-0.075,0.082-0.165,0.12-0.269,0.115c-0.105-0.005-0.191-0.059-0.257-0.162c-0.075-0.093-0.109-0.202-0.101-0.331       c0.009-0.128,0.051-0.233,0.125-0.315c0.042-0.051,0.086-0.1,0.131-0.147c0.046-0.046,0.09-0.095,0.131-0.146       c0.201-0.225,0.398-0.439,0.595-0.639c0.196-0.2,0.388-0.372,0.576-0.515c0.189-0.144,0.376-0.249,0.564-0.316       c0.188-0.067,0.37-0.07,0.545-0.008c0.142,0.052,0.242,0.123,0.301,0.216c0.058,0.092,0.096,0.174,0.112,0.246       c0.075,0.236,0.058,0.477-0.05,0.723c-0.109,0.246-0.247,0.518-0.413,0.815c-0.017,0.021-0.036,0.054-0.057,0.1       c-0.02,0.046-0.044,0.09-0.068,0.131c0.125-0.061,0.285-0.136,0.482-0.223c0.196-0.087,0.44-0.203,0.733-0.346       c0.108-0.041,0.208-0.033,0.301,0.023c0.092,0.056,0.154,0.146,0.188,0.269c0.042,0.113,0.04,0.228-0.006,0.346       c-0.046,0.118-0.115,0.202-0.207,0.254c-0.267,0.113-0.51,0.215-0.727,0.308c-0.217,0.092-0.4,0.174-0.55,0.246       c-0.084,0.041-0.157,0.075-0.219,0.1c-0.063,0.026-0.119,0.048-0.169,0.069c-0.067,0.021-0.119,0.039-0.157,0.054       C349.294,200.943,349.254,200.95,349.212,200.95z" fill="#205B6A"/><path d="M351.992,202.289c-0.067,0-0.127-0.005-0.181-0.015c-0.055-0.011-0.111-0.026-0.169-0.046       c-0.15-0.051-0.255-0.159-0.313-0.323c-0.075-0.205-0.073-0.454,0.006-0.746c0.079-0.292,0.211-0.669,0.394-1.132       c0.034-0.081,0.066-0.174,0.1-0.277c0.034-0.102,0.071-0.2,0.113-0.292c-0.109,0.051-0.223,0.136-0.344,0.254       c-0.121,0.118-0.245,0.239-0.37,0.361c-0.084,0.083-0.177,0.113-0.281,0.093s-0.19-0.077-0.257-0.17       c-0.066-0.102-0.092-0.215-0.075-0.338c0.017-0.123,0.063-0.231,0.139-0.323c0.116-0.103,0.237-0.216,0.363-0.339       c0.125-0.123,0.259-0.225,0.4-0.308c0.342-0.215,0.655-0.272,0.94-0.169c0.134,0.031,0.233,0.133,0.301,0.308       c0.066,0.174,0.064,0.379-0.007,0.616c-0.07,0.236-0.19,0.569-0.357,1c-0.042,0.123-0.086,0.246-0.131,0.369       c-0.046,0.123-0.09,0.241-0.131,0.354c-0.016,0.041-0.03,0.077-0.038,0.108c-0.008,0.031-0.016,0.061-0.024,0.093       c0.084-0.011,0.19-0.041,0.319-0.093s0.279-0.131,0.45-0.239s0.37-0.254,0.595-0.438c0.225-0.185,0.484-0.416,0.777-0.693       c0.225-0.225,0.438-0.447,0.639-0.662c0.2-0.215,0.375-0.41,0.526-0.585c0.15-0.174,0.317-0.374,0.5-0.6       c0.101-0.144,0.221-0.19,0.364-0.138c0.066,0.021,0.12,0.056,0.162,0.108s0.075,0.103,0.101,0.153       c0.058,0.144,0.062,0.313,0.012,0.508c-0.05,0.195-0.142,0.498-0.275,0.908c-0.05,0.133-0.099,0.267-0.145,0.4       c-0.046,0.133-0.09,0.257-0.131,0.369c-0.008,0.051-0.02,0.108-0.038,0.169c0.117-0.02,0.243-0.076,0.376-0.169       c0.134-0.092,0.267-0.195,0.401-0.307c0.133-0.113,0.259-0.234,0.376-0.362c0.117-0.128,0.221-0.239,0.313-0.331       c0.084-0.093,0.175-0.133,0.276-0.123c0.1,0.011,0.188,0.061,0.263,0.154c0.066,0.103,0.098,0.215,0.094,0.339       c-0.005,0.123-0.049,0.23-0.131,0.323c-0.193,0.215-0.388,0.418-0.589,0.607c-0.2,0.19-0.403,0.354-0.607,0.493       s-0.411,0.236-0.62,0.292c-0.209,0.056-0.414,0.054-0.613-0.008c-0.134-0.061-0.23-0.163-0.288-0.307       c-0.05-0.143-0.064-0.3-0.044-0.47c0.021-0.169,0.069-0.387,0.144-0.654c-0.092,0.103-0.185,0.2-0.281,0.292       c-0.096,0.092-0.199,0.195-0.307,0.307C353.532,201.73,352.635,202.289,351.992,202.289z" fill="#205B6A"/><path d="M358.654,202.289c-0.067,0-0.127-0.005-0.181-0.015c-0.055-0.011-0.111-0.026-0.169-0.046       c-0.15-0.051-0.255-0.159-0.313-0.323c-0.075-0.205-0.073-0.454,0.006-0.746c0.079-0.292,0.211-0.669,0.394-1.132       c0.034-0.081,0.066-0.174,0.1-0.277c0.034-0.102,0.071-0.2,0.113-0.292c-0.109,0.051-0.223,0.136-0.344,0.254       c-0.121,0.118-0.245,0.239-0.37,0.361c-0.084,0.083-0.177,0.113-0.281,0.093s-0.19-0.077-0.257-0.17       c-0.066-0.102-0.092-0.215-0.075-0.338c0.017-0.123,0.063-0.231,0.139-0.323c0.116-0.103,0.237-0.216,0.363-0.339       c0.125-0.123,0.259-0.225,0.401-0.308c0.342-0.215,0.655-0.272,0.94-0.169c0.134,0.031,0.233,0.133,0.301,0.308       c0.066,0.174,0.064,0.379-0.007,0.616c-0.07,0.236-0.19,0.569-0.357,1c-0.042,0.123-0.086,0.246-0.131,0.369       c-0.046,0.123-0.09,0.241-0.131,0.354c-0.016,0.041-0.03,0.077-0.038,0.108s-0.016,0.061-0.024,0.093       c0.084-0.011,0.19-0.041,0.319-0.093c0.129-0.051,0.279-0.131,0.45-0.239s0.37-0.254,0.595-0.438       c0.225-0.185,0.484-0.416,0.777-0.693c0.225-0.225,0.438-0.447,0.639-0.662c0.2-0.215,0.375-0.41,0.526-0.585       c0.15-0.174,0.317-0.374,0.5-0.6c0.101-0.144,0.221-0.19,0.364-0.138c0.066,0.021,0.12,0.056,0.162,0.108       s0.075,0.103,0.101,0.153c0.058,0.144,0.062,0.313,0.012,0.508c-0.05,0.195-0.142,0.498-0.275,0.908       c-0.05,0.133-0.099,0.267-0.145,0.4c-0.046,0.133-0.09,0.257-0.131,0.369c-0.008,0.051-0.02,0.108-0.038,0.169       c0.117-0.02,0.243-0.076,0.376-0.169c0.134-0.092,0.267-0.195,0.4-0.307c0.134-0.113,0.259-0.234,0.376-0.362       s0.221-0.239,0.313-0.331c0.084-0.093,0.175-0.133,0.276-0.123c0.1,0.011,0.188,0.061,0.263,0.154       c0.066,0.103,0.098,0.215,0.094,0.339c-0.005,0.123-0.049,0.23-0.131,0.323c-0.193,0.215-0.388,0.418-0.589,0.607       c-0.2,0.19-0.403,0.354-0.607,0.493s-0.411,0.236-0.62,0.292c-0.209,0.056-0.414,0.054-0.613-0.008       c-0.133-0.061-0.23-0.163-0.288-0.307c-0.05-0.143-0.064-0.3-0.044-0.47c0.021-0.169,0.069-0.387,0.144-0.654       c-0.092,0.103-0.185,0.2-0.281,0.292c-0.096,0.092-0.199,0.195-0.307,0.307C360.194,201.73,359.297,202.289,358.654,202.289z" fill="#205B6A"/><path d="M367.169,201.412c-0.101,0-0.184-0.036-0.251-0.108c-0.134-0.133-0.171-0.302-0.113-0.508       c0-0.01,0.032-0.133,0.094-0.369c0.063-0.235,0.137-0.502,0.22-0.8c0.041-0.174,0.078-0.325,0.112-0.454       c0.034-0.128,0.063-0.244,0.088-0.346c-0.175,0.082-0.376,0.174-0.601,0.277c-0.225,0.103-0.465,0.213-0.719,0.331       c-0.255,0.118-0.516,0.239-0.783,0.362c-0.268,0.123-0.526,0.241-0.777,0.354c-0.092,0.041-0.185,0.033-0.282-0.023       c-0.096-0.056-0.164-0.146-0.206-0.269c-0.034-0.113-0.027-0.228,0.018-0.346c0.046-0.118,0.119-0.202,0.219-0.254       c0.376-0.164,0.766-0.339,1.171-0.524c0.405-0.185,0.774-0.354,1.109-0.508c0.333-0.154,0.721-0.333,1.164-0.539       c0.042-0.01,0.082-0.018,0.119-0.023c0.038-0.005,0.077,0.003,0.119,0.023c0.116,0.021,0.2,0.103,0.251,0.246       c0.041,0.082,0.06,0.187,0.056,0.316c-0.004,0.128-0.027,0.311-0.069,0.546c-0.024,0.133-0.056,0.28-0.094,0.439       c-0.038,0.159-0.086,0.341-0.144,0.546c-0.008,0.041-0.017,0.077-0.025,0.108c-0.008,0.031-0.016,0.067-0.024,0.108       c0.333-0.225,0.743-0.462,1.227-0.708c0.092-0.051,0.183-0.054,0.275-0.008c0.092,0.046,0.159,0.125,0.201,0.238       c0.05,0.113,0.054,0.231,0.012,0.354c-0.042,0.123-0.108,0.21-0.201,0.261c-0.283,0.154-0.546,0.303-0.789,0.446       c-0.242,0.144-0.45,0.272-0.626,0.385c-0.209,0.133-0.396,0.256-0.564,0.369C367.307,201.387,367.243,201.412,367.169,201.412z       " fill="#205B6A"/></g></g><g><g><path d="M345.794,206.596c-0.026,0-0.05-0.011-0.072-0.031c-0.07-0.041-0.12-0.158-0.149-0.354       c-0.022-0.174-0.017-0.369,0.016-0.585c0.033-0.215,0.081-0.457,0.144-0.723c0.022-0.092,0.043-0.187,0.063-0.284       c0.02-0.098,0.038-0.187,0.053-0.27c0.011-0.041,0.02-0.092,0.027-0.153c-0.11-0.051-0.238-0.064-0.384-0.039       c-0.145,0.026-0.308,0.105-0.489,0.239c-0.162,0.113-0.334,0.259-0.514,0.439c-0.18,0.179-0.372,0.392-0.574,0.638       c-0.04,0.052-0.081,0.054-0.121,0.008c-0.04-0.046-0.07-0.126-0.089-0.239c-0.022-0.113-0.024-0.231-0.005-0.354       c0.018-0.123,0.048-0.21,0.089-0.262c0.209-0.257,0.408-0.48,0.594-0.669c0.186-0.19,0.365-0.341,0.539-0.454       c0.453-0.318,0.823-0.369,1.11-0.154c0.085,0.061,0.144,0.205,0.177,0.431c0.033,0.236,0.026,0.49-0.022,0.762       c-0.048,0.272-0.105,0.557-0.171,0.854c-0.008,0.021-0.014,0.046-0.019,0.076c-0.006,0.031-0.012,0.067-0.019,0.108       c0.085-0.051,0.209-0.154,0.373-0.308c0.164-0.154,0.393-0.379,0.688-0.677c0.04-0.041,0.082-0.033,0.124,0.023       s0.071,0.146,0.086,0.269c0.018,0.113,0.018,0.228,0,0.346c-0.018,0.118-0.052,0.202-0.099,0.254       c-0.169,0.164-0.324,0.313-0.464,0.446c-0.14,0.133-0.265,0.246-0.375,0.338c-0.151,0.123-0.264,0.208-0.34,0.254       S345.835,206.596,345.794,206.596z" fill="#205B6A"/><path d="M347.805,207.657c-0.018,0-0.037-0.003-0.055-0.008c-0.018-0.005-0.039-0.013-0.061-0.023       c-0.044-0.041-0.081-0.128-0.111-0.262c-0.011-0.061-0.018-0.136-0.022-0.223c-0.004-0.087,0.001-0.218,0.014-0.393       c0.013-0.174,0.035-0.413,0.067-0.715c0.031-0.303,0.074-0.695,0.129-1.178c-0.085,0.083-0.178,0.18-0.281,0.292       c-0.103,0.113-0.21,0.226-0.321,0.339c-0.04,0.041-0.082,0.033-0.125-0.023c-0.042-0.056-0.072-0.146-0.091-0.269       c-0.015-0.113-0.012-0.228,0.008-0.346c0.02-0.118,0.053-0.202,0.097-0.254c0.118-0.123,0.232-0.241,0.343-0.354       c0.111-0.113,0.208-0.212,0.293-0.3c0.085-0.087,0.178-0.187,0.282-0.3c0.037-0.041,0.072-0.046,0.105-0.016       c0.048,0.031,0.083,0.108,0.105,0.231c0.018,0.092,0.025,0.175,0.019,0.246c-0.005,0.072-0.012,0.149-0.019,0.231       c-0.008,0.041-0.013,0.085-0.017,0.131c-0.004,0.046-0.009,0.1-0.017,0.162c-0.026,0.175-0.053,0.387-0.08,0.639       c-0.027,0.251-0.056,0.505-0.085,0.761c-0.019,0.144-0.033,0.267-0.044,0.369c-0.011,0.103-0.02,0.195-0.027,0.277       c0.07-0.041,0.171-0.158,0.304-0.354c0.114-0.174,0.236-0.374,0.365-0.6c0.129-0.225,0.263-0.472,0.403-0.739       c0.029-0.051,0.059-0.103,0.088-0.154c0.03-0.051,0.059-0.108,0.089-0.169c0.04-0.071,0.083-0.095,0.127-0.07       c0.044,0.026,0.081,0.095,0.111,0.208c0.026,0.113,0.034,0.229,0.025,0.346c-0.009,0.118-0.034,0.213-0.075,0.285       c-0.03,0.061-0.06,0.121-0.091,0.177c-0.031,0.057-0.063,0.116-0.097,0.177c-0.14,0.257-0.276,0.503-0.409,0.739       c-0.133,0.236-0.258,0.441-0.376,0.616C348.134,207.482,347.945,207.657,347.805,207.657z" fill="#205B6A"/><path d="M351.202,206.596c-0.026,0-0.05-0.011-0.072-0.031c-0.07-0.041-0.12-0.158-0.149-0.354       c-0.022-0.174-0.017-0.369,0.016-0.585c0.033-0.215,0.081-0.457,0.144-0.723c0.022-0.092,0.043-0.187,0.063-0.284       c0.02-0.098,0.038-0.187,0.053-0.27c0.011-0.041,0.02-0.092,0.027-0.153c-0.11-0.051-0.238-0.064-0.384-0.039       c-0.145,0.026-0.308,0.105-0.489,0.239c-0.162,0.113-0.334,0.259-0.514,0.439c-0.18,0.179-0.372,0.392-0.574,0.638       c-0.04,0.052-0.081,0.054-0.121,0.008c-0.04-0.046-0.07-0.126-0.089-0.239c-0.022-0.113-0.024-0.231-0.005-0.354       c0.018-0.123,0.048-0.21,0.089-0.262c0.209-0.257,0.408-0.48,0.594-0.669c0.186-0.19,0.365-0.341,0.539-0.454       c0.453-0.318,0.823-0.369,1.11-0.154c0.085,0.061,0.144,0.205,0.177,0.431c0.033,0.236,0.026,0.49-0.022,0.762       c-0.048,0.272-0.105,0.557-0.171,0.854c-0.008,0.021-0.014,0.046-0.019,0.076c-0.006,0.031-0.012,0.067-0.019,0.108       c0.085-0.051,0.209-0.154,0.373-0.308c0.164-0.154,0.393-0.379,0.688-0.677c0.04-0.041,0.082-0.033,0.124,0.023       c0.042,0.056,0.071,0.146,0.086,0.269c0.018,0.113,0.018,0.228,0,0.346c-0.018,0.118-0.052,0.202-0.099,0.254       c-0.169,0.164-0.324,0.313-0.464,0.446c-0.14,0.133-0.265,0.246-0.375,0.338c-0.151,0.123-0.264,0.208-0.34,0.254       C351.3,206.572,351.242,206.596,351.202,206.596z" fill="#205B6A"/><path d="M354.455,206.596c-0.026,0-0.05-0.011-0.072-0.031c-0.07-0.041-0.12-0.158-0.149-0.354       c-0.022-0.174-0.017-0.369,0.016-0.585c0.033-0.215,0.081-0.457,0.144-0.723c0.022-0.092,0.043-0.187,0.063-0.284       c0.02-0.098,0.038-0.187,0.053-0.27c0.011-0.041,0.02-0.092,0.027-0.153c-0.11-0.051-0.238-0.064-0.384-0.039       c-0.145,0.026-0.308,0.105-0.489,0.239c-0.162,0.113-0.334,0.259-0.514,0.439c-0.18,0.179-0.372,0.392-0.574,0.638       c-0.04,0.052-0.081,0.054-0.121,0.008c-0.04-0.046-0.07-0.126-0.089-0.239c-0.022-0.113-0.024-0.231-0.005-0.354       c0.018-0.123,0.048-0.21,0.089-0.262c0.209-0.257,0.408-0.48,0.594-0.669c0.186-0.19,0.365-0.341,0.539-0.454       c0.453-0.318,0.823-0.369,1.11-0.154c0.085,0.061,0.144,0.205,0.177,0.431c0.033,0.236,0.026,0.49-0.022,0.762       c-0.048,0.272-0.105,0.557-0.171,0.854c-0.008,0.021-0.014,0.046-0.019,0.076c-0.006,0.031-0.012,0.067-0.019,0.108       c0.085-0.051,0.209-0.154,0.373-0.308c0.164-0.154,0.393-0.379,0.688-0.677c0.04-0.041,0.082-0.033,0.124,0.023       c0.042,0.056,0.071,0.146,0.086,0.269c0.018,0.113,0.018,0.228,0,0.346c-0.018,0.118-0.052,0.202-0.099,0.254       c-0.169,0.164-0.324,0.313-0.464,0.446c-0.14,0.133-0.265,0.246-0.375,0.338c-0.151,0.123-0.264,0.208-0.34,0.254       C354.554,206.572,354.496,206.596,354.455,206.596z" fill="#205B6A"/><path d="M356.212,207.626c-0.03,0-0.056-0.005-0.08-0.015c-0.024-0.011-0.049-0.026-0.075-0.046       c-0.066-0.051-0.112-0.159-0.138-0.323c-0.033-0.205-0.032-0.454,0.003-0.746c0.035-0.292,0.093-0.669,0.174-1.132       c0.015-0.081,0.029-0.174,0.044-0.277c0.015-0.102,0.031-0.2,0.05-0.292c-0.048,0.051-0.098,0.136-0.152,0.254       c-0.053,0.118-0.108,0.239-0.163,0.361c-0.037,0.083-0.078,0.113-0.124,0.093c-0.046-0.021-0.084-0.077-0.113-0.17       c-0.029-0.102-0.04-0.215-0.033-0.338c0.008-0.123,0.028-0.231,0.061-0.323c0.051-0.103,0.105-0.216,0.16-0.339       c0.055-0.123,0.114-0.225,0.177-0.308c0.151-0.215,0.289-0.272,0.414-0.169c0.059,0.031,0.103,0.133,0.133,0.308       c0.029,0.174,0.028,0.379-0.003,0.616c-0.031,0.236-0.084,0.569-0.157,1c-0.018,0.123-0.038,0.246-0.058,0.369       c-0.02,0.123-0.04,0.241-0.058,0.354c-0.007,0.041-0.013,0.077-0.017,0.108s-0.007,0.061-0.011,0.093       c0.037-0.011,0.084-0.041,0.141-0.093s0.123-0.131,0.199-0.239c0.076-0.108,0.163-0.254,0.263-0.438       c0.099-0.185,0.214-0.416,0.343-0.693c0.099-0.225,0.193-0.446,0.282-0.662c0.088-0.215,0.165-0.41,0.232-0.585       c0.066-0.174,0.14-0.374,0.221-0.6c0.045-0.144,0.098-0.19,0.16-0.138c0.029,0.021,0.053,0.056,0.071,0.108       c0.018,0.051,0.033,0.103,0.044,0.153c0.026,0.144,0.027,0.313,0.005,0.508c-0.022,0.195-0.062,0.498-0.121,0.908       c-0.022,0.133-0.044,0.267-0.064,0.4c-0.02,0.133-0.04,0.257-0.058,0.369c-0.004,0.051-0.009,0.108-0.017,0.169       c0.052-0.02,0.107-0.076,0.166-0.169c0.059-0.092,0.118-0.195,0.177-0.307c0.059-0.113,0.114-0.234,0.166-0.362       s0.098-0.239,0.138-0.331c0.037-0.093,0.077-0.133,0.122-0.123c0.044,0.011,0.083,0.061,0.116,0.154       c0.029,0.103,0.043,0.215,0.041,0.339c-0.002,0.123-0.022,0.23-0.058,0.323c-0.085,0.215-0.171,0.418-0.26,0.607       c-0.088,0.19-0.178,0.354-0.268,0.493c-0.09,0.138-0.181,0.236-0.273,0.292c-0.092,0.056-0.182,0.054-0.271-0.008       c-0.059-0.061-0.102-0.163-0.127-0.307c-0.022-0.143-0.028-0.3-0.019-0.47c0.009-0.169,0.031-0.387,0.063-0.654       c-0.04,0.103-0.082,0.2-0.124,0.292c-0.042,0.092-0.088,0.195-0.135,0.307C356.891,207.067,356.496,207.626,356.212,207.626z" fill="#205B6A"/><path d="M359.968,206.749c-0.044,0-0.081-0.036-0.111-0.108c-0.059-0.133-0.076-0.302-0.05-0.508       c0-0.01,0.014-0.133,0.041-0.369c0.028-0.235,0.06-0.502,0.097-0.8c0.018-0.174,0.035-0.325,0.049-0.454       c0.015-0.128,0.028-0.244,0.039-0.346c-0.077,0.082-0.166,0.174-0.265,0.277c-0.099,0.103-0.205,0.213-0.317,0.331       c-0.112,0.118-0.227,0.239-0.345,0.362c-0.118,0.123-0.232,0.241-0.343,0.354c-0.04,0.041-0.082,0.033-0.125-0.023       c-0.042-0.056-0.072-0.146-0.091-0.269c-0.015-0.113-0.012-0.228,0.008-0.346c0.02-0.118,0.053-0.202,0.097-0.254       c0.166-0.164,0.338-0.339,0.517-0.524c0.178-0.185,0.342-0.354,0.489-0.508c0.147-0.154,0.318-0.333,0.513-0.539       c0.018-0.01,0.036-0.018,0.053-0.023s0.034,0.003,0.053,0.023c0.051,0.021,0.088,0.103,0.111,0.246       c0.018,0.082,0.027,0.187,0.025,0.316s-0.012,0.311-0.031,0.546c-0.011,0.133-0.025,0.28-0.041,0.439s-0.038,0.341-0.063,0.546       c-0.004,0.041-0.008,0.077-0.011,0.108s-0.007,0.067-0.011,0.108c0.147-0.225,0.328-0.462,0.541-0.708       c0.04-0.051,0.081-0.054,0.121-0.008c0.04,0.046,0.07,0.125,0.089,0.238c0.022,0.113,0.024,0.231,0.005,0.354       c-0.018,0.123-0.048,0.21-0.089,0.261c-0.125,0.154-0.241,0.303-0.348,0.446c-0.107,0.144-0.199,0.272-0.276,0.385       c-0.092,0.133-0.175,0.256-0.249,0.369C360.029,206.724,360.001,206.749,359.968,206.749z" fill="#205B6A"/></g></g><g><path d="M414.756,193.322c-0.03,0-0.058-0.011-0.084-0.031c-0.082-0.041-0.14-0.158-0.174-0.354      c-0.026-0.174-0.019-0.369,0.019-0.585c0.039-0.215,0.095-0.457,0.168-0.723c0.026-0.092,0.051-0.187,0.074-0.284      c0.024-0.098,0.044-0.187,0.062-0.27c0.013-0.041,0.024-0.092,0.032-0.153c-0.129-0.051-0.279-0.064-0.45-0.039      c-0.17,0.026-0.361,0.105-0.572,0.239c-0.19,0.113-0.391,0.259-0.602,0.439c-0.211,0.179-0.435,0.392-0.673,0.638      c-0.047,0.052-0.095,0.054-0.142,0.008c-0.047-0.046-0.082-0.126-0.104-0.239c-0.026-0.113-0.028-0.231-0.006-0.354      c0.022-0.123,0.056-0.21,0.104-0.262c0.245-0.257,0.478-0.48,0.695-0.669c0.217-0.19,0.427-0.341,0.631-0.454      c0.53-0.318,0.963-0.369,1.3-0.154c0.1,0.061,0.168,0.205,0.207,0.431c0.038,0.236,0.03,0.49-0.026,0.762      c-0.056,0.272-0.123,0.557-0.201,0.854c-0.009,0.021-0.016,0.046-0.023,0.076c-0.007,0.031-0.014,0.067-0.023,0.108      c0.099-0.051,0.244-0.154,0.436-0.308c0.192-0.154,0.46-0.379,0.806-0.677c0.047-0.041,0.096-0.033,0.145,0.023      c0.049,0.056,0.083,0.146,0.101,0.269c0.022,0.113,0.022,0.228,0,0.346c-0.022,0.118-0.061,0.202-0.116,0.254      c-0.198,0.164-0.38,0.313-0.544,0.447c-0.164,0.133-0.31,0.246-0.44,0.338c-0.177,0.123-0.31,0.208-0.398,0.254      S414.803,193.322,414.756,193.322z" fill="#9CA0A6"/><path d="M418.566,193.322c-0.03,0-0.058-0.011-0.084-0.031c-0.082-0.041-0.14-0.158-0.174-0.354      c-0.026-0.174-0.019-0.369,0.019-0.585c0.039-0.215,0.095-0.457,0.168-0.723c0.026-0.092,0.051-0.187,0.074-0.284      c0.024-0.098,0.044-0.187,0.062-0.27c0.013-0.041,0.024-0.092,0.032-0.153c-0.129-0.051-0.279-0.064-0.45-0.039      c-0.17,0.026-0.361,0.105-0.572,0.239c-0.19,0.113-0.391,0.259-0.602,0.439c-0.211,0.179-0.435,0.392-0.673,0.638      c-0.047,0.052-0.095,0.054-0.142,0.008s-0.082-0.126-0.104-0.239c-0.026-0.113-0.028-0.231-0.006-0.354      c0.022-0.123,0.056-0.21,0.104-0.262c0.245-0.257,0.478-0.48,0.695-0.669c0.217-0.19,0.427-0.341,0.631-0.454      c0.53-0.318,0.963-0.369,1.3-0.154c0.1,0.061,0.168,0.205,0.207,0.431c0.038,0.236,0.03,0.49-0.026,0.762      c-0.056,0.272-0.123,0.557-0.201,0.854c-0.009,0.021-0.016,0.046-0.023,0.076c-0.007,0.031-0.014,0.067-0.023,0.108      c0.099-0.051,0.244-0.154,0.436-0.308c0.192-0.154,0.46-0.379,0.806-0.677c0.047-0.041,0.096-0.033,0.145,0.023      c0.049,0.056,0.083,0.146,0.101,0.269c0.022,0.113,0.022,0.228,0,0.346c-0.022,0.118-0.061,0.202-0.116,0.254      c-0.198,0.164-0.38,0.313-0.544,0.447c-0.164,0.133-0.31,0.246-0.44,0.338c-0.177,0.123-0.31,0.208-0.398,0.254      S418.613,193.322,418.566,193.322z" fill="#9CA0A6"/><path d="M420.623,194.353c-0.035,0-0.066-0.005-0.094-0.015c-0.028-0.011-0.057-0.026-0.087-0.046      c-0.077-0.051-0.132-0.159-0.162-0.323c-0.039-0.205-0.038-0.454,0.003-0.746c0.041-0.292,0.109-0.669,0.204-1.132      c0.017-0.081,0.034-0.174,0.052-0.277c0.017-0.102,0.037-0.2,0.058-0.292c-0.056,0.051-0.115,0.136-0.178,0.254      c-0.063,0.118-0.126,0.239-0.191,0.361c-0.043,0.083-0.092,0.113-0.145,0.093c-0.054-0.021-0.098-0.077-0.133-0.17      c-0.034-0.102-0.047-0.215-0.039-0.338c0.009-0.123,0.033-0.231,0.072-0.323c0.06-0.103,0.123-0.216,0.187-0.339      c0.065-0.123,0.134-0.225,0.207-0.308c0.177-0.215,0.339-0.272,0.485-0.169c0.069,0.031,0.121,0.133,0.155,0.308      c0.034,0.174,0.033,0.379-0.004,0.616c-0.036,0.236-0.098,0.569-0.184,1c-0.022,0.123-0.044,0.246-0.068,0.369      c-0.024,0.123-0.046,0.241-0.068,0.354c-0.008,0.041-0.015,0.077-0.019,0.108c-0.004,0.031-0.008,0.061-0.013,0.093      c0.043-0.011,0.098-0.041,0.165-0.093c0.067-0.051,0.144-0.131,0.233-0.239c0.088-0.108,0.191-0.254,0.307-0.438      c0.116-0.185,0.25-0.416,0.401-0.693c0.116-0.225,0.226-0.446,0.33-0.662c0.103-0.215,0.194-0.41,0.272-0.585      c0.077-0.174,0.164-0.374,0.258-0.6c0.052-0.144,0.114-0.19,0.188-0.138c0.034,0.021,0.062,0.056,0.084,0.108      c0.022,0.051,0.039,0.103,0.052,0.153c0.03,0.144,0.032,0.313,0.006,0.508c-0.026,0.195-0.073,0.498-0.142,0.908      c-0.026,0.133-0.051,0.267-0.075,0.4c-0.024,0.133-0.046,0.257-0.068,0.369c-0.004,0.051-0.011,0.108-0.019,0.169      c0.061-0.02,0.125-0.076,0.194-0.169c0.069-0.092,0.138-0.195,0.207-0.307c0.069-0.113,0.134-0.234,0.194-0.362      s0.114-0.239,0.162-0.331c0.043-0.093,0.091-0.133,0.143-0.123c0.052,0.011,0.097,0.061,0.136,0.154      c0.034,0.103,0.051,0.215,0.048,0.339c-0.003,0.123-0.025,0.23-0.068,0.323c-0.099,0.215-0.201,0.418-0.304,0.607      c-0.103,0.19-0.208,0.354-0.314,0.493s-0.212,0.236-0.32,0.292c-0.108,0.056-0.214,0.054-0.317-0.008      c-0.069-0.061-0.119-0.163-0.149-0.307c-0.026-0.143-0.033-0.3-0.023-0.47c0.011-0.169,0.036-0.387,0.074-0.654      c-0.047,0.103-0.096,0.2-0.145,0.292c-0.049,0.092-0.103,0.195-0.158,0.307C421.419,193.794,420.956,194.353,420.623,194.353z" fill="#9CA0A6"/><path d="M425.818,193.322c-0.03,0-0.058-0.011-0.084-0.031c-0.082-0.041-0.14-0.158-0.174-0.354      c-0.026-0.174-0.02-0.369,0.019-0.585c0.039-0.215,0.095-0.457,0.168-0.723c0.026-0.092,0.051-0.187,0.074-0.284      c0.024-0.098,0.044-0.187,0.062-0.27c0.013-0.041,0.024-0.092,0.032-0.153c-0.129-0.051-0.279-0.064-0.45-0.039      c-0.17,0.026-0.361,0.105-0.572,0.239c-0.19,0.113-0.391,0.259-0.602,0.439c-0.211,0.179-0.435,0.392-0.673,0.638      c-0.047,0.052-0.095,0.054-0.142,0.008c-0.047-0.046-0.082-0.126-0.104-0.239c-0.026-0.113-0.028-0.231-0.006-0.354      c0.022-0.123,0.056-0.21,0.104-0.262c0.245-0.257,0.478-0.48,0.695-0.669c0.217-0.19,0.427-0.341,0.631-0.454      c0.53-0.318,0.963-0.369,1.3-0.154c0.099,0.061,0.168,0.205,0.207,0.431c0.038,0.236,0.03,0.49-0.026,0.762      c-0.056,0.272-0.123,0.557-0.201,0.854c-0.009,0.021-0.016,0.046-0.023,0.076c-0.007,0.031-0.014,0.067-0.023,0.108      c0.099-0.051,0.244-0.154,0.436-0.308c0.192-0.154,0.46-0.379,0.806-0.677c0.047-0.041,0.096-0.033,0.145,0.023      c0.049,0.056,0.083,0.146,0.101,0.269c0.022,0.113,0.022,0.228,0,0.346c-0.022,0.118-0.061,0.202-0.116,0.254      c-0.198,0.164-0.38,0.313-0.544,0.447c-0.164,0.133-0.31,0.246-0.44,0.338c-0.177,0.123-0.31,0.208-0.398,0.254      C425.933,193.299,425.865,193.322,425.818,193.322z" fill="#9CA0A6"/><path d="M429.628,193.322c-0.03,0-0.058-0.011-0.084-0.031c-0.082-0.041-0.14-0.158-0.174-0.354      c-0.026-0.174-0.02-0.369,0.019-0.585c0.039-0.215,0.095-0.457,0.168-0.723c0.026-0.092,0.051-0.187,0.074-0.284      c0.024-0.098,0.044-0.187,0.062-0.27c0.013-0.041,0.024-0.092,0.032-0.153c-0.129-0.051-0.279-0.064-0.45-0.039      c-0.17,0.026-0.361,0.105-0.572,0.239c-0.19,0.113-0.391,0.259-0.602,0.439c-0.211,0.179-0.435,0.392-0.673,0.638      c-0.047,0.052-0.095,0.054-0.142,0.008c-0.047-0.046-0.082-0.126-0.104-0.239c-0.026-0.113-0.028-0.231-0.006-0.354      c0.022-0.123,0.056-0.21,0.104-0.262c0.245-0.257,0.478-0.48,0.695-0.669c0.217-0.19,0.427-0.341,0.631-0.454      c0.53-0.318,0.963-0.369,1.3-0.154c0.1,0.061,0.168,0.205,0.207,0.431c0.038,0.236,0.03,0.49-0.026,0.762      c-0.056,0.272-0.123,0.557-0.201,0.854c-0.009,0.021-0.016,0.046-0.023,0.076c-0.007,0.031-0.014,0.067-0.023,0.108      c0.099-0.051,0.244-0.154,0.436-0.308c0.192-0.154,0.46-0.379,0.806-0.677c0.047-0.041,0.096-0.033,0.145,0.023      c0.049,0.056,0.083,0.146,0.101,0.269c0.022,0.113,0.022,0.228,0,0.346c-0.022,0.118-0.061,0.202-0.116,0.254      c-0.198,0.164-0.38,0.313-0.544,0.447c-0.164,0.133-0.31,0.246-0.44,0.338c-0.177,0.123-0.31,0.208-0.398,0.254      C429.743,193.299,429.676,193.322,429.628,193.322z" fill="#9CA0A6"/></g><g><path d="M143.805,193.866c-0.041,0-0.073-0.011-0.098-0.034c-0.131-0.088-0.224-0.227-0.277-0.417      c-0.054-0.189-0.089-0.338-0.105-0.45c-0.066-0.488-0.047-0.995,0.055-1.517c0.103-0.522,0.233-1.072,0.388-1.65      c0.05-0.178,0.095-0.368,0.136-0.567c0.041-0.201,0.081-0.389,0.122-0.567c0.009-0.022,0.021-0.066,0.037-0.133      c-0.049,0.045-0.108,0.111-0.179,0.199c-0.07,0.09-0.149,0.223-0.24,0.4c-0.148,0.246-0.305,0.562-0.468,0.951      c-0.164,0.388-0.333,0.795-0.506,1.217c-0.041,0.111-0.084,0.216-0.129,0.316c-0.045,0.1-0.088,0.206-0.129,0.317      c-0.074,0.178-0.162,0.26-0.265,0.25c-0.103-0.011-0.188-0.128-0.253-0.35c-0.074-0.201-0.107-0.438-0.099-0.718      c0.009-0.277,0.05-0.505,0.123-0.682c0.041-0.111,0.084-0.217,0.129-0.317s0.088-0.205,0.129-0.316      c0.198-0.488,0.392-0.951,0.586-1.384c0.193-0.434,0.382-0.806,0.567-1.117c0.186-0.312,0.37-0.54,0.555-0.684      c0.185-0.145,0.364-0.151,0.537-0.018c0.139,0.113,0.238,0.267,0.296,0.468c0.057,0.199,0.094,0.377,0.11,0.533      c0.074,0.511,0.057,1.034-0.049,1.567c-0.107,0.533-0.243,1.122-0.406,1.767c-0.017,0.045-0.035,0.117-0.056,0.217      c-0.02,0.1-0.043,0.195-0.067,0.284c0.123-0.133,0.281-0.294,0.474-0.483c0.193-0.189,0.433-0.44,0.721-0.75      c0.106-0.09,0.205-0.072,0.296,0.05c0.09,0.122,0.151,0.316,0.185,0.583c0.041,0.244,0.039,0.494-0.006,0.75      c-0.045,0.255-0.113,0.438-0.204,0.549c-0.263,0.246-0.501,0.467-0.715,0.668c-0.214,0.199-0.394,0.377-0.542,0.533      c-0.082,0.088-0.154,0.161-0.216,0.217c-0.062,0.056-0.117,0.104-0.167,0.149c-0.066,0.045-0.117,0.084-0.154,0.117      C143.885,193.849,143.846,193.866,143.805,193.866z" fill="#868EA4"/><path d="M146.541,196.766c-0.066,0-0.125-0.011-0.179-0.033c-0.054-0.023-0.109-0.057-0.167-0.1      c-0.147-0.111-0.251-0.345-0.308-0.7c-0.074-0.445-0.072-0.984,0.006-1.617s0.208-1.45,0.388-2.452      c0.033-0.176,0.065-0.377,0.098-0.6c0.033-0.221,0.07-0.433,0.111-0.634c-0.107,0.111-0.22,0.294-0.339,0.551      c-0.119,0.255-0.241,0.517-0.364,0.783c-0.082,0.179-0.175,0.246-0.277,0.201c-0.102-0.045-0.187-0.167-0.253-0.368      c-0.065-0.221-0.09-0.467-0.074-0.733c0.017-0.267,0.062-0.501,0.136-0.7c0.114-0.223,0.234-0.468,0.357-0.734      c0.123-0.267,0.255-0.488,0.394-0.668c0.337-0.467,0.645-0.589,0.925-0.366c0.131,0.066,0.23,0.289,0.296,0.668      c0.065,0.377,0.063,0.822-0.007,1.334c-0.069,0.512-0.187,1.233-0.351,2.167c-0.041,0.267-0.084,0.533-0.129,0.8      c-0.045,0.266-0.088,0.522-0.129,0.767c-0.016,0.09-0.029,0.167-0.037,0.233s-0.016,0.133-0.024,0.201      c0.082-0.023,0.187-0.09,0.314-0.201s0.275-0.284,0.443-0.517s0.364-0.549,0.586-0.95c0.222-0.4,0.476-0.901,0.764-1.501      c0.222-0.488,0.431-0.967,0.629-1.434c0.197-0.467,0.369-0.889,0.518-1.267c0.147-0.377,0.312-0.811,0.492-1.3      c0.099-0.312,0.218-0.411,0.358-0.3c0.065,0.045,0.118,0.122,0.159,0.233s0.074,0.223,0.099,0.332      c0.057,0.312,0.061,0.678,0.012,1.1c-0.049,0.423-0.139,1.079-0.271,1.967c-0.049,0.289-0.097,0.579-0.142,0.867      c-0.045,0.289-0.088,0.556-0.129,0.8c-0.008,0.111-0.02,0.233-0.037,0.366c0.115-0.043,0.239-0.166,0.37-0.366      c0.131-0.199,0.263-0.422,0.394-0.666s0.255-0.506,0.37-0.784s0.218-0.517,0.308-0.716c0.082-0.201,0.173-0.289,0.272-0.267      c0.098,0.023,0.185,0.133,0.259,0.334c0.065,0.223,0.096,0.467,0.092,0.734c-0.005,0.266-0.048,0.499-0.129,0.7      c-0.19,0.467-0.382,0.905-0.58,1.316c-0.197,0.412-0.396,0.768-0.598,1.068c-0.202,0.3-0.404,0.512-0.61,0.634      c-0.206,0.122-0.407,0.117-0.604-0.018c-0.131-0.133-0.227-0.354-0.284-0.666c-0.049-0.311-0.063-0.65-0.043-1.018      c0.021-0.366,0.068-0.838,0.141-1.416c-0.09,0.223-0.183,0.433-0.277,0.634c-0.094,0.199-0.196,0.422-0.302,0.666      C148.056,195.555,147.174,196.766,146.541,196.766z" fill="#868EA4"/><path d="M154.922,194.866c-0.099,0-0.182-0.077-0.247-0.233c-0.131-0.288-0.169-0.655-0.111-1.1      c0-0.022,0.031-0.288,0.092-0.8c0.062-0.51,0.134-1.088,0.217-1.734c0.04-0.377,0.077-0.704,0.11-0.984      c0.033-0.277,0.062-0.528,0.086-0.749c-0.173,0.178-0.37,0.377-0.592,0.6c-0.222,0.223-0.457,0.461-0.708,0.716      c-0.251,0.256-0.508,0.517-0.77,0.784c-0.264,0.266-0.518,0.522-0.764,0.767c-0.09,0.09-0.183,0.072-0.278-0.05      c-0.094-0.122-0.161-0.316-0.203-0.583c-0.033-0.244-0.027-0.494,0.018-0.75c0.045-0.255,0.117-0.438,0.216-0.549      c0.37-0.355,0.754-0.734,1.152-1.134c0.398-0.4,0.762-0.767,1.091-1.1c0.328-0.334,0.71-0.722,1.145-1.167      c0.041-0.022,0.08-0.039,0.117-0.05s0.076,0.005,0.117,0.05c0.114,0.045,0.197,0.223,0.247,0.533      c0.04,0.178,0.059,0.406,0.055,0.684s-0.027,0.673-0.068,1.183c-0.024,0.289-0.055,0.606-0.092,0.951s-0.084,0.739-0.141,1.183      c-0.008,0.09-0.017,0.167-0.025,0.233c-0.008,0.066-0.016,0.145-0.024,0.233c0.328-0.488,0.731-1,1.208-1.533      c0.09-0.111,0.181-0.117,0.271-0.016c0.09,0.099,0.156,0.271,0.198,0.516c0.049,0.246,0.053,0.501,0.012,0.768      c-0.041,0.266-0.106,0.456-0.198,0.566c-0.279,0.334-0.538,0.657-0.776,0.967c-0.238,0.312-0.443,0.589-0.616,0.834      c-0.206,0.289-0.39,0.555-0.555,0.799C155.057,194.811,154.995,194.866,154.922,194.866z" fill="#868EA4"/><path d="M157.892,196.766c-0.066,0-0.125-0.011-0.179-0.033c-0.054-0.023-0.109-0.057-0.167-0.1      c-0.147-0.111-0.251-0.345-0.308-0.7c-0.074-0.445-0.072-0.984,0.006-1.617s0.208-1.45,0.388-2.452      c0.033-0.176,0.065-0.377,0.098-0.6c0.033-0.221,0.07-0.433,0.111-0.634c-0.107,0.111-0.22,0.294-0.339,0.551      c-0.119,0.255-0.241,0.517-0.364,0.783c-0.082,0.179-0.175,0.246-0.277,0.201c-0.102-0.045-0.187-0.167-0.253-0.368      c-0.065-0.221-0.09-0.467-0.074-0.733c0.017-0.267,0.062-0.501,0.136-0.7c0.114-0.223,0.234-0.468,0.357-0.734      c0.123-0.267,0.255-0.488,0.394-0.668c0.337-0.467,0.645-0.589,0.925-0.366c0.131,0.066,0.23,0.289,0.296,0.668      c0.065,0.377,0.063,0.822-0.007,1.334c-0.069,0.512-0.187,1.233-0.351,2.167c-0.041,0.267-0.084,0.533-0.129,0.8      c-0.045,0.266-0.088,0.522-0.129,0.767c-0.016,0.09-0.029,0.167-0.037,0.233s-0.016,0.133-0.024,0.201      c0.082-0.023,0.187-0.09,0.314-0.201s0.275-0.284,0.443-0.517s0.364-0.549,0.586-0.95c0.222-0.4,0.476-0.901,0.764-1.501      c0.222-0.488,0.431-0.967,0.629-1.434c0.197-0.467,0.369-0.889,0.518-1.267c0.147-0.377,0.312-0.811,0.492-1.3      c0.099-0.312,0.218-0.411,0.358-0.3c0.065,0.045,0.118,0.122,0.159,0.233s0.074,0.223,0.099,0.332      c0.057,0.312,0.061,0.678,0.012,1.1c-0.049,0.423-0.139,1.079-0.271,1.967c-0.049,0.289-0.097,0.579-0.142,0.867      c-0.045,0.289-0.088,0.556-0.129,0.8c-0.008,0.111-0.02,0.233-0.037,0.366c0.115-0.043,0.239-0.166,0.37-0.366      c0.131-0.199,0.263-0.422,0.394-0.666c0.131-0.244,0.255-0.506,0.37-0.784c0.115-0.278,0.218-0.517,0.308-0.716      c0.082-0.201,0.173-0.289,0.272-0.267c0.098,0.023,0.185,0.133,0.259,0.334c0.065,0.223,0.096,0.467,0.092,0.734      c-0.005,0.266-0.048,0.499-0.129,0.7c-0.19,0.467-0.382,0.905-0.58,1.316c-0.197,0.412-0.396,0.768-0.598,1.068      c-0.202,0.3-0.404,0.512-0.61,0.634c-0.206,0.122-0.407,0.117-0.604-0.018c-0.131-0.133-0.227-0.354-0.284-0.666      c-0.049-0.311-0.063-0.65-0.043-1.018c0.021-0.366,0.068-0.838,0.141-1.416c-0.09,0.223-0.183,0.433-0.277,0.634      c-0.094,0.199-0.196,0.422-0.302,0.666C159.407,195.555,158.524,196.766,157.892,196.766z" fill="#868EA4"/></g><g><path d="M151.173,203.032c-0.041,0-0.073-0.011-0.098-0.034c-0.131-0.088-0.224-0.227-0.277-0.417      c-0.054-0.189-0.089-0.338-0.105-0.45c-0.066-0.488-0.047-0.995,0.055-1.517c0.103-0.522,0.233-1.072,0.388-1.65      c0.05-0.178,0.095-0.368,0.136-0.567c0.041-0.201,0.081-0.389,0.122-0.567c0.009-0.022,0.021-0.066,0.037-0.133      c-0.049,0.045-0.108,0.111-0.179,0.199c-0.07,0.09-0.149,0.223-0.24,0.4c-0.148,0.246-0.305,0.562-0.468,0.951      c-0.164,0.388-0.333,0.795-0.506,1.217c-0.041,0.111-0.084,0.216-0.129,0.316s-0.088,0.206-0.129,0.317      c-0.074,0.178-0.162,0.26-0.265,0.25c-0.103-0.011-0.188-0.128-0.253-0.35c-0.074-0.201-0.107-0.438-0.099-0.718      c0.009-0.277,0.05-0.505,0.123-0.682c0.041-0.111,0.084-0.217,0.129-0.317c0.045-0.1,0.088-0.205,0.129-0.316      c0.198-0.488,0.392-0.951,0.586-1.384c0.193-0.434,0.382-0.806,0.567-1.117c0.186-0.312,0.37-0.54,0.555-0.684      c0.185-0.145,0.364-0.151,0.537-0.018c0.139,0.113,0.238,0.267,0.296,0.468c0.057,0.199,0.094,0.377,0.11,0.533      c0.074,0.512,0.057,1.034-0.049,1.567c-0.107,0.533-0.243,1.122-0.406,1.766c-0.017,0.045-0.035,0.117-0.056,0.217      c-0.02,0.1-0.043,0.195-0.067,0.284c0.123-0.133,0.281-0.294,0.474-0.483c0.193-0.189,0.433-0.44,0.721-0.75      c0.106-0.09,0.205-0.072,0.296,0.05c0.09,0.122,0.151,0.316,0.185,0.583c0.041,0.244,0.039,0.494-0.006,0.75      c-0.045,0.255-0.113,0.438-0.204,0.549c-0.263,0.246-0.501,0.467-0.715,0.668c-0.214,0.199-0.394,0.377-0.542,0.533      c-0.082,0.088-0.154,0.161-0.216,0.217c-0.062,0.056-0.117,0.104-0.167,0.149c-0.066,0.045-0.117,0.084-0.154,0.117      C151.253,203.015,151.214,203.032,151.173,203.032z" fill="#868EA4"/><path d="M153.909,205.932c-0.066,0-0.125-0.011-0.179-0.033c-0.054-0.023-0.109-0.057-0.167-0.1      c-0.147-0.111-0.251-0.345-0.308-0.7c-0.074-0.445-0.072-0.984,0.006-1.617s0.208-1.45,0.388-2.452      c0.033-0.176,0.065-0.377,0.098-0.6c0.033-0.221,0.07-0.433,0.111-0.634c-0.107,0.111-0.22,0.294-0.339,0.551      c-0.119,0.255-0.241,0.517-0.364,0.783c-0.082,0.179-0.175,0.246-0.277,0.201c-0.102-0.045-0.187-0.167-0.253-0.368      c-0.065-0.221-0.09-0.467-0.074-0.733c0.017-0.267,0.062-0.501,0.136-0.7c0.114-0.223,0.234-0.468,0.357-0.734      c0.123-0.267,0.255-0.488,0.394-0.668c0.337-0.467,0.645-0.589,0.925-0.366c0.131,0.066,0.23,0.289,0.296,0.668      c0.065,0.377,0.063,0.822-0.007,1.334c-0.069,0.511-0.187,1.233-0.351,2.167c-0.041,0.267-0.084,0.533-0.129,0.8      c-0.045,0.266-0.088,0.522-0.129,0.767c-0.016,0.09-0.029,0.167-0.037,0.233s-0.016,0.133-0.024,0.201      c0.082-0.023,0.187-0.09,0.314-0.201s0.275-0.284,0.443-0.517c0.169-0.233,0.364-0.549,0.586-0.95      c0.222-0.4,0.476-0.901,0.764-1.501c0.222-0.488,0.431-0.967,0.629-1.434c0.197-0.467,0.369-0.889,0.518-1.267      c0.147-0.377,0.312-0.811,0.492-1.3c0.099-0.312,0.218-0.411,0.358-0.3c0.065,0.045,0.118,0.122,0.159,0.233      s0.074,0.223,0.099,0.332c0.057,0.312,0.061,0.678,0.012,1.1c-0.049,0.423-0.139,1.079-0.271,1.967      c-0.049,0.289-0.097,0.579-0.142,0.867c-0.045,0.289-0.088,0.556-0.129,0.8c-0.008,0.111-0.02,0.233-0.037,0.366      c0.115-0.043,0.239-0.166,0.37-0.366c0.131-0.199,0.263-0.422,0.394-0.666s0.255-0.506,0.37-0.784s0.218-0.517,0.308-0.716      c0.082-0.201,0.173-0.289,0.272-0.267c0.098,0.023,0.185,0.133,0.259,0.334c0.065,0.223,0.096,0.467,0.092,0.734      c-0.005,0.266-0.048,0.499-0.129,0.7c-0.19,0.467-0.382,0.905-0.58,1.316c-0.197,0.412-0.396,0.768-0.598,1.068      s-0.404,0.512-0.61,0.634c-0.206,0.122-0.407,0.117-0.604-0.018c-0.131-0.133-0.227-0.354-0.284-0.666      c-0.049-0.311-0.063-0.65-0.043-1.018c0.021-0.366,0.068-0.838,0.141-1.416c-0.09,0.223-0.183,0.433-0.277,0.634      c-0.094,0.199-0.196,0.422-0.302,0.666C155.424,204.721,154.542,205.932,153.909,205.932z" fill="#868EA4"/><path d="M162.29,204.031c-0.099,0-0.182-0.077-0.247-0.233c-0.131-0.288-0.168-0.655-0.111-1.1      c0-0.022,0.031-0.288,0.092-0.8c0.062-0.51,0.134-1.088,0.217-1.734c0.04-0.377,0.077-0.704,0.11-0.984      c0.033-0.277,0.062-0.528,0.086-0.749c-0.173,0.178-0.37,0.377-0.592,0.6c-0.222,0.223-0.457,0.461-0.708,0.716      c-0.251,0.256-0.508,0.517-0.77,0.784c-0.264,0.266-0.518,0.522-0.764,0.767c-0.09,0.09-0.183,0.072-0.278-0.05      c-0.094-0.122-0.161-0.316-0.203-0.583c-0.033-0.244-0.027-0.494,0.018-0.75c0.045-0.255,0.117-0.438,0.216-0.549      c0.37-0.355,0.754-0.734,1.152-1.134c0.398-0.4,0.762-0.767,1.091-1.1c0.328-0.334,0.71-0.722,1.145-1.167      c0.041-0.022,0.08-0.039,0.117-0.05c0.037-0.011,0.076,0.005,0.117,0.05c0.114,0.045,0.197,0.223,0.247,0.533      c0.04,0.178,0.059,0.406,0.055,0.684c-0.004,0.278-0.027,0.673-0.068,1.183c-0.024,0.289-0.055,0.606-0.092,0.951      c-0.037,0.345-0.084,0.739-0.141,1.183c-0.008,0.09-0.017,0.167-0.025,0.233c-0.008,0.066-0.016,0.145-0.024,0.233      c0.328-0.488,0.731-1,1.208-1.533c0.09-0.111,0.181-0.117,0.271-0.016c0.09,0.099,0.156,0.271,0.198,0.516      c0.049,0.246,0.053,0.501,0.012,0.768c-0.041,0.266-0.106,0.456-0.198,0.566c-0.279,0.334-0.538,0.657-0.776,0.967      c-0.238,0.312-0.443,0.589-0.616,0.834c-0.206,0.289-0.39,0.555-0.555,0.799C162.425,203.977,162.363,204.031,162.29,204.031z" fill="#868EA4"/><path d="M165.26,205.932c-0.066,0-0.125-0.011-0.179-0.033c-0.054-0.023-0.109-0.057-0.167-0.1      c-0.147-0.111-0.251-0.345-0.308-0.7c-0.074-0.445-0.072-0.984,0.006-1.617s0.208-1.45,0.388-2.452      c0.033-0.176,0.065-0.377,0.098-0.6c0.033-0.221,0.07-0.433,0.111-0.634c-0.107,0.111-0.22,0.294-0.339,0.551      c-0.119,0.255-0.241,0.517-0.364,0.783c-0.082,0.179-0.175,0.246-0.277,0.201c-0.102-0.045-0.187-0.167-0.253-0.368      c-0.065-0.221-0.09-0.467-0.074-0.733c0.017-0.267,0.062-0.501,0.136-0.7c0.114-0.223,0.234-0.468,0.357-0.734      c0.123-0.267,0.255-0.488,0.394-0.668c0.337-0.467,0.645-0.589,0.925-0.366c0.131,0.066,0.23,0.289,0.296,0.668      c0.065,0.377,0.063,0.822-0.007,1.334c-0.069,0.511-0.187,1.233-0.351,2.167c-0.041,0.267-0.084,0.533-0.129,0.8      c-0.045,0.266-0.088,0.522-0.129,0.767c-0.016,0.09-0.029,0.167-0.037,0.233s-0.016,0.133-0.024,0.201      c0.082-0.023,0.187-0.09,0.314-0.201s0.275-0.284,0.443-0.517c0.169-0.233,0.364-0.549,0.586-0.95      c0.222-0.4,0.476-0.901,0.764-1.501c0.222-0.488,0.431-0.967,0.629-1.434c0.197-0.467,0.369-0.889,0.518-1.267      c0.147-0.377,0.312-0.811,0.492-1.3c0.099-0.312,0.218-0.411,0.358-0.3c0.065,0.045,0.118,0.122,0.159,0.233      s0.074,0.223,0.099,0.332c0.057,0.312,0.061,0.678,0.012,1.1c-0.049,0.423-0.139,1.079-0.271,1.967      c-0.049,0.289-0.097,0.579-0.142,0.867c-0.045,0.289-0.088,0.556-0.129,0.8c-0.008,0.111-0.02,0.233-0.037,0.366      c0.115-0.043,0.239-0.166,0.37-0.366c0.131-0.199,0.263-0.422,0.394-0.666c0.131-0.244,0.255-0.506,0.37-0.784      c0.115-0.278,0.218-0.517,0.308-0.716c0.082-0.201,0.173-0.289,0.272-0.267c0.098,0.023,0.185,0.133,0.259,0.334      c0.065,0.223,0.096,0.467,0.092,0.734c-0.005,0.266-0.048,0.499-0.129,0.7c-0.19,0.467-0.382,0.905-0.58,1.316      c-0.197,0.412-0.396,0.768-0.598,1.068s-0.404,0.512-0.61,0.634c-0.206,0.122-0.407,0.117-0.604-0.018      c-0.131-0.133-0.227-0.354-0.284-0.666c-0.049-0.311-0.063-0.65-0.043-1.018c0.021-0.366,0.068-0.838,0.141-1.416      c-0.09,0.223-0.183,0.433-0.277,0.634c-0.094,0.199-0.196,0.422-0.302,0.666C166.775,204.721,165.893,205.932,165.26,205.932z" fill="#868EA4"/></g><g><g><path d="M155.94,221.238c-0.027,0-0.053-0.006-0.077-0.018c-0.075-0.023-0.128-0.089-0.16-0.199       c-0.024-0.098-0.018-0.208,0.017-0.329c0.036-0.121,0.087-0.257,0.154-0.407c0.024-0.052,0.046-0.105,0.068-0.16       c0.022-0.055,0.04-0.105,0.056-0.152c0.012-0.023,0.022-0.052,0.029-0.086c-0.118-0.029-0.255-0.036-0.412-0.022       c-0.156,0.014-0.331,0.059-0.524,0.134c-0.174,0.064-0.358,0.146-0.551,0.247c-0.193,0.101-0.399,0.22-0.616,0.359       c-0.043,0.029-0.087,0.031-0.13,0.005c-0.043-0.026-0.075-0.071-0.095-0.134c-0.024-0.063-0.026-0.13-0.006-0.199       c0.02-0.069,0.051-0.118,0.095-0.147c0.225-0.144,0.437-0.27,0.637-0.376c0.199-0.107,0.391-0.192,0.577-0.255       c0.485-0.179,0.882-0.208,1.19-0.087c0.091,0.034,0.154,0.115,0.19,0.242c0.035,0.133,0.027,0.276-0.024,0.428       c-0.052,0.153-0.113,0.313-0.184,0.48c-0.008,0.012-0.015,0.026-0.021,0.043c-0.006,0.018-0.013,0.038-0.021,0.061       c0.091-0.029,0.224-0.087,0.4-0.173c0.175-0.087,0.421-0.213,0.737-0.38c0.043-0.023,0.088-0.019,0.133,0.013       s0.076,0.082,0.092,0.151c0.02,0.063,0.02,0.128,0,0.195c-0.02,0.066-0.055,0.114-0.107,0.143       c-0.182,0.092-0.348,0.176-0.498,0.251c-0.15,0.075-0.284,0.138-0.402,0.19c-0.162,0.069-0.283,0.117-0.364,0.143       S155.983,221.238,155.94,221.238z" fill="#868EA4"/><path d="M158.7,221.325c-0.048,0-0.087-0.02-0.119-0.061c-0.063-0.075-0.081-0.17-0.053-0.285       c0-0.006,0.015-0.075,0.044-0.208c0.03-0.132,0.065-0.282,0.104-0.45c0.019-0.098,0.037-0.183,0.053-0.255       c0.016-0.072,0.03-0.137,0.041-0.194c-0.083,0.046-0.178,0.098-0.284,0.156c-0.107,0.058-0.22,0.12-0.34,0.186       c-0.12,0.067-0.244,0.134-0.37,0.203c-0.127,0.069-0.249,0.135-0.367,0.199c-0.043,0.023-0.088,0.019-0.133-0.013       c-0.045-0.032-0.078-0.082-0.097-0.151c-0.016-0.063-0.013-0.128,0.009-0.195c0.022-0.066,0.056-0.114,0.104-0.143       c0.178-0.092,0.362-0.19,0.554-0.294c0.191-0.104,0.366-0.199,0.524-0.285c0.158-0.087,0.341-0.187,0.55-0.303       c0.02-0.006,0.039-0.01,0.056-0.013c0.018-0.003,0.037,0.001,0.056,0.013c0.055,0.012,0.094,0.058,0.119,0.138       c0.019,0.046,0.028,0.105,0.027,0.177c-0.002,0.072-0.013,0.175-0.033,0.307c-0.012,0.075-0.027,0.157-0.044,0.247       c-0.018,0.089-0.04,0.192-0.068,0.307c-0.004,0.023-0.008,0.043-0.012,0.061c-0.004,0.017-0.008,0.038-0.012,0.061       c0.158-0.127,0.351-0.259,0.58-0.398c0.043-0.029,0.087-0.03,0.13-0.004c0.043,0.026,0.075,0.07,0.095,0.134       c0.024,0.064,0.026,0.13,0.006,0.199c-0.02,0.069-0.051,0.118-0.095,0.147c-0.134,0.087-0.258,0.17-0.373,0.251       c-0.114,0.081-0.213,0.153-0.296,0.216c-0.099,0.075-0.187,0.144-0.267,0.207C158.765,221.31,158.735,221.325,158.7,221.325z" fill="#868EA4"/><path d="M160.399,221.835c-0.02,0-0.04-0.001-0.059-0.004c-0.02-0.003-0.041-0.007-0.065-0.013       c-0.047-0.023-0.087-0.072-0.119-0.147c-0.012-0.034-0.02-0.076-0.024-0.125s0.001-0.122,0.015-0.221       c0.014-0.098,0.038-0.232,0.071-0.402c0.033-0.17,0.08-0.391,0.139-0.662c-0.091,0.046-0.191,0.101-0.302,0.164       c-0.111,0.064-0.225,0.127-0.344,0.19c-0.043,0.023-0.088,0.019-0.134-0.013c-0.045-0.032-0.078-0.082-0.097-0.151       c-0.016-0.063-0.013-0.128,0.009-0.195c0.022-0.066,0.056-0.114,0.104-0.143c0.126-0.069,0.249-0.135,0.367-0.199       c0.119-0.063,0.223-0.119,0.314-0.169c0.091-0.049,0.191-0.105,0.302-0.169c0.04-0.023,0.077-0.026,0.112-0.009       c0.052,0.018,0.089,0.061,0.113,0.13c0.02,0.052,0.027,0.098,0.021,0.138c-0.006,0.04-0.013,0.084-0.021,0.13       c-0.008,0.023-0.014,0.048-0.018,0.074c-0.004,0.026-0.01,0.056-0.018,0.091c-0.027,0.098-0.056,0.218-0.086,0.359       c-0.029,0.141-0.06,0.284-0.092,0.428c-0.02,0.081-0.036,0.15-0.048,0.208c-0.012,0.058-0.022,0.109-0.029,0.156       c0.075-0.023,0.184-0.089,0.326-0.199c0.122-0.098,0.253-0.21,0.391-0.337c0.138-0.127,0.282-0.265,0.432-0.415       c0.031-0.029,0.063-0.058,0.094-0.087c0.032-0.029,0.063-0.061,0.095-0.095c0.043-0.04,0.089-0.053,0.136-0.039       c0.048,0.014,0.087,0.053,0.119,0.117c0.027,0.064,0.037,0.128,0.027,0.195c-0.01,0.067-0.037,0.12-0.08,0.16       c-0.032,0.034-0.065,0.068-0.098,0.099c-0.034,0.032-0.068,0.065-0.104,0.1c-0.15,0.144-0.296,0.283-0.438,0.415       c-0.142,0.133-0.277,0.248-0.403,0.346C160.753,221.737,160.55,221.835,160.399,221.835z" fill="#868EA4"/><path d="M162.437,221.818c-0.032,0-0.06-0.003-0.086-0.008c-0.026-0.006-0.053-0.015-0.08-0.026       c-0.071-0.029-0.12-0.089-0.148-0.182c-0.036-0.115-0.035-0.255,0.003-0.42c0.038-0.164,0.1-0.376,0.187-0.636       c0.016-0.046,0.031-0.098,0.047-0.156c0.016-0.057,0.034-0.112,0.054-0.164c-0.052,0.029-0.106,0.076-0.163,0.143       c-0.057,0.066-0.116,0.134-0.175,0.203c-0.04,0.046-0.084,0.064-0.133,0.052c-0.049-0.012-0.09-0.043-0.121-0.095       c-0.031-0.057-0.043-0.121-0.036-0.19c0.008-0.069,0.03-0.13,0.066-0.182c0.055-0.058,0.112-0.121,0.172-0.19       c0.059-0.069,0.122-0.127,0.189-0.173c0.162-0.121,0.31-0.153,0.444-0.095c0.063,0.017,0.11,0.075,0.142,0.173       c0.031,0.098,0.03,0.213-0.003,0.346c-0.033,0.133-0.09,0.32-0.169,0.562c-0.02,0.069-0.04,0.138-0.062,0.208       c-0.022,0.069-0.042,0.135-0.062,0.199c-0.008,0.023-0.014,0.043-0.018,0.061c-0.004,0.017-0.008,0.034-0.012,0.052       c0.04-0.006,0.09-0.023,0.151-0.052c0.061-0.029,0.132-0.074,0.213-0.134c0.081-0.061,0.175-0.143,0.281-0.246       c0.107-0.104,0.229-0.234,0.367-0.389c0.107-0.127,0.207-0.251,0.302-0.372c0.094-0.121,0.177-0.231,0.249-0.329       c0.071-0.098,0.15-0.21,0.237-0.337c0.048-0.081,0.105-0.107,0.172-0.078c0.031,0.012,0.057,0.032,0.077,0.061       c0.02,0.029,0.036,0.058,0.048,0.086c0.027,0.081,0.029,0.176,0.006,0.285c-0.024,0.11-0.067,0.28-0.13,0.51       c-0.024,0.075-0.047,0.15-0.068,0.225c-0.022,0.075-0.042,0.144-0.062,0.208c-0.004,0.029-0.01,0.061-0.018,0.095       c0.055-0.011,0.115-0.043,0.178-0.095c0.063-0.052,0.126-0.109,0.189-0.173c0.063-0.063,0.122-0.131,0.178-0.203       c0.055-0.072,0.105-0.134,0.148-0.186c0.04-0.052,0.083-0.075,0.131-0.069c0.047,0.006,0.089,0.035,0.124,0.087       c0.031,0.058,0.046,0.121,0.044,0.19c-0.002,0.069-0.023,0.13-0.062,0.182c-0.091,0.121-0.184,0.235-0.279,0.341       c-0.094,0.107-0.19,0.199-0.287,0.277c-0.097,0.078-0.194,0.133-0.293,0.164c-0.099,0.032-0.196,0.03-0.29-0.005       c-0.063-0.035-0.109-0.092-0.136-0.173c-0.024-0.081-0.03-0.169-0.021-0.264c0.01-0.095,0.033-0.218,0.068-0.367       c-0.043,0.058-0.088,0.112-0.133,0.164c-0.045,0.052-0.094,0.109-0.145,0.173C163.165,221.503,162.741,221.818,162.437,221.818       z" fill="#868EA4"/><path d="M167.192,221.238c-0.027,0-0.053-0.006-0.077-0.018c-0.075-0.023-0.128-0.089-0.16-0.199       c-0.024-0.098-0.018-0.208,0.017-0.329c0.036-0.121,0.087-0.257,0.154-0.407c0.024-0.052,0.046-0.105,0.068-0.16       c0.022-0.055,0.04-0.105,0.056-0.152c0.012-0.023,0.022-0.052,0.029-0.086c-0.118-0.029-0.255-0.036-0.412-0.022       c-0.156,0.014-0.331,0.059-0.524,0.134c-0.174,0.064-0.358,0.146-0.551,0.247c-0.193,0.101-0.399,0.22-0.616,0.359       c-0.043,0.029-0.087,0.031-0.13,0.005c-0.043-0.026-0.075-0.071-0.095-0.134c-0.024-0.063-0.026-0.13-0.006-0.199       c0.02-0.069,0.051-0.118,0.095-0.147c0.225-0.144,0.437-0.27,0.637-0.376c0.199-0.107,0.391-0.192,0.577-0.255       c0.485-0.179,0.882-0.208,1.19-0.087c0.091,0.034,0.154,0.115,0.19,0.242c0.035,0.133,0.027,0.276-0.024,0.428       c-0.052,0.153-0.113,0.313-0.184,0.48c-0.008,0.012-0.015,0.026-0.021,0.043c-0.006,0.018-0.013,0.038-0.021,0.061       c0.091-0.029,0.224-0.087,0.4-0.173c0.175-0.087,0.421-0.213,0.737-0.38c0.043-0.023,0.088-0.019,0.133,0.013       s0.076,0.082,0.092,0.151c0.02,0.063,0.02,0.128,0,0.195c-0.02,0.066-0.055,0.114-0.107,0.143       c-0.182,0.092-0.348,0.176-0.498,0.251c-0.15,0.075-0.284,0.138-0.402,0.19c-0.162,0.069-0.283,0.117-0.364,0.143       C167.298,221.225,167.236,221.238,167.192,221.238z" fill="#868EA4"/></g></g><circle cx="161.874" cy="212.11" fill="#FDFDFD" r="3.317"/><ellipse cx="147.218" cy="178.973" fill="#85242A" rx="1.938" ry="6.226" transform="matrix(0.803 0.596 -0.596 0.803 135.6731 -52.4815)"/><ellipse cx="157.034" cy="178.973" fill="#266E76" rx="1.938" ry="6.226" transform="matrix(0.803 0.596 -0.596 0.803 137.607 -58.3318)"/><ellipse cx="166.85" cy="178.973" fill="#1761A1" rx="1.938" ry="6.226" transform="matrix(0.803 0.596 -0.596 0.803 139.5409 -64.182)"/><path d="M455.94,332.879c0,0-2.334,23.841-37.397,27.112c-9.914,0.923-30.292,2.347-56.866,3.604     c-0.103,0-0.192,0.013-0.295,0.013c-29.497,1.398-66.561,2.616-105.382,2.783c-38.795-0.167-75.846-1.385-105.331-2.77     c-0.115-0.013-0.231-0.013-0.333-0.026c-26.573-1.257-46.965-2.68-56.878-3.604c-20.315-1.898-29.651-10.696-33.896-17.775     c5.463,3.565,13.094,6.451,23.752,7.451c9.914,0.923,30.305,2.347,56.878,3.604c0.103,0.013,0.218,0.013,0.333,0.026     c29.484,1.385,66.535,2.603,105.331,2.77c38.821-0.167,75.885-1.385,105.382-2.783c0.103,0,0.192-0.013,0.295-0.013     c26.573-1.257,46.952-2.68,56.865-3.604c35.063-3.27,37.397-27.112,37.397-27.112c9.349-70.126-0.936-141.651-3.27-159.426     c-0.346-2.616-0.975-4.873-1.808-6.81c4.643,2.026,10.581,6.656,11.953,17.134C455.004,191.229,465.289,262.753,455.94,332.879z" fill="#293346"/></g></g></g><g/><g/><g/><g/><g/><g/></svg>