<?xml version="1.0" ?><!DOCTYPE svg  PUBLIC '-//W3C//DTD SVG 1.1//EN'  'http://www.w3.org/Graphics/SVG/1.1/DTD/svg11.dtd'><svg enable-background="new 0 0 512 512" height="512px" id="Capa_1" version="1.1" viewBox="0 0 512 512" width="512px" xml:space="preserve" xmlns="http://www.w3.org/2000/svg" xmlns:xlink="http://www.w3.org/1999/xlink"><g><g><path d="M512,256v0.092c0,4.659-0.123,9.298-0.379,13.896c-0.236,4.454-0.594,8.878-1.055,13.261    c-0.276,2.642-0.594,5.263-0.952,7.864c-0.451,3.267-0.952,6.502-1.526,9.728c-17.643,99.809-93.112,179.681-190.566,203.715    c-0.031,0.01-0.061,0.01-0.092,0.02c-11.203,2.765-22.692,4.782-34.417,6.011C274.135,511.519,265.124,512,256,512    C114.616,512,0,397.384,0,256S114.616,0,256,0c128.102,0,234.23,94.095,253.03,216.934c1.536,10.005,2.488,20.204,2.826,30.556    c0.051,1.434,0.082,2.867,0.102,4.301C511.99,253.194,512,254.597,512,256z" fill="#D08474"/><path d="M512,256v0.092c0,4.659-0.123,9.298-0.379,13.896c-0.236,4.454-0.594,8.878-1.055,13.261    c-0.276,2.642-0.594,5.263-0.952,7.864c-0.451,3.267-0.952,6.502-1.526,9.728c-17.643,99.809-93.112,179.681-190.566,203.715    c-0.031,0.01-0.061,0.01-0.092,0.02c-11.203,2.765-22.692,4.782-34.417,6.011L58.767,338.965L453.325,173.22l55.706,43.715    c1.536,10.005,2.488,20.204,2.826,30.556c0.051,1.434,0.082,2.867,0.102,4.301C511.99,253.194,512,254.597,512,256z" fill="#1E1E1E" opacity="0.1"/></g><g><path d="M456.546,179.293v153.594c0,3.842-2.923,6.96-6.529,6.96H61.982c-3.605,0-6.528-3.118-6.528-6.96V179.293    c0-3.842,2.923-6.96,6.528-6.96h388.036C453.623,172.333,456.546,175.452,456.546,179.293z" fill="#39393A"/><polygon fill="#1E1E1E" points="456.546,222.557 456.546,313.789 227.325,313.789 227.325,332.372 74.761,332.372 74.761,179.795     227.325,179.795 227.325,222.557   "/><path d="M87.999,195.733l60.093,60.357l-60.093,60.343c-0.501-0.96-0.78-2.06-0.78-3.216v-114.27    C87.219,197.793,87.497,196.694,87.999,195.733z" fill="#9598A1"/><polygon fill="#9598A1" points="153.994,256.09 151.043,259.042 148.092,256.09 151.043,253.126   "/><path d="M211.136,319.385c-0.96,0.501-2.06,0.793-3.229,0.793H94.179c-1.169,0-2.269-0.292-3.229-0.793    l60.093-60.344L211.136,319.385z" fill="#9598A1"/><path d="M211.136,192.782l-60.093,60.343L90.95,192.782c0.96-0.501,2.06-0.793,3.229-0.793h113.727    C209.075,191.989,210.175,192.281,211.136,192.782z" fill="#9598A1"/><path d="M214.866,198.949v114.27c0,1.155-0.278,2.255-0.78,3.216l-60.093-60.343l60.093-60.357    C214.588,196.694,214.866,197.793,214.866,198.949z" fill="#9598A1"/><g><path d="M215.256,183.831h-15.382c0.014,0.028,0.014,0.042,0.028,0.07c0.07,0.209,0.111,0.432,0.111,0.626     c0,0.251-0.042,0.487-0.153,0.696h15.396c3.452,0,6.264,2.798,6.264,6.264v129.206c0,3.452-2.812,6.264-6.264,6.264H86.829     c-3.452,0-6.264-2.812-6.264-6.264V191.487c0-3.466,2.812-6.264,6.264-6.264h18.068c-0.097-0.223-0.139-0.459-0.139-0.696     c0-0.237,0.042-0.473,0.153-0.696H86.829c-4.218,0-7.656,3.424-7.656,7.656v129.206c0,4.218,3.438,7.656,7.656,7.656h128.427     c4.218,0,7.656-3.438,7.656-7.656V191.487C222.912,187.256,219.474,183.831,215.256,183.831z M132.752,184.277     c-0.251,0.153-0.501,0.306-0.766,0.432c-0.306,0.195-0.599,0.362-0.877,0.515h1.824c0.028-0.125,0.07-0.251,0.111-0.39     c0.07-0.195,0.167-0.418,0.306-0.682c0.014-0.042,0.042-0.084,0.07-0.139c0.028-0.056,0.056-0.111,0.097-0.167     C133.253,183.985,133.002,184.124,132.752,184.277z M142.732,184.277c-0.251,0.153-0.501,0.306-0.766,0.432     c-0.306,0.195-0.599,0.362-0.877,0.515h1.837c0.014-0.125,0.056-0.251,0.097-0.39c0.056-0.195,0.167-0.418,0.292-0.682     c0.028-0.042,0.056-0.084,0.084-0.139c0.028-0.056,0.056-0.111,0.097-0.167C143.234,183.985,142.983,184.124,142.732,184.277z      M174.108,184.277c-0.237,0.153-0.501,0.306-0.752,0.432c-0.306,0.195-0.599,0.362-0.877,0.515h1.81     c0.028-0.125,0.07-0.251,0.111-0.39c0.07-0.195,0.167-0.418,0.306-0.682c0.028-0.042,0.042-0.084,0.07-0.139     c0.028-0.056,0.07-0.111,0.097-0.167C174.609,183.985,174.359,184.124,174.108,184.277z" fill="#795559"/></g><path d="M203.195,283.947c0,13.416-10.876,24.292-24.292,24.292h-55.721c-13.416,0-24.292-10.876-24.292-24.292    v-55.721c0-13.416,10.876-24.292,24.292-24.292h55.721c13.416,0,24.292,10.876,24.292,24.292V283.947z" fill="#1F1F1F"/><path d="M197.69,281.006c0,12-9.728,21.728-21.728,21.728h-49.839c-12,0-21.728-9.728-21.728-21.728v-49.839    c0-12,9.728-21.728,21.728-21.728h49.839c12,0,21.728,9.728,21.728,21.728V281.006z" fill="#3B3B42"/><rect fill="#BFCAD9" height="167.513" opacity="0.1" width="5.148" x="69.613" y="172.33"/><polygon fill="#4A4A56" opacity="0.5" points="456.546,217.407 456.546,222.557 227.088,222.557 227.088,172.152 232.225,172.152     232.225,217.407   "/><polygon fill="#161618" opacity="0.5" points="456.546,313.859 456.546,319.009 232.225,319.009 232.225,339.667 227.088,339.667     227.088,313.859   "/><g><polygon fill="#BBBBBB" points="231.729,244.518 231.729,244.518 232.06,308.551 231.397,308.551    "/><polygon fill="#BBBBBB" points="294.616,244.518 294.616,244.518 294.947,308.551 294.285,308.551    "/><polygon fill="#BBBBBB" points="290.424,244.518 290.424,244.518 290.755,308.551 290.093,308.551    "/><polygon fill="#BBBBBB" points="282.039,244.518 282.039,244.518 282.37,308.551 281.708,308.551    "/><polygon fill="#BBBBBB" points="265.269,244.518 265.269,244.518 265.6,308.551 264.938,308.551    "/><polygon fill="#BBBBBB" points="248.499,244.518 248.499,244.518 248.83,308.551 248.168,308.551    "/><polygon fill="#BBBBBB" points="235.921,244.518 235.921,244.518 236.252,308.551 235.59,308.551    "/><polygon fill="#BBBBBB" points="240.114,244.518 240.114,244.518 240.445,308.551 239.783,308.551    "/><polygon fill="#BBBBBB" points="244.306,244.518 244.306,244.518 244.637,308.551 243.975,308.551    "/><polygon fill="#BBBBBB" points="252.691,244.518 252.691,244.518 253.022,308.551 252.36,308.551    "/><polygon fill="#BBBBBB" points="256.884,244.518 256.884,244.518 257.215,308.551 256.553,308.551    "/><polygon fill="#BBBBBB" points="261.076,244.518 261.076,244.518 261.407,308.551 260.745,308.551    "/><polygon fill="#BBBBBB" points="269.461,244.518 269.461,244.518 269.792,308.551 269.13,308.551    "/><polygon fill="#BBBBBB" points="273.654,244.518 273.654,244.518 273.985,308.551 273.323,308.551    "/><polygon fill="#BBBBBB" points="277.846,244.518 277.846,244.518 278.177,308.551 277.515,308.551    "/><polygon fill="#BBBBBB" points="286.231,244.518 286.231,244.518 286.562,308.551 285.9,308.551    "/></g><rect fill="#9598A1" height="64.032" width="64.032" x="298.909" y="244.518"/><rect fill="#9598A1" height="64.032" width="64.032" x="370.475" y="244.518"/><circle cx="330.925" cy="276.534" fill="#212221" r="26.2"/><path d="M330.925,298.558c-12.143,0-22.023-9.88-22.023-22.023c0-12.143,9.88-22.023,22.023-22.023    c12.145,0,22.025,9.88,22.025,22.023C352.949,288.678,343.069,298.558,330.925,298.558z" fill="#3B3B42"/><circle cx="402.491" cy="276.534" fill="#212221" r="26.2"/><path d="M402.492,298.558c-12.145,0-22.025-9.88-22.025-22.023c0-12.143,9.88-22.023,22.025-22.023    c12.143,0,22.023,9.88,22.023,22.023C424.515,288.678,414.635,298.558,402.492,298.558z" fill="#3B3B42"/><path d="M362.941,239.973c0,0.605-0.49,1.095-1.095,1.095h-61.842c-0.605,0-1.095-0.49-1.095-1.095v-10.034    c0-0.605,0.49-1.095,1.095-1.095h61.842c0.605,0,1.095,0.49,1.095,1.095V239.973z" fill="#795559"/><path d="M434.508,239.973c0,0.605-0.49,1.095-1.095,1.095H371.57c-0.605,0-1.095-0.49-1.095-1.095v-10.034    c0-0.605,0.49-1.095,1.095-1.095h61.842c0.605,0,1.095,0.49,1.095,1.095V239.973z" fill="#795559"/><g><path d="M112.433,188.082c-0.112,0-0.217-0.003-0.314-0.008c-0.097-0.005-0.171-0.012-0.222-0.023     c-0.286-0.082-0.542-0.212-0.766-0.39c-0.224-0.178-0.393-0.396-0.505-0.651c-0.071-0.143-0.118-0.273-0.138-0.39     c-0.02-0.117-0.031-0.238-0.031-0.36c0-0.163,0.015-0.321,0.046-0.474c-0.092-0.061-0.189-0.128-0.291-0.198     c-0.102-0.072-0.179-0.148-0.23-0.23c-0.245-0.326-0.368-0.674-0.368-1.041c0-0.245,0.054-0.477,0.16-0.697     c0.107-0.219,0.253-0.416,0.437-0.589c0.051-0.052,0.145-0.148,0.283-0.291c0.138-0.143,0.263-0.285,0.375-0.43l0.307-0.337     c0.143-0.152,0.288-0.309,0.436-0.466c0.147-0.158,0.293-0.309,0.436-0.451c0.163-0.143,0.306-0.266,0.429-0.368     c0.122-0.102,0.23-0.184,0.321-0.245c0.53-0.326,1.081-0.428,1.654-0.306c0.592,0.152,0.985,0.485,1.179,0.995l-0.015-0.015     c0.041,0.091,0.074,0.181,0.099,0.268c0.026,0.087,0.044,0.175,0.054,0.268c0.143-0.154,0.271-0.299,0.383-0.436     s0.215-0.262,0.307-0.375l0.214-0.245c0.02-0.02,0.036-0.041,0.046-0.061c0.01-0.011,0.02-0.026,0.031-0.046     c0.234-0.276,0.513-0.472,0.835-0.59c0.321-0.117,0.645-0.135,0.972-0.053c0.224,0.061,0.432,0.174,0.621,0.337     c0.188,0.163,0.345,0.352,0.467,0.565c0.143,0.328,0.207,0.605,0.191,0.835c-0.015,0.23-0.033,0.386-0.053,0.468     c-0.011,0.05-0.023,0.099-0.039,0.145c-0.015,0.046-0.028,0.09-0.038,0.13l-0.092,0.291l-0.016,0.045     c0.204,0.02,0.406,0.077,0.605,0.169c0.199,0.092,0.37,0.22,0.513,0.383c0.133,0.163,0.232,0.343,0.298,0.536     c0.067,0.194,0.099,0.383,0.099,0.567c0,0.51-0.209,0.945-0.627,1.301l-0.077,0.077c-0.214,0.184-0.442,0.367-0.681,0.551     c-0.24,0.184-0.493,0.358-0.758,0.521c-0.603,0.358-1.195,0.536-1.777,0.536c-0.245,0-0.49-0.035-0.735-0.107     c-0.184-0.039-0.355-0.109-0.513-0.207c-0.158-0.097-0.294-0.216-0.406-0.359c-0.122,0.102-0.24,0.196-0.352,0.283     c-0.112,0.087-0.24,0.177-0.383,0.268h0.015c-0.234,0.163-0.459,0.302-0.674,0.413c-0.214,0.113-0.419,0.209-0.612,0.291     c-0.173,0.072-0.358,0.122-0.551,0.154C112.791,188.067,112.606,188.082,112.433,188.082z" fill="#EDEBEB"/><path d="M122.953,187.087c-0.378,0-0.699-0.113-0.964-0.337c-0.245-0.194-0.414-0.439-0.506-0.735     c-0.092-0.296-0.097-0.591-0.015-0.888c0-0.011,0.005-0.026,0.015-0.046c0.01-0.02,0.016-0.035,0.016-0.046     c0-0.01,0.005-0.024,0.015-0.046c-0.561,0.337-1.072,0.593-1.531,0.767c-0.194,0.071-0.393,0.102-0.597,0.091     c-0.204-0.01-0.393-0.056-0.567-0.137c-0.173-0.082-0.332-0.197-0.474-0.345c-0.143-0.147-0.25-0.318-0.321-0.512     c-0.082-0.193-0.115-0.393-0.1-0.597c0.016-0.204,0.064-0.396,0.145-0.575c0.082-0.178,0.197-0.338,0.345-0.481     c0.148-0.144,0.319-0.25,0.513-0.322c0.174-0.061,0.467-0.209,0.88-0.445c0.414-0.234,0.977-0.638,1.692-1.208     c0.214-0.174,0.411-0.337,0.589-0.491c0.179-0.154,0.334-0.291,0.467-0.413c0.153-0.143,0.296-0.276,0.429-0.398     c0.419-0.398,0.909-0.526,1.47-0.383c0.204,0.052,0.387,0.144,0.551,0.276c0.163,0.133,0.296,0.287,0.398,0.459     c0.163,0.285,0.235,0.576,0.215,0.873c-0.02,0.296-0.077,0.639-0.169,1.026c-0.02,0.102-0.044,0.201-0.069,0.299     c-0.026,0.097-0.054,0.201-0.084,0.313c0.326-0.02,0.627,0.052,0.903,0.215c0.275,0.163,0.485,0.398,0.627,0.704     c0.082,0.194,0.123,0.391,0.123,0.59s-0.033,0.39-0.1,0.574c-0.067,0.185-0.169,0.351-0.306,0.498     c-0.138,0.148-0.304,0.264-0.498,0.345c-0.337,0.154-0.646,0.299-0.926,0.436c-0.281,0.137-0.526,0.262-0.735,0.375     c-0.209,0.113-0.375,0.201-0.498,0.268c-0.122,0.067-0.189,0.099-0.199,0.099C123.443,187.02,123.197,187.087,122.953,187.087z" fill="#EDEBEB"/><path d="M128.909,187.087c-0.378,0-0.699-0.113-0.964-0.337c-0.245-0.194-0.414-0.439-0.506-0.735     c-0.092-0.296-0.097-0.591-0.015-0.888c0-0.011,0.005-0.026,0.015-0.046c0.01-0.02,0.016-0.035,0.016-0.046     c0-0.01,0.005-0.024,0.015-0.046c-0.561,0.337-1.072,0.593-1.531,0.767c-0.194,0.071-0.393,0.102-0.597,0.091     c-0.204-0.01-0.393-0.056-0.567-0.137c-0.173-0.082-0.332-0.197-0.474-0.345c-0.143-0.147-0.25-0.318-0.321-0.512     c-0.082-0.193-0.115-0.393-0.1-0.597c0.016-0.204,0.064-0.396,0.145-0.575c0.082-0.178,0.197-0.338,0.345-0.481     c0.148-0.144,0.319-0.25,0.513-0.322c0.174-0.061,0.467-0.209,0.88-0.445c0.414-0.234,0.977-0.638,1.692-1.208     c0.214-0.174,0.411-0.337,0.589-0.491c0.179-0.154,0.334-0.291,0.467-0.413c0.153-0.143,0.296-0.276,0.429-0.398     c0.419-0.398,0.909-0.526,1.47-0.383c0.204,0.052,0.387,0.144,0.551,0.276c0.163,0.133,0.296,0.287,0.398,0.459     c0.163,0.285,0.235,0.576,0.215,0.873c-0.02,0.296-0.077,0.639-0.169,1.026c-0.02,0.102-0.044,0.201-0.069,0.299     c-0.026,0.097-0.054,0.201-0.084,0.313c0.326-0.02,0.627,0.052,0.903,0.215c0.275,0.163,0.485,0.398,0.627,0.704     c0.082,0.194,0.123,0.391,0.123,0.59s-0.033,0.39-0.1,0.574c-0.067,0.185-0.169,0.351-0.306,0.498     c-0.138,0.148-0.304,0.264-0.498,0.345c-0.337,0.154-0.646,0.299-0.926,0.436c-0.281,0.137-0.526,0.262-0.735,0.375     c-0.209,0.113-0.375,0.201-0.498,0.268c-0.122,0.067-0.189,0.099-0.199,0.099C129.399,187.02,129.153,187.087,128.909,187.087z" fill="#EDEBEB"/><path d="M136.718,186.933c-0.143,0-0.301-0.026-0.475-0.076c-0.255-0.061-0.474-0.177-0.658-0.345     c-0.184-0.169-0.321-0.37-0.414-0.605c-0.163-0.387-0.158-0.826,0.016-1.316c0.061-0.174,0.153-0.378,0.276-0.613     c0.02-0.041,0.043-0.084,0.069-0.131c0.025-0.046,0.054-0.094,0.084-0.145c-0.235,0.122-0.465,0.253-0.689,0.391     c-0.225,0.137-0.454,0.268-0.689,0.39c-0.419,0.256-0.819,0.487-1.202,0.696c-0.383,0.209-0.737,0.386-1.064,0.529     c-0.194,0.091-0.39,0.137-0.589,0.137c-0.199,0-0.391-0.035-0.574-0.107c-0.184-0.071-0.349-0.175-0.498-0.314     c-0.148-0.137-0.263-0.303-0.345-0.498c-0.092-0.193-0.138-0.39-0.138-0.589c0-0.2,0.036-0.39,0.107-0.575     c0.071-0.184,0.176-0.349,0.314-0.498c0.137-0.148,0.304-0.262,0.498-0.344c0.235-0.113,0.523-0.262,0.865-0.451     c0.342-0.189,0.707-0.396,1.094-0.621c0.449-0.265,0.922-0.538,1.416-0.818c0.495-0.281,0.983-0.523,1.463-0.727     c0.541-0.266,1.046-0.445,1.516-0.537c0.326-0.082,0.63-0.126,0.911-0.137c0.281-0.01,0.554,0.02,0.82,0.092     c0.561,0.163,0.944,0.51,1.148,1.041c0.154,0.387,0.176,0.765,0.069,1.132c-0.107,0.367-0.248,0.715-0.421,1.041     c0.031-0.01,0.064-0.018,0.1-0.023c0.035-0.005,0.069-0.018,0.099-0.038c0.194-0.071,0.39-0.099,0.589-0.084     c0.199,0.015,0.388,0.064,0.567,0.145c0.178,0.082,0.336,0.197,0.474,0.345c0.138,0.147,0.243,0.318,0.314,0.512     c0.071,0.204,0.102,0.405,0.092,0.605c-0.01,0.198-0.056,0.387-0.138,0.567c-0.082,0.178-0.196,0.336-0.344,0.474     c-0.148,0.137-0.324,0.242-0.529,0.314c-0.48,0.173-0.918,0.329-1.317,0.466c-0.398,0.139-0.75,0.258-1.056,0.36     c-0.429,0.122-0.776,0.212-1.041,0.268C137.172,186.905,136.932,186.933,136.718,186.933z" fill="#EDEBEB"/><path d="M145.737,186.933c-0.143,0-0.301-0.026-0.475-0.076c-0.255-0.061-0.474-0.177-0.658-0.345     c-0.184-0.169-0.322-0.37-0.414-0.605c-0.163-0.387-0.158-0.826,0.016-1.316c0.061-0.174,0.153-0.378,0.276-0.613     c0.02-0.041,0.043-0.084,0.069-0.131c0.025-0.046,0.054-0.094,0.084-0.145c-0.235,0.122-0.465,0.253-0.689,0.391     c-0.225,0.137-0.454,0.268-0.689,0.39c-0.419,0.256-0.819,0.487-1.202,0.696c-0.383,0.209-0.737,0.386-1.064,0.529     c-0.194,0.091-0.39,0.137-0.589,0.137c-0.199,0-0.391-0.035-0.574-0.107c-0.184-0.071-0.349-0.175-0.498-0.314     c-0.148-0.137-0.263-0.303-0.345-0.498c-0.092-0.193-0.138-0.39-0.138-0.589c0-0.2,0.036-0.39,0.107-0.575     c0.071-0.184,0.176-0.349,0.314-0.498c0.137-0.148,0.304-0.262,0.498-0.344c0.235-0.113,0.523-0.262,0.865-0.451     c0.342-0.189,0.707-0.396,1.094-0.621c0.449-0.265,0.922-0.538,1.416-0.818c0.495-0.281,0.983-0.523,1.463-0.727     c0.541-0.266,1.046-0.445,1.516-0.537c0.326-0.082,0.63-0.126,0.911-0.137c0.281-0.01,0.554,0.02,0.82,0.092     c0.561,0.163,0.944,0.51,1.148,1.041c0.154,0.387,0.176,0.765,0.069,1.132c-0.107,0.367-0.248,0.715-0.421,1.041     c0.031-0.01,0.064-0.018,0.1-0.023c0.035-0.005,0.069-0.018,0.099-0.038c0.194-0.071,0.39-0.099,0.589-0.084     c0.199,0.015,0.388,0.064,0.567,0.145c0.178,0.082,0.336,0.197,0.474,0.345c0.138,0.147,0.243,0.318,0.314,0.512     c0.071,0.204,0.102,0.405,0.092,0.605c-0.01,0.198-0.056,0.387-0.138,0.567c-0.082,0.178-0.196,0.336-0.344,0.474     c-0.148,0.137-0.324,0.242-0.529,0.314c-0.48,0.173-0.918,0.329-1.317,0.466c-0.398,0.139-0.75,0.258-1.056,0.36     c-0.429,0.122-0.776,0.212-1.041,0.268C146.191,186.905,145.951,186.933,145.737,186.933z" fill="#EDEBEB"/><path d="M152.903,187.087c-0.378,0-0.699-0.113-0.964-0.337c-0.245-0.194-0.414-0.439-0.506-0.735     c-0.092-0.296-0.097-0.591-0.015-0.888c0-0.011,0.005-0.026,0.015-0.046c0.01-0.02,0.016-0.035,0.016-0.046     c0-0.01,0.005-0.024,0.015-0.046c-0.561,0.337-1.072,0.593-1.531,0.767c-0.194,0.071-0.393,0.102-0.597,0.091     c-0.204-0.01-0.393-0.056-0.567-0.137c-0.173-0.082-0.332-0.197-0.474-0.345c-0.143-0.147-0.25-0.318-0.321-0.512     c-0.082-0.193-0.115-0.393-0.1-0.597c0.016-0.204,0.064-0.396,0.145-0.575c0.082-0.178,0.197-0.338,0.345-0.481     c0.148-0.144,0.319-0.25,0.513-0.322c0.174-0.061,0.467-0.209,0.88-0.445c0.414-0.234,0.977-0.638,1.692-1.208     c0.214-0.174,0.411-0.337,0.589-0.491s0.334-0.291,0.467-0.413c0.153-0.143,0.296-0.276,0.429-0.398     c0.419-0.398,0.909-0.526,1.47-0.383c0.204,0.052,0.387,0.144,0.551,0.276c0.163,0.133,0.296,0.287,0.398,0.459     c0.163,0.285,0.235,0.576,0.215,0.873c-0.02,0.296-0.077,0.639-0.169,1.026c-0.02,0.102-0.044,0.201-0.069,0.299     c-0.026,0.097-0.054,0.201-0.084,0.313c0.326-0.02,0.627,0.052,0.903,0.215c0.275,0.163,0.485,0.398,0.627,0.704     c0.082,0.194,0.123,0.391,0.123,0.59s-0.033,0.39-0.1,0.574c-0.067,0.185-0.169,0.351-0.306,0.498     c-0.138,0.148-0.304,0.264-0.498,0.345c-0.337,0.154-0.646,0.299-0.926,0.436c-0.281,0.137-0.526,0.262-0.735,0.375     c-0.209,0.113-0.375,0.201-0.498,0.268c-0.122,0.067-0.189,0.099-0.199,0.099C153.393,187.02,153.147,187.087,152.903,187.087z" fill="#EDEBEB"/><path d="M158.859,187.087c-0.378,0-0.699-0.113-0.964-0.337c-0.245-0.194-0.414-0.439-0.506-0.735     c-0.092-0.296-0.097-0.591-0.015-0.888c0-0.011,0.005-0.026,0.015-0.046c0.01-0.02,0.016-0.035,0.016-0.046     c0-0.01,0.005-0.024,0.015-0.046c-0.561,0.337-1.072,0.593-1.531,0.767c-0.194,0.071-0.393,0.102-0.597,0.091     c-0.204-0.01-0.393-0.056-0.567-0.137c-0.173-0.082-0.332-0.197-0.474-0.345c-0.143-0.147-0.25-0.318-0.321-0.512     c-0.082-0.193-0.115-0.393-0.1-0.597c0.016-0.204,0.064-0.396,0.145-0.575c0.082-0.178,0.197-0.338,0.345-0.481     c0.148-0.144,0.319-0.25,0.513-0.322c0.174-0.061,0.467-0.209,0.88-0.445c0.414-0.234,0.977-0.638,1.692-1.208     c0.214-0.174,0.411-0.337,0.589-0.491s0.334-0.291,0.467-0.413c0.153-0.143,0.296-0.276,0.429-0.398     c0.419-0.398,0.909-0.526,1.47-0.383c0.204,0.052,0.387,0.144,0.551,0.276c0.163,0.133,0.296,0.287,0.398,0.459     c0.163,0.285,0.235,0.576,0.215,0.873c-0.02,0.296-0.077,0.639-0.169,1.026c-0.02,0.102-0.043,0.201-0.069,0.299     c-0.026,0.097-0.054,0.201-0.084,0.313c0.326-0.02,0.627,0.052,0.903,0.215c0.275,0.163,0.485,0.398,0.627,0.704     c0.082,0.194,0.123,0.391,0.123,0.59s-0.033,0.39-0.1,0.574c-0.067,0.185-0.169,0.351-0.306,0.498     c-0.138,0.148-0.304,0.264-0.498,0.345c-0.337,0.154-0.646,0.299-0.926,0.436c-0.281,0.137-0.526,0.262-0.735,0.375     c-0.209,0.113-0.375,0.201-0.498,0.268c-0.122,0.067-0.189,0.099-0.199,0.099C159.349,187.02,159.103,187.087,158.859,187.087z" fill="#EDEBEB"/><path d="M174.109,186.933c-0.143,0-0.301-0.026-0.475-0.076c-0.255-0.061-0.474-0.177-0.658-0.345     c-0.184-0.169-0.322-0.37-0.414-0.605c-0.163-0.387-0.158-0.826,0.016-1.316c0.061-0.174,0.153-0.378,0.276-0.613     c0.02-0.041,0.043-0.084,0.069-0.131c0.025-0.046,0.054-0.094,0.084-0.145c-0.235,0.122-0.465,0.253-0.689,0.391     c-0.225,0.137-0.454,0.268-0.689,0.39c-0.419,0.256-0.819,0.487-1.202,0.696c-0.383,0.209-0.737,0.386-1.064,0.529     c-0.194,0.091-0.39,0.137-0.589,0.137c-0.199,0-0.391-0.035-0.574-0.107c-0.184-0.071-0.349-0.175-0.498-0.314     c-0.148-0.137-0.263-0.303-0.345-0.498c-0.092-0.193-0.138-0.39-0.138-0.589c0-0.2,0.036-0.39,0.107-0.575     c0.071-0.184,0.176-0.349,0.314-0.498c0.137-0.148,0.304-0.262,0.498-0.344c0.235-0.113,0.523-0.262,0.865-0.451     c0.342-0.189,0.707-0.396,1.094-0.621c0.449-0.265,0.922-0.538,1.416-0.818c0.495-0.281,0.983-0.523,1.463-0.727     c0.541-0.266,1.046-0.445,1.516-0.537c0.326-0.082,0.63-0.126,0.911-0.137c0.281-0.01,0.554,0.02,0.82,0.092     c0.561,0.163,0.944,0.51,1.148,1.041c0.154,0.387,0.176,0.765,0.069,1.132c-0.107,0.367-0.248,0.715-0.421,1.041     c0.031-0.01,0.064-0.018,0.1-0.023c0.035-0.005,0.069-0.018,0.099-0.038c0.194-0.071,0.39-0.099,0.589-0.084     c0.199,0.015,0.388,0.064,0.567,0.145c0.178,0.082,0.336,0.197,0.474,0.345c0.138,0.147,0.243,0.318,0.314,0.512     c0.071,0.204,0.102,0.405,0.092,0.605c-0.01,0.198-0.056,0.387-0.138,0.567c-0.082,0.178-0.196,0.336-0.344,0.474     c-0.148,0.137-0.324,0.242-0.529,0.314c-0.48,0.173-0.918,0.329-1.317,0.466c-0.398,0.139-0.75,0.258-1.056,0.36     c-0.429,0.122-0.776,0.212-1.041,0.268C174.563,186.905,174.323,186.933,174.109,186.933z" fill="#EDEBEB"/><path d="M178.901,188.082c-0.112,0-0.217-0.003-0.314-0.008c-0.097-0.005-0.171-0.012-0.222-0.023     c-0.286-0.082-0.542-0.212-0.766-0.39c-0.224-0.178-0.393-0.396-0.505-0.651c-0.071-0.143-0.118-0.273-0.138-0.39     c-0.02-0.117-0.031-0.238-0.031-0.36c0-0.163,0.015-0.321,0.046-0.474c-0.092-0.061-0.189-0.128-0.291-0.198     c-0.102-0.072-0.179-0.148-0.23-0.23c-0.245-0.326-0.368-0.674-0.368-1.041c0-0.245,0.054-0.477,0.16-0.697     c0.107-0.219,0.253-0.416,0.437-0.589c0.051-0.052,0.145-0.148,0.283-0.291c0.138-0.143,0.263-0.285,0.375-0.43l0.307-0.337     c0.143-0.152,0.288-0.309,0.436-0.466c0.147-0.158,0.293-0.309,0.436-0.451c0.163-0.143,0.306-0.266,0.429-0.368     c0.122-0.102,0.23-0.184,0.322-0.245c0.53-0.326,1.081-0.428,1.654-0.306c0.592,0.152,0.985,0.485,1.179,0.995l-0.015-0.015     c0.041,0.091,0.074,0.181,0.099,0.268c0.026,0.087,0.044,0.175,0.054,0.268c0.143-0.154,0.271-0.299,0.383-0.436     c0.112-0.137,0.215-0.262,0.307-0.375l0.214-0.245c0.02-0.02,0.036-0.041,0.046-0.061c0.01-0.011,0.02-0.026,0.031-0.046     c0.234-0.276,0.513-0.472,0.835-0.59c0.322-0.117,0.645-0.135,0.972-0.053c0.224,0.061,0.432,0.174,0.621,0.337     c0.188,0.163,0.345,0.352,0.467,0.565c0.143,0.328,0.207,0.605,0.191,0.835c-0.015,0.23-0.033,0.386-0.053,0.468     c-0.011,0.05-0.023,0.099-0.039,0.145c-0.015,0.046-0.028,0.09-0.038,0.13l-0.092,0.291l-0.016,0.045     c0.204,0.02,0.406,0.077,0.605,0.169c0.199,0.092,0.37,0.22,0.513,0.383c0.133,0.163,0.232,0.343,0.298,0.536     c0.067,0.194,0.099,0.383,0.099,0.567c0,0.51-0.209,0.945-0.627,1.301l-0.077,0.077c-0.214,0.184-0.442,0.367-0.681,0.551     c-0.24,0.184-0.493,0.358-0.758,0.521c-0.603,0.358-1.195,0.536-1.777,0.536c-0.245,0-0.49-0.035-0.735-0.107     c-0.184-0.039-0.355-0.109-0.513-0.207c-0.158-0.097-0.294-0.216-0.406-0.359c-0.122,0.102-0.24,0.196-0.352,0.283     c-0.112,0.087-0.24,0.177-0.383,0.268h0.015c-0.234,0.163-0.459,0.302-0.674,0.413c-0.214,0.113-0.419,0.209-0.612,0.291     c-0.173,0.072-0.358,0.122-0.551,0.154S179.075,188.082,178.901,188.082z" fill="#EDEBEB"/><path d="M187.048,188.082c-0.112,0-0.217-0.003-0.314-0.008c-0.097-0.005-0.171-0.012-0.222-0.023     c-0.286-0.082-0.542-0.212-0.766-0.39c-0.224-0.178-0.393-0.396-0.505-0.651c-0.071-0.143-0.118-0.273-0.138-0.39     c-0.02-0.117-0.031-0.238-0.031-0.36c0-0.163,0.015-0.321,0.046-0.474c-0.092-0.061-0.189-0.128-0.291-0.198     c-0.102-0.072-0.179-0.148-0.23-0.23c-0.245-0.326-0.368-0.674-0.368-1.041c0-0.245,0.054-0.477,0.16-0.697     c0.107-0.219,0.253-0.416,0.437-0.589c0.051-0.052,0.145-0.148,0.283-0.291c0.138-0.143,0.263-0.285,0.375-0.43l0.307-0.337     c0.143-0.152,0.288-0.309,0.436-0.466c0.147-0.158,0.293-0.309,0.436-0.451c0.163-0.143,0.306-0.266,0.429-0.368     c0.122-0.102,0.23-0.184,0.322-0.245c0.53-0.326,1.081-0.428,1.654-0.306c0.592,0.152,0.985,0.485,1.179,0.995l-0.015-0.015     c0.041,0.091,0.074,0.181,0.099,0.268c0.026,0.087,0.044,0.175,0.054,0.268c0.143-0.154,0.271-0.299,0.383-0.436     s0.215-0.262,0.307-0.375l0.214-0.245c0.02-0.02,0.036-0.041,0.046-0.061c0.01-0.011,0.02-0.026,0.031-0.046     c0.234-0.276,0.513-0.472,0.835-0.59c0.321-0.117,0.645-0.135,0.972-0.053c0.224,0.061,0.432,0.174,0.621,0.337     c0.188,0.163,0.345,0.352,0.467,0.565c0.143,0.328,0.207,0.605,0.191,0.835c-0.015,0.23-0.033,0.386-0.053,0.468     c-0.011,0.05-0.023,0.099-0.039,0.145c-0.015,0.046-0.028,0.09-0.038,0.13l-0.092,0.291l-0.016,0.045     c0.204,0.02,0.406,0.077,0.605,0.169c0.199,0.092,0.37,0.22,0.513,0.383c0.133,0.163,0.232,0.343,0.298,0.536     c0.067,0.194,0.099,0.383,0.099,0.567c0,0.51-0.209,0.945-0.627,1.301l-0.077,0.077c-0.214,0.184-0.442,0.367-0.681,0.551     c-0.24,0.184-0.493,0.358-0.758,0.521c-0.603,0.358-1.195,0.536-1.777,0.536c-0.245,0-0.49-0.035-0.735-0.107     c-0.184-0.039-0.355-0.109-0.513-0.207c-0.158-0.097-0.294-0.216-0.406-0.359c-0.122,0.102-0.24,0.196-0.352,0.283     c-0.112,0.087-0.24,0.177-0.383,0.268h0.015c-0.234,0.163-0.459,0.302-0.674,0.413c-0.214,0.113-0.419,0.209-0.612,0.291     c-0.173,0.072-0.358,0.122-0.551,0.154C187.405,188.067,187.221,188.082,187.048,188.082z" fill="#EDEBEB"/></g><g><path d="M245.953,282.132c-0.26,0-0.548-0.046-0.863-0.14c-0.464-0.11-0.863-0.319-1.197-0.625     c-0.334-0.307-0.585-0.673-0.752-1.1c-0.297-0.706-0.288-1.503,0.028-2.395c0.111-0.315,0.279-0.686,0.501-1.113     c0.037-0.073,0.079-0.152,0.126-0.237c0.046-0.083,0.097-0.171,0.153-0.264c-0.428,0.222-0.845,0.459-1.253,0.71     c-0.408,0.25-0.827,0.487-1.253,0.71c-0.761,0.465-1.489,0.886-2.185,1.267c-0.696,0.381-1.341,0.7-1.935,0.96     c-0.353,0.167-0.71,0.251-1.072,0.251c-0.362,0-0.71-0.065-1.044-0.196c-0.334-0.129-0.636-0.319-0.905-0.57     c-0.268-0.251-0.477-0.552-0.626-0.905c-0.167-0.352-0.251-0.71-0.251-1.071c0-0.363,0.065-0.711,0.195-1.044     c0.13-0.334,0.32-0.636,0.57-0.905c0.251-0.269,0.553-0.477,0.905-0.627c0.427-0.204,0.951-0.477,1.573-0.821     c0.621-0.344,1.285-0.719,1.99-1.127c0.817-0.483,1.675-0.979,2.575-1.49c0.9-0.511,1.786-0.952,2.659-1.323     c0.984-0.483,1.902-0.807,2.757-0.975c0.593-0.148,1.145-0.231,1.656-0.25s1.006,0.037,1.49,0.167     c1.02,0.296,1.716,0.928,2.088,1.892c0.277,0.706,0.321,1.392,0.125,2.061c-0.196,0.667-0.451,1.3-0.767,1.894     c0.057-0.019,0.117-0.033,0.182-0.042s0.125-0.033,0.181-0.069c0.352-0.13,0.71-0.181,1.073-0.154     c0.362,0.029,0.704,0.116,1.029,0.265c0.325,0.148,0.613,0.358,0.863,0.625c0.25,0.269,0.44,0.58,0.571,0.933     c0.13,0.372,0.185,0.738,0.167,1.1c-0.019,0.363-0.102,0.706-0.251,1.03c-0.148,0.325-0.356,0.613-0.625,0.863     c-0.269,0.25-0.59,0.442-0.961,0.571c-0.873,0.315-1.671,0.598-2.394,0.85c-0.723,0.25-1.365,0.469-1.922,0.654     c-0.778,0.223-1.41,0.385-1.892,0.487C246.779,282.08,246.343,282.132,245.953,282.132z" fill="#F8F8F1"/><path d="M254.668,284.22c-0.205,0-0.394-0.005-0.571-0.014c-0.177-0.01-0.311-0.024-0.405-0.042     c-0.519-0.15-0.983-0.386-1.392-0.71c-0.408-0.325-0.712-0.72-0.918-1.184c-0.129-0.26-0.213-0.496-0.251-0.71     c-0.035-0.213-0.054-0.431-0.054-0.654c0-0.296,0.027-0.585,0.083-0.863c-0.167-0.111-0.344-0.232-0.529-0.362     c-0.185-0.13-0.325-0.269-0.419-0.419c-0.445-0.593-0.667-1.225-0.667-1.892c0-0.446,0.098-0.867,0.292-1.267     c0.196-0.398,0.459-0.756,0.794-1.073c0.092-0.092,0.264-0.268,0.515-0.529c0.25-0.26,0.477-0.519,0.681-0.779l0.557-0.613     c0.26-0.277,0.525-0.56,0.794-0.848c0.269-0.288,0.533-0.561,0.794-0.821c0.296-0.26,0.556-0.483,0.779-0.669     c0.223-0.185,0.417-0.334,0.585-0.446c0.965-0.593,1.967-0.779,3.007-0.556c1.075,0.279,1.79,0.881,2.144,1.809l-0.027-0.029     c0.073,0.167,0.133,0.33,0.179,0.488c0.046,0.158,0.079,0.319,0.098,0.487c0.26-0.279,0.492-0.542,0.696-0.793     c0.204-0.251,0.39-0.479,0.557-0.682l0.389-0.446c0.038-0.037,0.065-0.073,0.084-0.111c0.019-0.018,0.037-0.046,0.056-0.083     c0.427-0.502,0.933-0.859,1.517-1.073c0.585-0.212,1.173-0.245,1.769-0.097c0.408,0.111,0.783,0.315,1.127,0.612     c0.344,0.298,0.627,0.64,0.85,1.03c0.258,0.594,0.375,1.1,0.348,1.517c-0.029,0.417-0.061,0.701-0.098,0.85     c-0.019,0.092-0.042,0.181-0.071,0.264c-0.027,0.084-0.05,0.163-0.068,0.237l-0.169,0.53l-0.027,0.083     c0.371,0.037,0.738,0.139,1.1,0.306c0.363,0.167,0.673,0.4,0.933,0.696c0.241,0.298,0.423,0.623,0.542,0.975     c0.121,0.353,0.182,0.696,0.182,1.03c0,0.928-0.381,1.717-1.142,2.367l-0.139,0.139c-0.39,0.334-0.803,0.669-1.24,1.002     c-0.435,0.334-0.894,0.65-1.378,0.947c-1.096,0.65-2.171,0.973-3.229,0.973c-0.446,0-0.89-0.065-1.336-0.194     c-0.334-0.073-0.646-0.2-0.933-0.375c-0.288-0.177-0.534-0.394-0.738-0.655c-0.223,0.186-0.436,0.358-0.64,0.515     c-0.204,0.158-0.436,0.321-0.696,0.488h0.027c-0.427,0.296-0.835,0.546-1.223,0.752c-0.392,0.204-0.761,0.379-1.115,0.529     c-0.315,0.129-0.65,0.222-1.002,0.277C255.318,284.192,254.983,284.22,254.668,284.22z" fill="#F8F8F1"/><path d="M271.122,281.575c-0.223,0-0.474-0.027-0.753-0.083c-0.427-0.111-0.807-0.302-1.142-0.571     c-0.333-0.269-0.602-0.589-0.806-0.961c-0.521,0.205-1.062,0.247-1.63,0.126c-0.565-0.121-1.052-0.413-1.46-0.878     c-0.261-0.277-0.446-0.593-0.557-0.946c-0.111-0.352-0.152-0.71-0.125-1.071c0.027-0.363,0.12-0.706,0.277-1.03     s0.377-0.617,0.655-0.877c0.204-0.167,0.421-0.362,0.654-0.585s0.479-0.464,0.738-0.725c0.446-0.445,0.914-0.894,1.406-1.35     c0.492-0.454,0.971-0.867,1.434-1.238c0.315-0.242,0.616-0.455,0.904-0.64c0.288-0.186,0.561-0.344,0.821-0.474     c0.965-0.464,1.911-0.593,2.841-0.389c0.5,0.148,0.941,0.398,1.321,0.752c0.381,0.352,0.673,0.779,0.878,1.281     c0.258,0.742,0.25,1.521-0.029,2.338c-0.037,0.094-0.075,0.186-0.111,0.279c-0.037,0.092-0.083,0.194-0.14,0.306     c0.669,0.315,1.151,0.836,1.449,1.559c0.129,0.371,0.185,0.742,0.166,1.113c-0.019,0.371-0.101,0.719-0.25,1.044     s-0.358,0.613-0.625,0.863c-0.269,0.25-0.59,0.442-0.961,0.571c-0.594,0.223-1.127,0.423-1.601,0.598     c-0.473,0.177-0.877,0.321-1.211,0.432c-0.204,0.073-0.381,0.139-0.529,0.194s-0.269,0.102-0.362,0.139     c-0.186,0.038-0.381,0.084-0.585,0.14C271.584,281.548,271.361,281.575,271.122,281.575z" fill="#F8F8F1"/><path d="M277.134,284.22c-0.205,0-0.394-0.005-0.571-0.014c-0.175-0.01-0.311-0.024-0.404-0.042     c-0.519-0.15-0.984-0.386-1.392-0.71c-0.408-0.325-0.714-0.72-0.919-1.184c-0.129-0.26-0.212-0.496-0.25-0.71     c-0.037-0.213-0.056-0.431-0.056-0.654c0-0.296,0.029-0.585,0.083-0.863c-0.166-0.111-0.343-0.232-0.527-0.362     c-0.186-0.13-0.326-0.269-0.419-0.419c-0.446-0.593-0.669-1.225-0.669-1.892c0-0.446,0.098-0.867,0.294-1.267     c0.194-0.398,0.459-0.756,0.794-1.073c0.092-0.092,0.264-0.268,0.514-0.529c0.25-0.26,0.479-0.519,0.682-0.779l0.557-0.613     c0.258-0.277,0.525-0.56,0.794-0.848c0.268-0.288,0.533-0.561,0.793-0.821c0.298-0.26,0.556-0.483,0.779-0.669     c0.223-0.185,0.419-0.334,0.585-0.446c0.965-0.593,1.968-0.779,3.007-0.556c1.077,0.279,1.792,0.881,2.145,1.809l-0.029-0.029     c0.075,0.167,0.135,0.33,0.181,0.488c0.046,0.158,0.079,0.319,0.098,0.487c0.258-0.279,0.492-0.542,0.696-0.793     c0.204-0.251,0.389-0.479,0.557-0.682l0.389-0.446c0.037-0.037,0.065-0.073,0.084-0.111c0.018-0.018,0.035-0.046,0.054-0.083     c0.427-0.502,0.933-0.859,1.517-1.073c0.585-0.212,1.175-0.245,1.769-0.097c0.408,0.111,0.784,0.315,1.127,0.612     c0.344,0.298,0.628,0.64,0.85,1.03c0.26,0.594,0.377,1.1,0.348,1.517c-0.029,0.417-0.061,0.701-0.097,0.85     c-0.019,0.092-0.043,0.181-0.071,0.264c-0.027,0.084-0.052,0.163-0.069,0.237l-0.167,0.53l-0.027,0.083     c0.37,0.037,0.737,0.139,1.098,0.306c0.363,0.167,0.674,0.4,0.933,0.696c0.242,0.298,0.423,0.623,0.544,0.975     c0.12,0.353,0.181,0.696,0.181,1.03c0,0.928-0.381,1.717-1.141,2.367l-0.14,0.139c-0.39,0.334-0.803,0.669-1.238,1.002     c-0.436,0.334-0.896,0.65-1.378,0.947c-1.096,0.65-2.172,0.973-3.23,0.973c-0.446,0-0.89-0.065-1.335-0.194     c-0.334-0.073-0.647-0.2-0.934-0.375c-0.287-0.177-0.534-0.394-0.738-0.655c-0.223,0.186-0.435,0.358-0.639,0.515     c-0.205,0.158-0.438,0.321-0.696,0.488h0.027c-0.427,0.296-0.835,0.546-1.225,0.752c-0.39,0.204-0.761,0.379-1.113,0.529     c-0.315,0.129-0.65,0.222-1.003,0.277C277.784,284.192,277.45,284.22,277.134,284.22z" fill="#F8F8F1"/></g><g><path d="M320.561,237.828c-0.045,0-0.088-0.013-0.127-0.038c-0.123-0.053-0.21-0.2-0.263-0.447     c-0.038-0.219-0.028-0.466,0.03-0.738c0.058-0.272,0.142-0.578,0.253-0.913c0.039-0.118,0.076-0.236,0.112-0.361     c0.035-0.122,0.066-0.236,0.092-0.34c0.02-0.053,0.036-0.118,0.049-0.194c-0.194-0.065-0.42-0.082-0.675-0.049     c-0.256,0.032-0.543,0.133-0.861,0.299c-0.285,0.143-0.586,0.329-0.904,0.555c-0.317,0.228-0.655,0.496-1.01,0.808     c-0.072,0.063-0.142,0.067-0.214,0.008c-0.072-0.057-0.123-0.158-0.156-0.302c-0.038-0.141-0.041-0.291-0.009-0.447     c0.033-0.154,0.084-0.266,0.156-0.329c0.369-0.325,0.717-0.605,1.044-0.846c0.328-0.24,0.643-0.43,0.948-0.574     c0.797-0.401,1.448-0.466,1.953-0.194c0.15,0.078,0.253,0.259,0.311,0.544c0.059,0.297,0.045,0.618-0.039,0.962     c-0.084,0.344-0.185,0.702-0.301,1.078c-0.014,0.027-0.024,0.059-0.035,0.099c-0.009,0.038-0.021,0.084-0.034,0.135     c0.149-0.065,0.368-0.194,0.656-0.388c0.289-0.194,0.692-0.479,1.211-0.856c0.071-0.051,0.143-0.042,0.218,0.03     c0.075,0.072,0.124,0.186,0.151,0.34c0.033,0.143,0.033,0.289,0,0.439c-0.033,0.148-0.091,0.255-0.175,0.321     c-0.298,0.207-0.57,0.394-0.816,0.563c-0.247,0.169-0.467,0.31-0.661,0.428c-0.266,0.156-0.465,0.262-0.598,0.321     C320.734,237.801,320.632,237.828,320.561,237.828z" fill="#F8F8F1"/><path d="M331.008,237.828c-0.045,0-0.088-0.013-0.127-0.038c-0.123-0.053-0.21-0.2-0.263-0.447     c-0.038-0.219-0.028-0.466,0.03-0.738c0.058-0.272,0.142-0.578,0.253-0.913c0.039-0.118,0.076-0.236,0.112-0.361     c0.035-0.122,0.066-0.236,0.092-0.34c0.02-0.053,0.036-0.118,0.048-0.194c-0.194-0.065-0.42-0.082-0.675-0.049     c-0.256,0.032-0.543,0.133-0.86,0.299c-0.285,0.143-0.586,0.329-0.904,0.555c-0.317,0.228-0.655,0.496-1.01,0.808     c-0.072,0.063-0.142,0.067-0.214,0.008c-0.072-0.057-0.123-0.158-0.156-0.302c-0.038-0.141-0.041-0.291-0.009-0.447     c0.033-0.154,0.084-0.266,0.156-0.329c0.369-0.325,0.717-0.605,1.044-0.846c0.328-0.24,0.643-0.43,0.948-0.574     c0.797-0.401,1.448-0.466,1.953-0.194c0.15,0.078,0.253,0.259,0.311,0.544c0.059,0.297,0.045,0.618-0.039,0.962     c-0.084,0.344-0.185,0.702-0.301,1.078c-0.014,0.027-0.024,0.059-0.035,0.099c-0.009,0.038-0.021,0.084-0.034,0.135     c0.149-0.065,0.368-0.194,0.656-0.388c0.289-0.194,0.692-0.479,1.211-0.856c0.071-0.051,0.143-0.042,0.218,0.03     c0.075,0.072,0.124,0.186,0.151,0.34c0.033,0.143,0.033,0.289,0,0.439c-0.033,0.148-0.091,0.255-0.175,0.321     c-0.298,0.207-0.57,0.394-0.816,0.563c-0.247,0.169-0.467,0.31-0.661,0.428c-0.266,0.156-0.465,0.262-0.598,0.321     C331.181,237.801,331.08,237.828,331.008,237.828z" fill="#F8F8F1"/><path d="M336.732,237.828c-0.045,0-0.088-0.013-0.127-0.038c-0.123-0.053-0.21-0.2-0.263-0.447     c-0.038-0.219-0.028-0.466,0.03-0.738s0.142-0.578,0.253-0.913c0.039-0.118,0.076-0.236,0.112-0.361     c0.035-0.122,0.066-0.236,0.092-0.34c0.02-0.053,0.036-0.118,0.049-0.194c-0.194-0.065-0.42-0.082-0.675-0.049     c-0.256,0.032-0.543,0.133-0.861,0.299c-0.285,0.143-0.586,0.329-0.904,0.555c-0.317,0.228-0.655,0.496-1.01,0.808     c-0.072,0.063-0.142,0.067-0.214,0.008c-0.072-0.057-0.123-0.158-0.156-0.302c-0.038-0.141-0.041-0.291-0.009-0.447     c0.033-0.154,0.084-0.266,0.156-0.329c0.369-0.325,0.717-0.605,1.044-0.846c0.328-0.24,0.643-0.43,0.948-0.574     c0.797-0.401,1.448-0.466,1.953-0.194c0.15,0.078,0.253,0.259,0.311,0.544c0.059,0.297,0.045,0.618-0.039,0.962     c-0.084,0.344-0.185,0.702-0.301,1.078c-0.014,0.027-0.024,0.059-0.035,0.099c-0.009,0.038-0.021,0.084-0.034,0.135     c0.149-0.065,0.368-0.194,0.656-0.388c0.289-0.194,0.692-0.479,1.211-0.856c0.071-0.051,0.143-0.042,0.218,0.03     c0.075,0.072,0.124,0.186,0.151,0.34c0.033,0.143,0.033,0.289,0,0.439c-0.033,0.148-0.091,0.255-0.175,0.321     c-0.298,0.207-0.57,0.394-0.816,0.563c-0.247,0.169-0.467,0.31-0.661,0.428c-0.266,0.156-0.465,0.262-0.598,0.321     C336.905,237.801,336.803,237.828,336.732,237.828z" fill="#F8F8F1"/><path d="M339.823,239.132c-0.053,0-0.099-0.006-0.141-0.019c-0.042-0.015-0.086-0.034-0.132-0.059     c-0.116-0.065-0.197-0.2-0.243-0.409c-0.058-0.257-0.057-0.572,0.005-0.943c0.061-0.369,0.163-0.844,0.306-1.428     c0.025-0.103,0.052-0.219,0.078-0.35c0.025-0.129,0.055-0.253,0.088-0.369c-0.084,0.065-0.174,0.173-0.268,0.321     c-0.094,0.15-0.189,0.302-0.287,0.458c-0.064,0.103-0.137,0.141-0.218,0.116c-0.081-0.025-0.148-0.097-0.199-0.213     c-0.052-0.131-0.071-0.272-0.058-0.428c0.013-0.156,0.049-0.291,0.107-0.409c0.091-0.129,0.185-0.272,0.282-0.426     c0.098-0.156,0.201-0.285,0.311-0.39c0.266-0.272,0.509-0.342,0.73-0.213c0.103,0.038,0.18,0.169,0.233,0.388     c0.052,0.221,0.05,0.481-0.005,0.778c-0.055,0.297-0.148,0.719-0.277,1.263c-0.032,0.156-0.066,0.31-0.101,0.466     c-0.036,0.156-0.07,0.304-0.102,0.447c-0.013,0.053-0.023,0.097-0.03,0.137c-0.006,0.038-0.013,0.076-0.019,0.116     c0.064-0.013,0.148-0.053,0.248-0.116c0.1-0.065,0.217-0.167,0.35-0.302c0.132-0.137,0.286-0.321,0.461-0.555     s0.376-0.525,0.603-0.875c0.175-0.285,0.34-0.563,0.496-0.835c0.155-0.272,0.291-0.519,0.408-0.738     c0.116-0.221,0.246-0.472,0.388-0.759c0.078-0.181,0.172-0.238,0.283-0.175c0.052,0.027,0.094,0.072,0.127,0.137     c0.032,0.065,0.058,0.129,0.077,0.194c0.045,0.181,0.049,0.396,0.011,0.641c-0.039,0.247-0.111,0.628-0.214,1.147     c-0.039,0.169-0.077,0.337-0.112,0.506c-0.036,0.169-0.07,0.323-0.102,0.466c-0.006,0.065-0.016,0.135-0.03,0.213     c0.091-0.025,0.188-0.097,0.292-0.213c0.103-0.116,0.207-0.247,0.311-0.39c0.103-0.141,0.2-0.293,0.291-0.456     c0.091-0.162,0.172-0.302,0.244-0.418c0.064-0.118,0.136-0.169,0.213-0.156c0.078,0.013,0.147,0.078,0.205,0.194     c0.052,0.131,0.076,0.272,0.073,0.428c-0.003,0.156-0.037,0.291-0.102,0.407c-0.149,0.274-0.301,0.529-0.457,0.77     c-0.155,0.238-0.312,0.445-0.471,0.62c-0.158,0.175-0.32,0.299-0.481,0.371c-0.162,0.07-0.321,0.067-0.477-0.011     c-0.103-0.078-0.178-0.207-0.224-0.388c-0.038-0.181-0.05-0.38-0.034-0.593c0.016-0.215,0.054-0.489,0.112-0.827     c-0.072,0.129-0.144,0.253-0.218,0.369c-0.075,0.116-0.154,0.247-0.238,0.388C341.017,238.425,340.321,239.132,339.823,239.132z" fill="#F8F8F1"/><path d="M347.626,237.828c-0.045,0-0.088-0.013-0.127-0.038c-0.123-0.053-0.21-0.2-0.263-0.447     c-0.038-0.219-0.028-0.466,0.03-0.738c0.058-0.272,0.142-0.578,0.253-0.913c0.039-0.118,0.076-0.236,0.112-0.361     c0.035-0.122,0.066-0.236,0.092-0.34c0.02-0.053,0.036-0.118,0.048-0.194c-0.194-0.065-0.42-0.082-0.675-0.049     c-0.256,0.032-0.543,0.133-0.86,0.299c-0.285,0.143-0.586,0.329-0.904,0.555c-0.317,0.228-0.655,0.496-1.01,0.808     c-0.072,0.063-0.142,0.067-0.214,0.008c-0.072-0.057-0.123-0.158-0.156-0.302c-0.038-0.141-0.041-0.291-0.009-0.447     c0.033-0.154,0.084-0.266,0.156-0.329c0.369-0.325,0.717-0.605,1.044-0.846c0.328-0.24,0.643-0.43,0.948-0.574     c0.797-0.401,1.448-0.466,1.953-0.194c0.15,0.078,0.253,0.259,0.311,0.544c0.059,0.297,0.045,0.618-0.039,0.962     c-0.084,0.344-0.185,0.702-0.301,1.078c-0.014,0.027-0.024,0.059-0.035,0.099c-0.009,0.038-0.021,0.084-0.034,0.135     c0.149-0.065,0.368-0.194,0.656-0.388c0.289-0.194,0.692-0.479,1.211-0.856c0.071-0.051,0.143-0.042,0.218,0.03     c0.075,0.072,0.124,0.186,0.151,0.34c0.033,0.143,0.033,0.289,0,0.439c-0.033,0.148-0.091,0.255-0.175,0.321     c-0.298,0.207-0.57,0.394-0.816,0.563c-0.247,0.169-0.467,0.31-0.661,0.428c-0.266,0.156-0.465,0.262-0.598,0.321     C347.799,237.801,347.698,237.828,347.626,237.828z" fill="#F8F8F1"/><path d="M353.35,237.828c-0.045,0-0.088-0.013-0.127-0.038c-0.123-0.053-0.21-0.2-0.263-0.447     c-0.038-0.219-0.028-0.466,0.03-0.738c0.058-0.272,0.142-0.578,0.253-0.913c0.039-0.118,0.076-0.236,0.112-0.361     c0.035-0.122,0.066-0.236,0.092-0.34c0.02-0.053,0.036-0.118,0.049-0.194c-0.194-0.065-0.42-0.082-0.675-0.049     c-0.256,0.032-0.543,0.133-0.861,0.299c-0.285,0.143-0.586,0.329-0.904,0.555c-0.317,0.228-0.655,0.496-1.01,0.808     c-0.072,0.063-0.142,0.067-0.214,0.008c-0.072-0.057-0.123-0.158-0.156-0.302c-0.038-0.141-0.041-0.291-0.009-0.447     c0.033-0.154,0.084-0.266,0.156-0.329c0.369-0.325,0.717-0.605,1.044-0.846c0.328-0.24,0.643-0.43,0.948-0.574     c0.797-0.401,1.448-0.466,1.953-0.194c0.15,0.078,0.253,0.259,0.311,0.544c0.059,0.297,0.045,0.618-0.039,0.962     c-0.084,0.344-0.185,0.702-0.301,1.078c-0.014,0.027-0.024,0.059-0.035,0.099c-0.009,0.038-0.021,0.084-0.034,0.135     c0.149-0.065,0.368-0.194,0.656-0.388c0.289-0.194,0.692-0.479,1.211-0.856c0.071-0.051,0.143-0.042,0.218,0.03     c0.075,0.072,0.124,0.186,0.151,0.34c0.033,0.143,0.033,0.289,0,0.439c-0.033,0.148-0.091,0.255-0.175,0.321     c-0.298,0.207-0.571,0.394-0.816,0.563c-0.247,0.169-0.467,0.31-0.661,0.428c-0.266,0.156-0.465,0.262-0.598,0.321     C353.523,237.801,353.422,237.828,353.35,237.828z" fill="#F8F8F1"/></g><g><path d="M390.334,238.436c-0.058,0-0.113-0.012-0.163-0.037c-0.159-0.052-0.271-0.196-0.338-0.438     c-0.049-0.215-0.037-0.456,0.038-0.723c0.075-0.266,0.184-0.566,0.326-0.894c0.05-0.116,0.098-0.231,0.144-0.353     c0.045-0.12,0.086-0.231,0.118-0.333c0.026-0.052,0.046-0.116,0.063-0.19c-0.25-0.064-0.541-0.081-0.87-0.048     c-0.33,0.031-0.7,0.13-1.109,0.293c-0.367,0.14-0.756,0.322-1.165,0.543c-0.409,0.223-0.844,0.485-1.302,0.791     c-0.092,0.062-0.184,0.066-0.276,0.008c-0.092-0.056-0.159-0.155-0.201-0.295c-0.049-0.138-0.053-0.285-0.012-0.438     c0.042-0.151,0.109-0.26,0.201-0.322c0.476-0.318,0.924-0.593,1.346-0.828c0.423-0.235,0.829-0.421,1.222-0.562     c1.028-0.392,1.866-0.456,2.518-0.19c0.193,0.076,0.326,0.254,0.401,0.533c0.076,0.291,0.058,0.605-0.05,0.942     c-0.109,0.337-0.238,0.688-0.387,1.055c-0.018,0.027-0.031,0.058-0.045,0.097c-0.012,0.037-0.027,0.083-0.043,0.132     c0.192-0.064,0.474-0.19,0.846-0.38c0.372-0.19,0.892-0.469,1.561-0.838c0.091-0.05,0.185-0.041,0.281,0.029     s0.16,0.182,0.194,0.333c0.042,0.14,0.042,0.283,0,0.43c-0.042,0.145-0.117,0.25-0.226,0.314     c-0.385,0.202-0.735,0.386-1.052,0.551c-0.318,0.165-0.602,0.304-0.852,0.419c-0.343,0.153-0.599,0.256-0.771,0.314     C390.557,238.409,390.426,238.436,390.334,238.436z" fill="#F8F8F1"/></g><path d="M153.918,230.225c0,0.625-0.506,1.131-1.131,1.131h-3.489c-0.625,0-1.131-0.506-1.131-1.131v-13.457    c0-0.625,0.506-1.131,1.131-1.131h3.489c0.625,0,1.131,0.506,1.131,1.131V230.225z" fill="#2F2F34"/><path d="M153.758,295.406c0,0.625-0.506,1.131-1.131,1.131h-3.489c-0.625,0-1.131-0.506-1.131-1.131v-13.457    c0-0.625,0.506-1.131,1.131-1.131h3.489c0.625,0,1.131,0.506,1.131,1.131V295.406z" fill="#2F2F34"/><path d="M190.361,253.211c0.625,0,1.131,0.506,1.131,1.131v3.489c0,0.625-0.506,1.131-1.131,1.131h-13.457    c-0.625,0-1.131-0.506-1.131-1.131v-3.489c0-0.625,0.506-1.131,1.131-1.131H190.361z" fill="#2F2F34"/><path d="M125.18,253.211c0.625,0,1.131,0.506,1.131,1.131v3.489c0,0.625-0.506,1.131-1.131,1.131h-13.457    c-0.625,0-1.131-0.506-1.131-1.131v-3.489c0-0.625,0.506-1.131,1.131-1.131H125.18z" fill="#2F2F34"/><path d="M132.83,234.042c1.053,0.518,1.235,1.62,0.406,2.449l-1.959,1.959c-0.83,0.83-1.932,0.647-2.449-0.406    l-2.93-5.959c-0.518-1.053-0.08-1.491,0.973-0.973L132.83,234.042z" fill="#2F2F34"/><path d="M128.827,274.471c0.518-1.053,1.62-1.235,2.449-0.406l1.959,1.959c0.83,0.829,0.647,1.932-0.406,2.449    l-5.959,2.93c-1.053,0.518-1.491,0.08-0.973-0.973L128.827,274.471z" fill="#2F2F34"/><path d="M169.256,278.473c-1.053-0.518-1.235-1.62-0.406-2.449l1.959-1.959c0.83-0.83,1.932-0.647,2.449,0.406    l2.93,5.959c0.518,1.053,0.08,1.491-0.973,0.973L169.256,278.473z" fill="#2F2F34"/><path d="M173.258,238.044c-0.518,1.053-1.62,1.235-2.449,0.406l-1.959-1.959c-0.83-0.83-0.647-1.932,0.406-2.449    l5.959-2.93c1.053-0.518,1.491-0.08,0.973,0.973L173.258,238.044z" fill="#2F2F34"/><path d="M152.719,201.57c0.224,0.658-0.161,1.196-0.856,1.196h-1.641c-0.695,0-1.08-0.538-0.856-1.196l1.269-3.722    c0.224-0.658,0.591-0.658,0.815,0L152.719,201.57z" fill="#EDE9E6"/><path d="M96.526,254.41c0.658-0.224,1.196,0.161,1.196,0.856v1.641c0,0.695-0.538,1.08-1.196,0.856l-3.722-1.269    c-0.658-0.224-0.658-0.591,0-0.815L96.526,254.41z" fill="#EDE9E6"/><path d="M149.366,310.603c-0.224-0.658,0.161-1.196,0.856-1.196h1.641c0.695,0,1.08,0.538,0.856,1.196    l-1.269,3.722c-0.224,0.658-0.591,0.658-0.815,0L149.366,310.603z" fill="#EDE9E6"/><path d="M205.559,257.763c-0.658,0.224-1.196-0.161-1.196-0.856v-1.641c0-0.695,0.538-1.08,1.196-0.856    l3.722,1.269c0.658,0.224,0.658,0.591,0,0.815L205.559,257.763z" fill="#EDE9E6"/><circle cx="151.042" cy="256.087" fill="#2F2F34" opacity="0.5" r="19.411"/></g></g><g/><g/><g/><g/><g/><g/></svg>