<?xml version="1.0" ?><!DOCTYPE svg  PUBLIC '-//W3C//DTD SVG 1.1//EN'  'http://www.w3.org/Graphics/SVG/1.1/DTD/svg11.dtd'><svg enable-background="new 0 0 512 512" height="512px" id="Capa_1" version="1.1" viewBox="0 0 512 512" width="512px" xml:space="preserve" xmlns="http://www.w3.org/2000/svg" xmlns:xlink="http://www.w3.org/1999/xlink"><g><g><path d="M512,256v0.092c0,2.765-0.041,5.54-0.133,8.325c-0.031,0.922-0.061,1.843-0.102,2.765    c-4.956,115.21-86.057,210.688-194.243,237.373c-11.11,2.744-22.508,4.762-34.14,5.99c-1.137,0.123-2.294,0.246-3.441,0.348    C272.056,511.621,264.079,512,256,512C114.616,512,0,397.384,0,256S114.616,0,256,0c134.339,0,244.511,103.485,255.15,235.08    c0.123,1.434,0.225,2.877,0.317,4.321c0.174,2.673,0.297,5.356,0.389,8.049v0.041C511.949,250.317,512,253.153,512,256z" fill="#BCBC86"/><path d="M512,256v0.092c0,2.765-0.041,5.54-0.133,8.325c-0.031,0.922-0.061,1.843-0.102,2.765    c-4.956,115.21-86.057,210.688-194.243,237.373c-11.11,2.744-22.508,4.762-34.14,5.99L104.151,373.371l332.913-190.976    l74.404,57.006c0.174,2.673,0.297,5.356,0.389,8.049v0.041C511.949,250.317,512,253.153,512,256z" fill="#1E1E1E" opacity="0.1"/></g><g><path d="M406.148,373.537c0,0-37.853,27.444-60.569-23.178c-12.367-27.574-52.007-38.175-89.579-37.883    c-37.572-0.291-77.212,10.309-89.579,37.883c-22.716,50.622-60.569,23.178-60.569,23.178s-83.275-57.247-62.456-145.26    c8.028-33.943,39.065-53.685,68.705-66.849c32.882-14.604,67.258-20.852,102.451-27.106c41.833-7.434,86.254-1.236,127.076,8.459    c34.566,8.209,71.324,18.981,98.932,42.451c12.473,10.603,24.206,26.814,28.045,43.046    C489.424,316.29,406.148,373.537,406.148,373.537z" fill="#2A2A2A"/><circle cx="133.886" cy="245.73" fill="#181718" r="70.5"/><circle cx="133.886" cy="245.73" fill="#1A1A1A" r="55.359"/><path d="M175.054,245.733c0,3.112-0.341,6.143-1.004,9.054c-3.463,15.469-15.639,27.645-31.108,31.108    c-2.911,0.662-5.942,1.004-9.054,1.004c-3.112,0-6.143-0.341-9.054-1.004c-15.469-3.463-27.645-15.639-31.108-31.108    c-0.663-2.911-1.004-5.943-1.004-9.054c0-3.112,0.341-6.143,1.004-9.054c3.463-15.469,15.639-27.645,31.108-31.108    c2.911-0.662,5.942-1.004,9.054-1.004c3.112,0,6.143,0.341,9.054,1.004c15.469,3.463,27.645,15.639,31.108,31.108    C174.712,239.59,175.054,242.621,175.054,245.733z" fill="#21242A"/><path d="M305.814,292.988c0,0-33.19-44.316,65.295-87.534c29.746-13.053,84.962-24.573,88.692,27.314    c0.467,6.494,0.003,15.345-2.529,20.041c-3.69,6.842-6.599,9.717-13.972,13.372c-6.613,3.278-13.166,6.679-19.77,9.975    c-13.273,6.624-26.639,13.079-40.274,18.932C359.913,305.108,324.693,319.267,305.814,292.988z" fill="#1D1C1C"/><g><g><path d="M456.027,231.459c0.151,9.596-4.929,18.871-13.27,24.222c-32.393,20.106-98.433,41.005-99.105,41.216      c-2.771,1.074-5.712,1.656-8.723,1.706c-13.862,0.221-25.326-10.871-25.547-24.734c-0.151-9.115,4.658-17.617,12.558-22.184      l0.02-0.01c0,0,0-0.01,0.01-0.01c2.269-1.586,56.122-38.747,96.786-46.064c0.01,0,0.03-0.01,0.04-0.01      c0.01-0.01,0.03-0.01,0.04-0.01c2.821-1.014,5.782-1.536,8.813-1.586C443.048,203.744,455.776,216.061,456.027,231.459z" fill="#181718"/></g></g><circle cx="337.41" cy="272.677" fill="#21242A" r="21.551"/><circle cx="384.481" cy="248.858" fill="#21242A" r="21.551"/><circle cx="430.417" cy="230.647" fill="#21242A" r="21.551"/><linearGradient gradientUnits="userSpaceOnUse" id="SVGID_1_" x1="330.146" x2="376.0511" y1="184.512" y2="184.512"><stop offset="0.0244" style="stop-color:#130F12"/><stop offset="0.5171" style="stop-color:#221C1D"/><stop offset="0.623" style="stop-color:#1E1A1E"/><stop offset="0.722" style="stop-color:#13131F"/><stop offset="0.7512" style="stop-color:#18161D"/></linearGradient><path d="M338.054,199.171c-3.091,0-5.903-1.822-7.166-4.642l-0.054-0.123    c-0.855-1.908-0.916-4.04-0.169-5.999s2.211-3.509,4.125-4.366l30.157-13.502c1.017-0.455,2.095-0.686,3.205-0.686    c3.09,0,5.902,1.822,7.165,4.642l0.044,0.098c1.777,3.971,0.002,8.622-3.947,10.39l-30.156,13.502    C340.241,198.941,339.162,199.171,338.054,199.171z" fill="url(#SVGID_1_)"/><path d="M371.705,176.254c0.865,1.932,0,4.199-1.932,5.064l-30.157,13.502c-1.932,0.865-4.199,0-5.064-1.932    l-0.053-0.119c-0.865-1.932,0-4.199,1.932-5.064l30.157-13.502c1.932-0.865,4.199,0,5.064,1.932L371.705,176.254z" fill="#C3454A"/><g opacity="0.7"><g><path d="M292.985,236.869c0,1.104-0.452,2.038-1.355,2.811l-0.161,0.161c-0.462,0.391-0.954,0.793-1.466,1.184      c-0.522,0.401-1.064,0.773-1.636,1.124c-1.295,0.773-2.57,1.154-3.824,1.154c-0.532,0-1.054-0.08-1.586-0.231      c-0.392-0.09-0.763-0.241-1.104-0.442c-0.341-0.211-0.632-0.472-0.873-0.783c-0.261,0.221-0.522,0.432-0.763,0.612      c-0.241,0.191-0.512,0.381-0.823,0.582h0.03c-0.502,0.351-0.984,0.642-1.445,0.883c-0.462,0.251-0.903,0.452-1.325,0.632      c-0.371,0.151-0.763,0.261-1.184,0.331c-0.412,0.06-0.813,0.1-1.184,0.1c-0.241,0-0.472-0.01-0.683-0.02      c-0.201-0.01-0.361-0.03-0.472-0.05c-0.622-0.181-1.164-0.462-1.656-0.843c-0.482-0.381-0.843-0.853-1.084-1.405      c-0.151-0.301-0.251-0.582-0.301-0.833c-0.04-0.241-0.06-0.502-0.06-0.753c-0.12,0.04-0.231,0.08-0.331,0.11      c-0.241,0.08-0.452,0.161-0.622,0.231c-0.181,0.06-0.321,0.12-0.432,0.161c-0.221,0.04-0.452,0.1-0.693,0.171      c-0.241,0.06-0.512,0.09-0.793,0.09c-0.261,0-0.562-0.03-0.893-0.09c-0.502-0.141-0.954-0.361-1.355-0.683      c-0.261-0.211-0.492-0.452-0.683-0.713c-0.271,0.221-0.552,0.442-0.843,0.663c-0.522,0.401-1.064,0.773-1.636,1.124      c-1.295,0.773-2.57,1.154-3.824,1.154c-0.532,0-1.054-0.08-1.586-0.231c-0.392-0.09-0.763-0.241-1.104-0.442      c-0.341-0.211-0.632-0.472-0.873-0.783c-0.261,0.221-0.522,0.432-0.763,0.612c-0.241,0.191-0.512,0.381-0.823,0.582h0.03      c-0.502,0.351-0.984,0.642-1.445,0.883c-0.462,0.251-0.903,0.452-1.325,0.632c-0.371,0.151-0.763,0.261-1.184,0.331      c-0.412,0.06-0.813,0.1-1.185,0.1c-0.241,0-0.472-0.01-0.673-0.02c-0.211-0.01-0.371-0.03-0.482-0.05      c-0.622-0.181-1.164-0.462-1.656-0.843c-0.482-0.381-0.843-0.853-1.084-1.405c-0.151-0.301-0.251-0.582-0.301-0.833      c-0.04-0.251-0.06-0.512-0.06-0.773v-0.09c-0.853,0.301-1.616,0.562-2.279,0.783c-0.924,0.261-1.666,0.452-2.239,0.572      s-1.094,0.181-1.556,0.181c-0.301,0-0.642-0.05-1.024-0.161c-0.542-0.131-1.024-0.381-1.415-0.743      c-0.391-0.361-0.693-0.803-0.893-1.305c-0.351-0.833-0.341-1.787,0.04-2.841c0.13-0.371,0.331-0.813,0.592-1.315      c0.04-0.09,0.09-0.181,0.151-0.281c0.05-0.1,0.11-0.201,0.181-0.311c-0.512,0.261-1.004,0.542-1.486,0.843      c-0.482,0.291-0.984,0.572-1.486,0.833c-0.903,0.552-1.767,1.054-2.59,1.506c-0.823,0.452-1.586,0.823-2.289,1.134      c-0.422,0.201-0.843,0.301-1.275,0.301s-0.843-0.08-1.235-0.231c-0.402-0.161-0.753-0.381-1.074-0.683      c-0.321-0.291-0.562-0.652-0.743-1.064c-0.201-0.422-0.301-0.843-0.301-1.275s0.08-0.843,0.231-1.235      c0.161-0.402,0.381-0.753,0.683-1.074c0.291-0.321,0.652-0.562,1.074-0.743c0.502-0.241,1.124-0.562,1.857-0.974      c0.743-0.401,1.526-0.853,2.359-1.335c0.974-0.572,1.988-1.154,3.052-1.767c1.064-0.602,2.118-1.124,3.152-1.566      c1.164-0.572,2.259-0.954,3.272-1.154c0.693-0.171,1.355-0.271,1.957-0.291c0.602-0.03,1.195,0.04,1.767,0.191      c1.205,0.351,2.028,1.104,2.469,2.249c0.331,0.833,0.381,1.646,0.151,2.439c-0.11,0.371-0.231,0.743-0.381,1.094      c0.06-0.07,0.12-0.131,0.171-0.201l0.652-0.733c0.311-0.321,0.622-0.663,0.944-1.004c0.321-0.341,0.632-0.663,0.944-0.974      c0.351-0.301,0.652-0.572,0.923-0.793c0.261-0.221,0.492-0.391,0.693-0.522c1.144-0.703,2.329-0.923,3.563-0.662      c1.275,0.331,2.118,1.044,2.54,2.148l-0.04-0.04c0.09,0.201,0.161,0.391,0.221,0.582c0.05,0.181,0.09,0.381,0.11,0.572      c0.311-0.331,0.582-0.642,0.823-0.934c0.241-0.301,0.462-0.572,0.662-0.813l0.462-0.522c0.05-0.05,0.08-0.09,0.1-0.141      c0.02-0.02,0.04-0.05,0.07-0.09c0.502-0.602,1.104-1.024,1.797-1.275c0.693-0.251,1.385-0.291,2.088-0.11      c0.492,0.13,0.934,0.371,1.335,0.723c0.412,0.351,0.743,0.753,1.014,1.215c0.301,0.713,0.442,1.305,0.412,1.807      c-0.02,0.231-0.04,0.432-0.06,0.592c0.11-0.11,0.231-0.221,0.351-0.331c0.582-0.542,1.154-1.034,1.706-1.466      c0.371-0.291,0.723-0.542,1.064-0.763c0.341-0.221,0.673-0.401,0.974-0.562c1.144-0.552,2.269-0.703,3.373-0.462      c0.592,0.181,1.114,0.472,1.566,0.893c0.311,0.291,0.582,0.632,0.803,1.024c0.02-0.02,0.05-0.05,0.07-0.07      c0.351-0.301,0.652-0.572,0.924-0.793c0.261-0.221,0.492-0.391,0.693-0.522c1.144-0.703,2.329-0.923,3.564-0.662      c1.275,0.331,2.118,1.044,2.54,2.148l-0.04-0.04c0.09,0.201,0.161,0.391,0.221,0.582c0.05,0.181,0.09,0.381,0.11,0.572      c0.311-0.331,0.582-0.642,0.823-0.934c0.241-0.301,0.462-0.572,0.663-0.813l0.462-0.522c0.04-0.05,0.08-0.09,0.1-0.141      c0.02-0.02,0.04-0.05,0.06-0.09c0.512-0.602,1.114-1.024,1.807-1.275s1.385-0.291,2.088-0.11      c0.482,0.13,0.934,0.371,1.335,0.723c0.412,0.351,0.743,0.753,1.014,1.215c0.301,0.713,0.442,1.305,0.412,1.807      c-0.04,0.492-0.08,0.823-0.12,1.004c-0.02,0.11-0.05,0.211-0.08,0.311c-0.03,0.1-0.06,0.191-0.08,0.281l-0.201,0.622l-0.03,0.1      c0.432,0.05,0.873,0.171,1.295,0.361c0.432,0.201,0.803,0.482,1.114,0.833c0.281,0.351,0.492,0.733,0.642,1.154      C292.915,236.066,292.985,236.477,292.985,236.869z" fill="#CCD7DE"/></g></g><path d="M334.825,275.745c-0.131,0.063-0.253,0.111-0.366,0.145    c-0.114,0.034-0.236,0.063-0.365,0.084c-0.332,0.058-0.618-0.015-0.857-0.221c-0.303-0.256-0.487-0.653-0.554-1.192    c-0.067-0.539-0.097-1.26-0.089-2.165c0.003-0.161-0.002-0.34-0.014-0.534c-0.013-0.194-0.013-0.384-0.002-0.569    c-0.173,0.183-0.333,0.425-0.48,0.724c-0.147,0.301-0.296,0.607-0.447,0.92c-0.101,0.208-0.261,0.345-0.481,0.409    c-0.219,0.065-0.429,0.055-0.63-0.03c-0.208-0.1-0.343-0.257-0.404-0.468c-0.061-0.212-0.053-0.426,0.023-0.642    c0.151-0.272,0.301-0.564,0.453-0.877c0.151-0.312,0.334-0.6,0.549-0.863c0.505-0.662,1.074-1.043,1.706-1.145    c0.284-0.076,0.557-0.006,0.821,0.209c0.262,0.215,0.414,0.543,0.455,0.984c0.04,0.441,0.061,1.082,0.062,1.922    c0.012,0.235,0.02,0.471,0.024,0.709c0.004,0.238,0.007,0.467,0.012,0.685c-0.002,0.081,0.001,0.15,0.008,0.206    c0.007,0.056,0.014,0.113,0.021,0.17c0.155-0.094,0.34-0.242,0.554-0.445c0.214-0.202,0.446-0.469,0.699-0.799    c0.252-0.331,0.528-0.748,0.829-1.252c0.3-0.504,0.63-1.112,0.99-1.825c0.269-0.568,0.517-1.118,0.745-1.647    c0.228-0.529,0.422-1.002,0.583-1.42c0.161-0.417,0.335-0.891,0.522-1.421c0.087-0.322,0.288-0.508,0.604-0.559    c0.146-0.029,0.279-0.023,0.4,0.019c0.12,0.043,0.225,0.093,0.312,0.151c0.223,0.174,0.36,0.439,0.41,0.795    c0.05,0.357,0.1,0.924,0.151,1.7c0.004,0.259,0.011,0.516,0.023,0.77c0.012,0.255,0.02,0.491,0.024,0.709    c0.022,0.09,0.041,0.191,0.055,0.304c0.212-0.142,0.414-0.348,0.605-0.62c0.191-0.271,0.374-0.559,0.549-0.863    c0.175-0.304,0.328-0.612,0.459-0.925c0.131-0.313,0.251-0.585,0.36-0.818c0.093-0.225,0.241-0.375,0.445-0.453    c0.203-0.077,0.413-0.077,0.63-0.001c0.208,0.101,0.355,0.251,0.44,0.45c0.085,0.2,0.081,0.412-0.012,0.636    c-0.211,0.522-0.441,1.027-0.688,1.515c-0.247,0.489-0.518,0.938-0.812,1.349c-0.294,0.411-0.624,0.759-0.988,1.043    c-0.365,0.285-0.766,0.471-1.204,0.56c-0.308,0.027-0.573-0.046-0.796-0.22c-0.207-0.182-0.354-0.416-0.442-0.705    c-0.088-0.289-0.159-0.679-0.215-1.174c-0.102,0.249-0.211,0.491-0.328,0.728c-0.117,0.236-0.239,0.495-0.366,0.775    C337.409,273.42,336.08,275.146,334.825,275.745z" fill="#CCD7DE" opacity="0.1"/><path d="M381.896,254.195c-0.131,0.063-0.253,0.111-0.366,0.145    c-0.114,0.034-0.236,0.063-0.365,0.084c-0.332,0.058-0.618-0.015-0.856-0.222c-0.303-0.256-0.487-0.653-0.554-1.192    c-0.067-0.539-0.097-1.26-0.089-2.165c0.003-0.162-0.002-0.34-0.014-0.534c-0.013-0.194-0.013-0.384-0.002-0.569    c-0.173,0.183-0.333,0.425-0.48,0.724c-0.147,0.301-0.296,0.607-0.447,0.92c-0.101,0.208-0.261,0.345-0.481,0.409    c-0.219,0.065-0.429,0.055-0.63-0.03c-0.208-0.1-0.343-0.257-0.404-0.468c-0.061-0.212-0.053-0.426,0.023-0.642    c0.151-0.272,0.301-0.564,0.453-0.877c0.151-0.312,0.334-0.6,0.549-0.863c0.505-0.662,1.074-1.043,1.706-1.145    c0.284-0.076,0.557-0.006,0.821,0.209c0.262,0.215,0.414,0.543,0.455,0.984c0.04,0.441,0.061,1.082,0.062,1.922    c0.012,0.235,0.02,0.471,0.024,0.709c0.004,0.238,0.007,0.467,0.012,0.685c-0.002,0.081,0.001,0.15,0.008,0.206    c0.007,0.056,0.014,0.113,0.021,0.17c0.155-0.094,0.34-0.242,0.554-0.445c0.214-0.202,0.446-0.469,0.699-0.799    c0.252-0.331,0.528-0.748,0.829-1.252c0.3-0.504,0.63-1.112,0.99-1.825c0.269-0.568,0.517-1.118,0.745-1.647    c0.228-0.529,0.422-1.002,0.583-1.42c0.161-0.417,0.335-0.891,0.522-1.421c0.087-0.322,0.288-0.508,0.604-0.559    c0.146-0.029,0.279-0.023,0.4,0.019c0.12,0.043,0.225,0.093,0.312,0.151c0.223,0.174,0.36,0.439,0.41,0.795    c0.05,0.357,0.1,0.924,0.151,1.7c0.004,0.259,0.011,0.516,0.022,0.77c0.012,0.255,0.02,0.491,0.024,0.709    c0.022,0.09,0.041,0.191,0.055,0.304c0.212-0.142,0.414-0.348,0.605-0.62c0.191-0.271,0.374-0.559,0.549-0.863    c0.175-0.304,0.328-0.612,0.459-0.925c0.131-0.313,0.251-0.585,0.36-0.818c0.093-0.225,0.241-0.375,0.445-0.453    c0.203-0.077,0.413-0.077,0.63-0.001c0.208,0.101,0.355,0.251,0.44,0.45c0.085,0.2,0.081,0.412-0.012,0.636    c-0.211,0.522-0.441,1.027-0.688,1.515c-0.247,0.489-0.518,0.938-0.812,1.349c-0.294,0.411-0.624,0.759-0.988,1.043    c-0.365,0.285-0.766,0.471-1.204,0.56c-0.308,0.027-0.573-0.046-0.796-0.22c-0.207-0.182-0.354-0.416-0.442-0.705    c-0.088-0.289-0.159-0.679-0.215-1.174c-0.102,0.249-0.211,0.491-0.328,0.728c-0.117,0.236-0.239,0.495-0.366,0.775    C384.48,251.87,383.151,253.595,381.896,254.195z" fill="#CCD7DE" opacity="0.1"/><path d="M427.833,235.984c-0.131,0.063-0.253,0.111-0.366,0.145    c-0.114,0.034-0.236,0.063-0.365,0.084c-0.332,0.058-0.618-0.015-0.857-0.222c-0.303-0.256-0.487-0.653-0.554-1.192    c-0.067-0.539-0.097-1.26-0.089-2.165c0.003-0.162-0.002-0.34-0.014-0.534c-0.013-0.194-0.013-0.384-0.002-0.569    c-0.173,0.183-0.333,0.425-0.48,0.724c-0.147,0.301-0.296,0.607-0.447,0.92c-0.101,0.208-0.261,0.345-0.481,0.409    c-0.219,0.065-0.429,0.055-0.63-0.03c-0.208-0.1-0.343-0.257-0.404-0.468c-0.061-0.212-0.053-0.426,0.023-0.642    c0.151-0.272,0.301-0.564,0.453-0.877c0.151-0.312,0.334-0.6,0.549-0.863c0.505-0.662,1.074-1.043,1.706-1.145    c0.284-0.076,0.557-0.006,0.821,0.209c0.262,0.215,0.414,0.543,0.455,0.984c0.04,0.441,0.061,1.082,0.062,1.922    c0.012,0.235,0.02,0.471,0.024,0.709c0.004,0.238,0.007,0.467,0.012,0.685c-0.002,0.081,0.001,0.15,0.008,0.206    c0.007,0.056,0.014,0.113,0.021,0.17c0.155-0.094,0.34-0.242,0.554-0.445c0.214-0.202,0.446-0.469,0.699-0.799    c0.252-0.331,0.528-0.748,0.829-1.252c0.3-0.504,0.63-1.112,0.99-1.825c0.269-0.568,0.517-1.118,0.745-1.647    s0.422-1.002,0.583-1.42c0.161-0.417,0.335-0.891,0.522-1.421c0.087-0.322,0.288-0.508,0.604-0.559    c0.146-0.029,0.279-0.023,0.4,0.019c0.12,0.043,0.225,0.093,0.312,0.151c0.223,0.174,0.36,0.439,0.41,0.795    c0.05,0.357,0.1,0.924,0.151,1.7c0.004,0.259,0.011,0.516,0.022,0.77c0.012,0.255,0.02,0.491,0.024,0.709    c0.022,0.09,0.041,0.191,0.055,0.304c0.212-0.142,0.414-0.348,0.605-0.62c0.191-0.271,0.374-0.559,0.549-0.863    c0.175-0.304,0.328-0.612,0.459-0.925c0.131-0.313,0.251-0.585,0.36-0.818c0.093-0.225,0.241-0.375,0.445-0.453    c0.203-0.077,0.413-0.077,0.63-0.001c0.208,0.101,0.355,0.251,0.44,0.45c0.085,0.2,0.081,0.412-0.012,0.636    c-0.211,0.522-0.441,1.027-0.688,1.515c-0.247,0.489-0.518,0.938-0.812,1.349c-0.294,0.411-0.624,0.759-0.988,1.043    c-0.365,0.285-0.766,0.471-1.204,0.56c-0.308,0.027-0.573-0.046-0.796-0.22c-0.207-0.182-0.354-0.416-0.442-0.705    c-0.088-0.289-0.159-0.679-0.215-1.174c-0.102,0.249-0.211,0.491-0.328,0.728c-0.117,0.236-0.239,0.495-0.366,0.775    C430.416,233.659,429.088,235.384,427.833,235.984z" fill="#CCD7DE" opacity="0.1"/><g><path d="M396.26,297.533c-0.049,0.02-0.097,0.03-0.146,0.029c-0.147,0.02-0.282-0.042-0.404-0.183     c-0.103-0.131-0.159-0.299-0.171-0.507s-0.004-0.448,0.021-0.722c0.01-0.095,0.018-0.192,0.022-0.29     c0.005-0.098,0.007-0.187,0.007-0.269c0.006-0.043,0.006-0.094-0.001-0.151c-0.226,0.042-0.473,0.13-0.739,0.264     c-0.267,0.134-0.548,0.327-0.843,0.579c-0.268,0.221-0.541,0.477-0.82,0.768c-0.279,0.291-0.569,0.619-0.866,0.984     c-0.059,0.075-0.135,0.108-0.227,0.1c-0.093-0.007-0.176-0.052-0.25-0.133c-0.081-0.078-0.125-0.177-0.133-0.295     c-0.008-0.119,0.018-0.215,0.076-0.29c0.309-0.379,0.606-0.721,0.892-1.024c0.286-0.304,0.574-0.571,0.862-0.8     c0.747-0.62,1.429-0.948,2.047-0.989c0.181-0.013,0.342,0.063,0.483,0.228c0.144,0.174,0.218,0.394,0.221,0.66     c0.004,0.267-0.006,0.552-0.029,0.855c-0.008,0.023-0.01,0.05-0.01,0.081c0,0.03,0,0.065,0.001,0.106     c0.143-0.109,0.343-0.291,0.599-0.549c0.257-0.256,0.613-0.624,1.067-1.104c0.062-0.066,0.143-0.09,0.243-0.076     c0.1,0.015,0.185,0.069,0.256,0.161c0.073,0.081,0.113,0.179,0.119,0.292c0.006,0.114-0.028,0.211-0.1,0.292     c-0.264,0.27-0.505,0.516-0.724,0.736c-0.219,0.221-0.417,0.413-0.594,0.576c-0.243,0.221-0.427,0.38-0.554,0.477     C396.439,297.438,396.337,297.502,396.26,297.533z" fill="#B5C0C5"/><path d="M402.415,295.018c-0.049,0.02-0.097,0.03-0.147,0.029c-0.146,0.019-0.281-0.042-0.404-0.183     c-0.102-0.131-0.159-0.299-0.171-0.507c-0.012-0.208-0.004-0.448,0.022-0.723c0.01-0.095,0.017-0.191,0.022-0.29     c0.004-0.098,0.007-0.187,0.006-0.268c0.007-0.043,0.006-0.094-0.001-0.151c-0.227,0.042-0.473,0.13-0.74,0.264     c-0.266,0.134-0.547,0.327-0.842,0.579c-0.268,0.221-0.541,0.477-0.821,0.768c-0.279,0.291-0.568,0.619-0.866,0.984     c-0.059,0.075-0.135,0.108-0.227,0.1c-0.092-0.008-0.175-0.052-0.249-0.133c-0.081-0.078-0.125-0.177-0.133-0.295     c-0.008-0.119,0.018-0.215,0.077-0.29c0.308-0.379,0.605-0.721,0.892-1.024c0.286-0.304,0.573-0.571,0.862-0.8     c0.746-0.619,1.429-0.948,2.047-0.989c0.182-0.013,0.343,0.063,0.484,0.228c0.144,0.174,0.218,0.394,0.221,0.66     c0.003,0.268-0.007,0.552-0.029,0.855c-0.007,0.023-0.01,0.05-0.01,0.08c0,0.03,0,0.065,0.001,0.106     c0.143-0.109,0.342-0.291,0.598-0.548c0.257-0.257,0.613-0.624,1.067-1.104c0.062-0.066,0.144-0.091,0.244-0.076     c0.1,0.015,0.185,0.069,0.255,0.162c0.074,0.081,0.114,0.179,0.119,0.292c0.006,0.114-0.028,0.211-0.1,0.292     c-0.264,0.27-0.505,0.515-0.723,0.736c-0.219,0.221-0.417,0.413-0.594,0.576c-0.243,0.221-0.428,0.38-0.555,0.478     C402.593,294.923,402.492,294.987,402.415,295.018z" fill="#B5C0C5"/><path d="M406.185,293.174c-0.034,0.014-0.064,0.022-0.088,0.021c-0.126,0.011-0.227-0.011-0.302-0.066     c-0.075-0.055-0.129-0.102-0.161-0.14c-0.133-0.168-0.198-0.371-0.194-0.611c0.004-0.239,0.026-0.499,0.065-0.779     c0.014-0.086,0.022-0.175,0.025-0.268c0.003-0.092,0.008-0.18,0.014-0.264c0.004-0.011,0.007-0.033,0.01-0.065     c-0.035,0.034-0.074,0.081-0.119,0.14c-0.046,0.059-0.092,0.138-0.14,0.24c-0.086,0.146-0.169,0.324-0.246,0.533     c-0.077,0.209-0.155,0.426-0.234,0.65c-0.018,0.057-0.038,0.114-0.06,0.168c-0.023,0.055-0.042,0.111-0.06,0.168     c-0.034,0.095-0.095,0.158-0.185,0.189c-0.088,0.032-0.178,0.016-0.27-0.049c-0.095-0.052-0.16-0.135-0.197-0.246     c-0.038-0.112-0.039-0.215-0.005-0.309c0.017-0.058,0.037-0.114,0.06-0.168c0.022-0.055,0.041-0.111,0.059-0.169     c0.089-0.259,0.181-0.506,0.276-0.743c0.094-0.236,0.195-0.446,0.303-0.632c0.107-0.185,0.228-0.338,0.361-0.459     c0.134-0.12,0.285-0.184,0.452-0.192c0.137-0.005,0.245,0.022,0.325,0.08s0.141,0.115,0.179,0.169     c0.144,0.174,0.214,0.384,0.208,0.629c-0.005,0.245-0.026,0.522-0.063,0.831c-0.007,0.023-0.011,0.058-0.013,0.104     c-0.002,0.046-0.005,0.091-0.012,0.134c0.083-0.094,0.191-0.213,0.324-0.353c0.134-0.141,0.297-0.322,0.492-0.543     c0.076-0.071,0.163-0.098,0.259-0.082c0.096,0.017,0.179,0.071,0.25,0.164c0.074,0.081,0.112,0.18,0.114,0.294     c0.002,0.116-0.025,0.211-0.084,0.285c-0.184,0.186-0.351,0.356-0.5,0.508c-0.15,0.152-0.275,0.284-0.375,0.396     c-0.055,0.063-0.105,0.116-0.148,0.159c-0.043,0.043-0.082,0.082-0.117,0.116c-0.049,0.04-0.086,0.073-0.112,0.099     S406.22,293.16,406.185,293.174z" fill="#B5C0C5"/><path d="M409.059,292c-0.035,0.014-0.064,0.022-0.089,0.022c-0.126,0.011-0.226-0.011-0.301-0.067     c-0.076-0.055-0.129-0.102-0.161-0.14c-0.134-0.168-0.198-0.371-0.195-0.611c0.004-0.239,0.026-0.499,0.066-0.779     c0.013-0.086,0.022-0.175,0.025-0.268c0.002-0.092,0.007-0.18,0.014-0.264c0.003-0.011,0.007-0.033,0.01-0.065     c-0.035,0.034-0.075,0.081-0.12,0.14c-0.045,0.059-0.092,0.138-0.14,0.239c-0.086,0.147-0.169,0.324-0.246,0.533     c-0.077,0.209-0.155,0.426-0.234,0.651c-0.018,0.057-0.037,0.114-0.06,0.168c-0.022,0.055-0.042,0.11-0.059,0.168     c-0.034,0.095-0.096,0.158-0.185,0.189c-0.089,0.032-0.179,0.016-0.27-0.049c-0.095-0.052-0.16-0.135-0.198-0.245     c-0.037-0.112-0.039-0.215-0.004-0.31c0.016-0.058,0.037-0.114,0.059-0.168c0.023-0.055,0.042-0.111,0.059-0.169     c0.089-0.259,0.181-0.506,0.276-0.743c0.094-0.235,0.195-0.446,0.302-0.632c0.107-0.185,0.228-0.338,0.361-0.459     c0.134-0.12,0.285-0.184,0.452-0.192c0.136-0.005,0.245,0.022,0.325,0.08c0.081,0.058,0.141,0.115,0.179,0.169     c0.144,0.174,0.214,0.384,0.208,0.629c-0.005,0.245-0.026,0.522-0.063,0.831c-0.007,0.023-0.011,0.057-0.012,0.103     c-0.002,0.046-0.005,0.091-0.012,0.134c0.083-0.094,0.191-0.213,0.325-0.353c0.133-0.14,0.297-0.322,0.492-0.543     c0.076-0.071,0.162-0.098,0.259-0.082c0.096,0.017,0.179,0.071,0.25,0.164c0.073,0.081,0.112,0.18,0.114,0.294     c0.002,0.116-0.026,0.211-0.085,0.286c-0.184,0.186-0.35,0.356-0.499,0.508c-0.15,0.152-0.275,0.284-0.375,0.396     c-0.056,0.063-0.105,0.116-0.148,0.159c-0.044,0.043-0.082,0.082-0.117,0.117c-0.048,0.04-0.086,0.073-0.112,0.099     S409.094,291.985,409.059,292z" fill="#B5C0C5"/><path d="M411.933,290.825c-0.034,0.014-0.064,0.022-0.088,0.021c-0.126,0.011-0.227-0.011-0.302-0.066     c-0.075-0.055-0.129-0.102-0.161-0.14c-0.133-0.168-0.198-0.371-0.194-0.611c0.004-0.239,0.026-0.499,0.065-0.779     c0.014-0.086,0.022-0.175,0.025-0.268c0.003-0.092,0.008-0.18,0.014-0.264c0.004-0.011,0.007-0.033,0.01-0.065     c-0.035,0.034-0.074,0.081-0.119,0.14c-0.046,0.059-0.092,0.138-0.14,0.239c-0.086,0.147-0.169,0.324-0.246,0.533     c-0.077,0.209-0.155,0.426-0.234,0.65c-0.018,0.057-0.038,0.114-0.06,0.168c-0.023,0.055-0.042,0.111-0.06,0.168     c-0.034,0.095-0.096,0.158-0.185,0.189c-0.088,0.032-0.178,0.016-0.27-0.049c-0.095-0.052-0.16-0.135-0.197-0.246     c-0.038-0.112-0.039-0.215-0.005-0.309c0.017-0.058,0.037-0.114,0.06-0.168c0.022-0.055,0.041-0.111,0.059-0.169     c0.089-0.259,0.181-0.506,0.276-0.743c0.094-0.236,0.195-0.446,0.303-0.632c0.107-0.185,0.228-0.338,0.361-0.459     c0.134-0.12,0.285-0.184,0.452-0.192c0.137-0.005,0.245,0.022,0.325,0.08c0.081,0.058,0.141,0.115,0.179,0.169     c0.144,0.174,0.214,0.384,0.208,0.629c-0.005,0.245-0.026,0.522-0.063,0.831c-0.007,0.023-0.011,0.058-0.013,0.104     c-0.002,0.046-0.005,0.091-0.012,0.134c0.083-0.094,0.191-0.213,0.324-0.353c0.134-0.141,0.297-0.322,0.492-0.543     c0.076-0.071,0.163-0.098,0.259-0.082c0.096,0.017,0.179,0.071,0.25,0.164c0.074,0.081,0.112,0.18,0.114,0.294     c0.002,0.116-0.025,0.211-0.084,0.285c-0.184,0.186-0.351,0.356-0.5,0.508c-0.15,0.152-0.275,0.284-0.375,0.396     c-0.055,0.063-0.105,0.116-0.148,0.159c-0.043,0.043-0.082,0.082-0.117,0.116c-0.049,0.04-0.086,0.073-0.112,0.099     S411.968,290.811,411.933,290.825z" fill="#B5C0C5"/><path d="M414.715,291.01c-0.055,0.023-0.108,0.039-0.157,0.048c-0.049,0.01-0.101,0.016-0.157,0.018     c-0.143,0.008-0.268-0.047-0.373-0.166c-0.134-0.148-0.217-0.359-0.253-0.633c-0.035-0.274-0.055-0.638-0.061-1.091     c0-0.08-0.005-0.17-0.012-0.268c-0.008-0.098-0.01-0.193-0.007-0.285c-0.073,0.081-0.14,0.191-0.2,0.332     c-0.061,0.141-0.121,0.286-0.183,0.432c-0.041,0.098-0.109,0.157-0.204,0.174c-0.094,0.018-0.184,0-0.272-0.055     c-0.091-0.064-0.151-0.151-0.18-0.261c-0.028-0.109-0.027-0.217,0.004-0.32c0.062-0.126,0.124-0.263,0.186-0.41     c0.062-0.147,0.138-0.279,0.227-0.397c0.211-0.299,0.454-0.453,0.726-0.464c0.122-0.019,0.241,0.034,0.357,0.158     c0.116,0.125,0.185,0.299,0.207,0.522c0.023,0.224,0.039,0.546,0.048,0.967c0.008,0.119,0.014,0.238,0.017,0.357     c0.005,0.12,0.009,0.235,0.013,0.344c0,0.04,0.002,0.075,0.006,0.104c0.003,0.029,0.008,0.058,0.011,0.087     c0.067-0.037,0.144-0.099,0.235-0.187c0.09-0.087,0.188-0.205,0.294-0.355c0.106-0.149,0.221-0.34,0.345-0.573     c0.124-0.233,0.26-0.516,0.409-0.85c0.11-0.268,0.211-0.527,0.304-0.778c0.092-0.251,0.172-0.475,0.237-0.674     c0.065-0.198,0.136-0.424,0.21-0.678c0.035-0.155,0.119-0.235,0.255-0.241c0.062-0.005,0.12,0.007,0.173,0.036     s0.098,0.061,0.137,0.095c0.099,0.102,0.161,0.244,0.186,0.425c0.026,0.182,0.054,0.469,0.084,0.862     c0.004,0.129,0.01,0.258,0.018,0.388c0.008,0.128,0.014,0.248,0.018,0.357c0.01,0.047,0.02,0.098,0.027,0.155     c0.09-0.057,0.176-0.147,0.255-0.271c0.079-0.123,0.155-0.256,0.227-0.397c0.073-0.141,0.136-0.285,0.189-0.434     c0.053-0.148,0.102-0.277,0.147-0.386c0.037-0.106,0.101-0.172,0.187-0.198c0.088-0.025,0.178-0.012,0.272,0.04     c0.092,0.064,0.157,0.149,0.196,0.255c0.039,0.106,0.04,0.211,0.002,0.318c-0.086,0.248-0.179,0.485-0.281,0.714     c-0.102,0.229-0.214,0.437-0.337,0.624c-0.123,0.187-0.262,0.34-0.416,0.458c-0.155,0.119-0.326,0.187-0.515,0.203     c-0.133-0.006-0.248-0.06-0.347-0.162c-0.091-0.104-0.157-0.231-0.198-0.382c-0.041-0.15-0.076-0.35-0.106-0.602     c-0.041,0.118-0.086,0.232-0.134,0.343c-0.048,0.111-0.099,0.233-0.15,0.365C415.807,290.012,415.252,290.791,414.715,291.01z" fill="#B5C0C5"/><path d="M422.75,286.709c-0.049,0.02-0.097,0.03-0.147,0.029c-0.146,0.019-0.281-0.042-0.404-0.183     c-0.102-0.131-0.159-0.299-0.171-0.507s-0.004-0.448,0.022-0.723c0.01-0.095,0.017-0.191,0.022-0.29     c0.004-0.098,0.007-0.187,0.006-0.268c0.007-0.043,0.006-0.094-0.001-0.151c-0.227,0.042-0.473,0.13-0.74,0.264     c-0.266,0.134-0.547,0.327-0.842,0.579c-0.268,0.221-0.541,0.477-0.821,0.768c-0.279,0.291-0.568,0.619-0.866,0.984     c-0.059,0.075-0.135,0.108-0.227,0.1c-0.092-0.008-0.175-0.052-0.249-0.133c-0.081-0.078-0.125-0.177-0.133-0.295     c-0.008-0.119,0.018-0.215,0.077-0.29c0.308-0.379,0.605-0.721,0.892-1.024c0.286-0.304,0.573-0.571,0.862-0.8     c0.746-0.619,1.429-0.948,2.047-0.989c0.182-0.013,0.343,0.063,0.484,0.228c0.144,0.174,0.218,0.394,0.221,0.66     c0.003,0.268-0.007,0.552-0.029,0.855c-0.007,0.023-0.01,0.05-0.01,0.08c0,0.03,0,0.065,0.001,0.106     c0.143-0.109,0.342-0.291,0.598-0.548c0.257-0.257,0.613-0.624,1.067-1.104c0.062-0.066,0.144-0.091,0.244-0.076     c0.1,0.015,0.185,0.069,0.255,0.162c0.074,0.081,0.114,0.179,0.119,0.292c0.006,0.114-0.028,0.211-0.1,0.292     c-0.264,0.27-0.505,0.515-0.723,0.736c-0.219,0.221-0.417,0.413-0.594,0.576c-0.243,0.221-0.428,0.38-0.555,0.478     C422.928,286.614,422.827,286.678,422.75,286.709z" fill="#B5C0C5"/></g><g><path d="M194.841,153.548c-0.111,0.03-0.212,0.024-0.303-0.02c-0.18-0.077-0.263-0.215-0.247-0.413     c-0.003-0.009,0.002-0.127,0.015-0.354c0.013-0.227,0.03-0.484,0.052-0.772c0.005-0.166,0.01-0.311,0.017-0.434     c0.007-0.123,0.012-0.234,0.015-0.332c-0.177,0.125-0.379,0.268-0.606,0.427c-0.227,0.159-0.469,0.331-0.724,0.513     c-0.255,0.183-0.516,0.371-0.783,0.563c-0.267,0.192-0.525,0.378-0.774,0.557c-0.092,0.066-0.198,0.089-0.319,0.07     c-0.121-0.018-0.22-0.075-0.298-0.169c-0.066-0.088-0.088-0.192-0.067-0.31c0.021-0.118,0.081-0.216,0.179-0.294     c0.377-0.264,0.769-0.543,1.176-0.832c0.407-0.29,0.78-0.555,1.117-0.793c0.337-0.238,0.73-0.516,1.18-0.831     c0.045-0.022,0.087-0.04,0.128-0.056c0.041-0.016,0.088-0.021,0.14-0.016c0.136-0.017,0.25,0.03,0.34,0.142     c0.066,0.06,0.112,0.147,0.137,0.261c0.025,0.115,0.042,0.282,0.051,0.503c0.003,0.125,0.002,0.264-0.002,0.415     c-0.005,0.152-0.016,0.327-0.032,0.525c0,0.039-0.001,0.073-0.002,0.103c-0.002,0.03-0.003,0.064-0.003,0.103     c0.319-0.299,0.721-0.628,1.207-0.987c0.091-0.072,0.193-0.101,0.307-0.087c0.113,0.014,0.206,0.066,0.279,0.153     c0.081,0.085,0.113,0.188,0.094,0.309c-0.019,0.121-0.073,0.217-0.164,0.289c-0.282,0.218-0.541,0.426-0.777,0.624     c-0.236,0.198-0.438,0.373-0.606,0.524c-0.2,0.18-0.38,0.345-0.538,0.494C194.988,153.484,194.925,153.526,194.841,153.548z" fill="#CCD7DE"/><path d="M198.388,153.445c-0.074,0.018-0.142,0.031-0.205,0.037c-0.063,0.006-0.129,0.009-0.198,0.007     c-0.178-0.003-0.318-0.068-0.42-0.197c-0.13-0.16-0.185-0.381-0.163-0.662c0.022-0.281,0.082-0.652,0.184-1.113     c0.019-0.082,0.035-0.173,0.049-0.274c0.014-0.1,0.034-0.197,0.06-0.291c-0.11,0.077-0.22,0.184-0.328,0.323     c-0.109,0.139-0.219,0.282-0.331,0.426c-0.075,0.097-0.173,0.151-0.293,0.163c-0.121,0.012-0.23-0.013-0.326-0.075     c-0.098-0.071-0.152-0.164-0.162-0.277c-0.01-0.113,0.017-0.222,0.079-0.326c0.107-0.125,0.217-0.26,0.33-0.405     c0.112-0.145,0.239-0.274,0.38-0.388c0.336-0.29,0.676-0.429,1.019-0.419c0.157-0.01,0.293,0.052,0.407,0.188     c0.114,0.136,0.156,0.318,0.129,0.547c-0.027,0.229-0.087,0.558-0.177,0.986c-0.019,0.121-0.041,0.242-0.064,0.364     c-0.024,0.122-0.046,0.239-0.067,0.351c-0.009,0.041-0.015,0.076-0.018,0.106c-0.002,0.03-0.005,0.06-0.007,0.089     c0.091-0.032,0.202-0.09,0.334-0.171c0.133-0.081,0.282-0.194,0.449-0.337c0.167-0.143,0.356-0.328,0.568-0.553     c0.212-0.226,0.451-0.501,0.72-0.826c0.204-0.262,0.396-0.515,0.577-0.759c0.18-0.245,0.337-0.465,0.47-0.66     c0.133-0.195,0.28-0.417,0.442-0.666c0.084-0.154,0.211-0.227,0.383-0.218c0.079,0.001,0.148,0.019,0.206,0.054     c0.058,0.035,0.106,0.072,0.145,0.111c0.095,0.113,0.134,0.263,0.117,0.449c-0.017,0.186-0.059,0.479-0.125,0.879     c-0.029,0.132-0.056,0.263-0.08,0.394c-0.024,0.13-0.048,0.252-0.072,0.363c0.001,0.048-0.001,0.102-0.007,0.16     c0.126-0.048,0.255-0.131,0.386-0.247c0.131-0.116,0.26-0.242,0.387-0.377c0.127-0.134,0.244-0.273,0.35-0.417     c0.106-0.144,0.201-0.269,0.286-0.374c0.076-0.103,0.172-0.163,0.286-0.179c0.115-0.016,0.224,0.008,0.327,0.071     c0.096,0.075,0.153,0.168,0.172,0.279c0.019,0.111-0.009,0.217-0.085,0.321c-0.174,0.24-0.354,0.469-0.54,0.689     c-0.187,0.219-0.381,0.416-0.581,0.592c-0.201,0.175-0.412,0.315-0.633,0.419c-0.221,0.104-0.45,0.155-0.686,0.152     c-0.162-0.02-0.291-0.086-0.386-0.198c-0.086-0.114-0.135-0.25-0.147-0.405c-0.012-0.156-0.004-0.362,0.025-0.62     c-0.082,0.116-0.167,0.227-0.254,0.334c-0.088,0.107-0.181,0.226-0.279,0.355C199.966,152.52,199.1,153.264,198.388,153.445z" fill="#CCD7DE"/><path d="M206.275,150.353c-0.047,0.01-0.085,0.014-0.115,0.01c-0.158-0.004-0.275-0.04-0.353-0.105     c-0.078-0.065-0.131-0.118-0.159-0.16c-0.118-0.185-0.142-0.398-0.071-0.639c0.072-0.24,0.171-0.499,0.3-0.776     c0.041-0.085,0.077-0.174,0.107-0.267c0.03-0.093,0.061-0.18,0.092-0.263c0.007-0.011,0.018-0.033,0.031-0.064     c-0.052,0.03-0.116,0.072-0.188,0.126c-0.073,0.053-0.153,0.128-0.242,0.224c-0.149,0.137-0.3,0.306-0.454,0.507     c-0.154,0.201-0.311,0.41-0.47,0.627c-0.037,0.056-0.077,0.11-0.12,0.163c-0.043,0.053-0.082,0.107-0.119,0.163     c-0.068,0.092-0.161,0.148-0.28,0.17c-0.118,0.022-0.225-0.005-0.321-0.08c-0.103-0.064-0.162-0.153-0.178-0.27     c-0.016-0.116,0.01-0.221,0.078-0.313c0.037-0.056,0.077-0.11,0.119-0.163c0.043-0.052,0.082-0.107,0.119-0.163     c0.181-0.251,0.364-0.49,0.548-0.718c0.183-0.227,0.368-0.427,0.554-0.601c0.186-0.174,0.379-0.313,0.58-0.418     c0.201-0.105,0.407-0.15,0.618-0.137c0.171,0.012,0.298,0.053,0.382,0.121c0.084,0.069,0.142,0.134,0.174,0.194     c0.129,0.193,0.154,0.413,0.076,0.659c-0.077,0.245-0.183,0.521-0.316,0.826c-0.015,0.023-0.03,0.057-0.045,0.103     c-0.015,0.046-0.033,0.09-0.053,0.133c0.129-0.084,0.297-0.189,0.502-0.312c0.205-0.124,0.46-0.284,0.765-0.48     c0.115-0.061,0.23-0.077,0.344-0.048c0.114,0.03,0.201,0.096,0.261,0.199c0.067,0.092,0.085,0.196,0.055,0.311     c-0.031,0.116-0.093,0.208-0.187,0.274c-0.281,0.162-0.535,0.309-0.762,0.442c-0.228,0.132-0.419,0.249-0.574,0.348     c-0.086,0.056-0.162,0.103-0.228,0.141c-0.065,0.038-0.124,0.072-0.177,0.102c-0.071,0.034-0.126,0.062-0.165,0.085     C206.365,150.326,206.322,150.343,206.275,150.353z" fill="#CCD7DE"/><path d="M209.632,150.915c-0.075,0.014-0.143,0.023-0.206,0.026c-0.063,0.003-0.129,0.001-0.197-0.004     c-0.177-0.013-0.313-0.085-0.408-0.22c-0.121-0.167-0.163-0.39-0.127-0.67c0.037-0.279,0.117-0.647,0.243-1.101     c0.023-0.081,0.044-0.171,0.064-0.27c0.019-0.099,0.045-0.195,0.076-0.287c-0.114,0.07-0.229,0.172-0.344,0.304     c-0.116,0.133-0.234,0.269-0.352,0.407c-0.08,0.093-0.18,0.142-0.301,0.147c-0.121,0.006-0.228-0.025-0.32-0.093     c-0.094-0.076-0.143-0.172-0.147-0.286c-0.004-0.114,0.028-0.221,0.097-0.321c0.114-0.119,0.23-0.248,0.35-0.386     c0.119-0.139,0.253-0.261,0.399-0.366c0.35-0.271,0.696-0.391,1.037-0.361c0.157-0.001,0.289,0.068,0.395,0.21     c0.106,0.142,0.138,0.326,0.099,0.553c-0.039,0.227-0.117,0.552-0.23,0.975c-0.026,0.12-0.054,0.24-0.084,0.36     c-0.03,0.121-0.059,0.236-0.086,0.346c-0.012,0.04-0.019,0.075-0.023,0.104c-0.004,0.03-0.008,0.059-0.012,0.088     c0.092-0.027,0.205-0.078,0.342-0.153c0.136-0.074,0.291-0.178,0.465-0.311c0.174-0.134,0.372-0.307,0.595-0.521     c0.223-0.213,0.476-0.475,0.761-0.785c0.218-0.25,0.423-0.492,0.615-0.726c0.193-0.235,0.36-0.446,0.504-0.633     c0.143-0.187,0.302-0.4,0.476-0.64c0.092-0.149,0.223-0.214,0.393-0.197c0.079,0.005,0.146,0.027,0.202,0.065     c0.056,0.038,0.102,0.078,0.138,0.118c0.089,0.118,0.119,0.27,0.092,0.455c-0.027,0.185-0.085,0.475-0.172,0.871     c-0.036,0.13-0.07,0.259-0.101,0.389c-0.031,0.129-0.062,0.248-0.091,0.358c-0.001,0.048-0.007,0.101-0.016,0.159     c0.129-0.041,0.261-0.117,0.398-0.226c0.136-0.109,0.272-0.228,0.406-0.355c0.134-0.127,0.258-0.259,0.371-0.397     c0.113-0.137,0.215-0.257,0.305-0.358c0.081-0.099,0.18-0.153,0.295-0.163c0.116-0.01,0.223,0.02,0.322,0.089     c0.091,0.081,0.143,0.176,0.156,0.288c0.013,0.112-0.021,0.217-0.102,0.316c-0.186,0.23-0.378,0.449-0.575,0.658     c-0.198,0.209-0.402,0.395-0.611,0.559c-0.21,0.164-0.427,0.292-0.653,0.383c-0.226,0.091-0.456,0.13-0.691,0.114     c-0.16-0.029-0.285-0.102-0.374-0.219c-0.079-0.118-0.121-0.257-0.125-0.413c-0.003-0.156,0.016-0.362,0.058-0.617     c-0.088,0.111-0.178,0.218-0.272,0.32c-0.094,0.102-0.193,0.216-0.297,0.339C211.254,150.08,210.351,150.774,209.632,150.915z" fill="#CCD7DE"/><path d="M223.944,148.615c-0.075,0.009-0.144,0.013-0.207,0.012c-0.063-0.002-0.128-0.008-0.196-0.018     c-0.175-0.025-0.305-0.107-0.391-0.247c-0.109-0.175-0.136-0.401-0.08-0.677c0.056-0.276,0.161-0.637,0.317-1.082     c0.028-0.079,0.055-0.168,0.082-0.265c0.026-0.098,0.058-0.192,0.095-0.281c-0.118,0.062-0.239,0.156-0.363,0.28     c-0.125,0.125-0.251,0.252-0.378,0.382c-0.086,0.087-0.189,0.129-0.309,0.125c-0.121-0.003-0.225-0.041-0.312-0.115     c-0.088-0.083-0.13-0.181-0.126-0.295c0.004-0.114,0.043-0.218,0.118-0.313c0.121-0.111,0.246-0.231,0.375-0.361     c0.128-0.13,0.269-0.243,0.422-0.338c0.367-0.245,0.72-0.342,1.056-0.289c0.156,0.009,0.282,0.088,0.378,0.237     c0.096,0.149,0.116,0.335,0.06,0.559c-0.055,0.224-0.154,0.543-0.295,0.957c-0.034,0.118-0.07,0.235-0.108,0.353     c-0.038,0.118-0.074,0.232-0.109,0.34c-0.014,0.039-0.024,0.074-0.03,0.103c-0.006,0.03-0.012,0.058-0.018,0.087     c0.093-0.021,0.21-0.064,0.351-0.129c0.141-0.064,0.302-0.157,0.484-0.278c0.182-0.121,0.391-0.281,0.628-0.478     c0.236-0.197,0.506-0.441,0.811-0.73c0.234-0.234,0.454-0.461,0.662-0.682c0.208-0.221,0.389-0.42,0.545-0.596     c0.155-0.177,0.328-0.379,0.518-0.606c0.101-0.142,0.236-0.199,0.405-0.169c0.078,0.011,0.144,0.037,0.197,0.079     c0.053,0.042,0.096,0.084,0.13,0.128c0.08,0.124,0.1,0.278,0.061,0.46c-0.039,0.183-0.117,0.469-0.231,0.857     c-0.045,0.127-0.087,0.253-0.127,0.381c-0.04,0.126-0.078,0.244-0.115,0.351c-0.005,0.048-0.014,0.1-0.027,0.158     c0.131-0.032,0.268-0.098,0.412-0.198c0.143-0.099,0.286-0.208,0.428-0.326c0.142-0.118,0.274-0.241,0.397-0.371     c0.122-0.13,0.231-0.242,0.328-0.336c0.087-0.093,0.189-0.14,0.305-0.142c0.116-0.002,0.22,0.035,0.314,0.111     c0.085,0.086,0.131,0.186,0.136,0.298c0.005,0.113-0.035,0.215-0.123,0.308c-0.201,0.217-0.407,0.422-0.618,0.616     c-0.211,0.195-0.427,0.366-0.646,0.515c-0.22,0.149-0.445,0.262-0.676,0.337c-0.231,0.076-0.463,0.098-0.696,0.066     c-0.157-0.04-0.276-0.121-0.357-0.245c-0.07-0.124-0.103-0.264-0.096-0.421c0.007-0.156,0.04-0.36,0.1-0.612     c-0.095,0.105-0.192,0.205-0.292,0.3c-0.1,0.096-0.207,0.202-0.319,0.318C225.615,147.893,224.668,148.524,223.944,148.615z" fill="#CCD7DE"/><path d="M235.235,146.562c-0.067,0.005-0.129,0-0.187-0.015c-0.183-0.024-0.319-0.123-0.408-0.294     c-0.069-0.155-0.068-0.333,0.004-0.536c0.071-0.202,0.179-0.431,0.324-0.685c0.051-0.088,0.1-0.179,0.147-0.271     c0.046-0.092,0.086-0.177,0.12-0.255c0.026-0.039,0.046-0.088,0.062-0.145c-0.291-0.027-0.625-0.014-1.002,0.037     c-0.377,0.052-0.796,0.157-1.255,0.316c-0.413,0.137-0.847,0.307-1.301,0.511c-0.454,0.204-0.933,0.442-1.435,0.715     c-0.1,0.057-0.204,0.069-0.313,0.037c-0.109-0.032-0.192-0.097-0.249-0.195c-0.067-0.097-0.082-0.204-0.046-0.321     c0.037-0.116,0.106-0.203,0.207-0.26c0.522-0.285,1.019-0.535,1.487-0.75c0.469-0.215,0.926-0.393,1.369-0.532     c1.159-0.386,2.125-0.502,2.889-0.357c0.225,0.041,0.388,0.162,0.487,0.362c0.101,0.21,0.096,0.442-0.012,0.698     c-0.108,0.256-0.239,0.525-0.392,0.808c-0.018,0.02-0.033,0.044-0.046,0.074c-0.012,0.029-0.027,0.063-0.043,0.101     c0.216-0.061,0.532-0.177,0.947-0.344c0.416-0.168,0.998-0.41,1.749-0.724c0.103-0.043,0.211-0.042,0.324,0.003     c0.113,0.046,0.192,0.124,0.236,0.234c0.053,0.101,0.059,0.206,0.017,0.316c-0.042,0.11-0.124,0.192-0.245,0.245     c-0.431,0.173-0.824,0.333-1.178,0.475c-0.355,0.143-0.671,0.266-0.951,0.369c-0.383,0.137-0.669,0.234-0.861,0.29     C235.488,146.523,235.34,146.555,235.235,146.562z" fill="#CCD7DE"/><path d="M240.506,145.974c-0.047,0.002-0.086-0.001-0.115-0.008c-0.154-0.03-0.264-0.084-0.329-0.161     c-0.066-0.076-0.109-0.137-0.131-0.184c-0.086-0.202-0.075-0.416,0.034-0.642c0.109-0.226,0.249-0.464,0.42-0.716     c0.054-0.077,0.103-0.159,0.148-0.246c0.044-0.086,0.089-0.168,0.133-0.245c0.009-0.01,0.023-0.03,0.041-0.058     c-0.057,0.021-0.125,0.052-0.205,0.093c-0.08,0.041-0.171,0.101-0.273,0.181c-0.168,0.111-0.344,0.253-0.528,0.426     c-0.183,0.173-0.371,0.354-0.563,0.542c-0.046,0.049-0.094,0.096-0.144,0.141c-0.05,0.045-0.098,0.092-0.143,0.141     c-0.082,0.08-0.182,0.12-0.302,0.122c-0.12,0.002-0.22-0.042-0.302-0.131c-0.091-0.079-0.134-0.178-0.131-0.295     c0.003-0.118,0.045-0.216,0.127-0.296c0.045-0.049,0.093-0.096,0.143-0.141c0.05-0.045,0.098-0.092,0.144-0.142     c0.218-0.218,0.436-0.424,0.653-0.619c0.216-0.194,0.43-0.361,0.641-0.503c0.21-0.141,0.423-0.247,0.637-0.318     c0.214-0.071,0.424-0.082,0.629-0.034c0.166,0.04,0.284,0.101,0.355,0.182c0.071,0.081,0.117,0.155,0.139,0.22     c0.095,0.212,0.085,0.433-0.031,0.662c-0.116,0.229-0.264,0.484-0.444,0.764c-0.018,0.02-0.038,0.051-0.061,0.094     c-0.022,0.043-0.047,0.084-0.073,0.122c0.141-0.062,0.322-0.138,0.543-0.226c0.222-0.089,0.497-0.205,0.829-0.349     c0.123-0.042,0.238-0.038,0.346,0.009c0.107,0.048,0.182,0.128,0.224,0.238c0.051,0.102,0.052,0.207,0.004,0.316     c-0.049,0.11-0.125,0.19-0.228,0.24c-0.302,0.114-0.576,0.218-0.82,0.312c-0.245,0.094-0.451,0.177-0.62,0.25     c-0.094,0.041-0.175,0.075-0.246,0.102c-0.07,0.027-0.134,0.05-0.19,0.072c-0.075,0.022-0.134,0.041-0.176,0.057     C240.599,145.963,240.554,145.972,240.506,145.974z" fill="#CCD7DE"/><path d="M244.366,147.085c-0.048,0.001-0.095,0-0.142-0.003c-0.048-0.004-0.1-0.009-0.157-0.017     c-0.115-0.034-0.212-0.111-0.291-0.231c-0.03-0.055-0.051-0.122-0.063-0.202c-0.012-0.08-0.004-0.199,0.025-0.359     c0.028-0.16,0.079-0.38,0.152-0.659c0.073-0.278,0.175-0.64,0.306-1.084c-0.218,0.081-0.46,0.178-0.724,0.289     c-0.265,0.111-0.538,0.223-0.821,0.336c-0.104,0.041-0.211,0.039-0.323-0.009c-0.112-0.047-0.194-0.126-0.246-0.237     c-0.042-0.101-0.039-0.208,0.01-0.317c0.049-0.11,0.129-0.19,0.242-0.242c0.303-0.123,0.597-0.241,0.881-0.354     c0.284-0.112,0.537-0.211,0.756-0.297c0.218-0.086,0.461-0.184,0.728-0.294c0.095-0.04,0.187-0.047,0.274-0.021     c0.126,0.025,0.219,0.093,0.279,0.204c0.05,0.083,0.068,0.158,0.056,0.224c-0.013,0.066-0.029,0.137-0.046,0.212     c-0.018,0.038-0.032,0.078-0.04,0.121c-0.008,0.042-0.022,0.092-0.04,0.148c-0.064,0.161-0.128,0.357-0.194,0.588     c-0.067,0.231-0.135,0.465-0.205,0.701c-0.044,0.132-0.08,0.246-0.105,0.34c-0.026,0.094-0.048,0.179-0.065,0.255     c0.179-0.042,0.438-0.156,0.777-0.342c0.292-0.166,0.602-0.355,0.933-0.567c0.33-0.212,0.675-0.442,1.036-0.691     c0.076-0.048,0.152-0.095,0.228-0.143c0.076-0.048,0.152-0.1,0.228-0.157c0.105-0.066,0.215-0.088,0.33-0.067     c0.115,0.023,0.211,0.085,0.289,0.187c0.068,0.103,0.09,0.208,0.067,0.316c-0.023,0.108-0.087,0.195-0.191,0.262     c-0.076,0.057-0.154,0.112-0.235,0.163c-0.081,0.053-0.164,0.107-0.249,0.164c-0.36,0.238-0.709,0.468-1.048,0.688     c-0.339,0.221-0.659,0.415-0.959,0.58C245.208,146.903,244.725,147.075,244.366,147.085z" fill="#CCD7DE"/><path d="M249.248,146.98c-0.076,0-0.145-0.005-0.206-0.013c-0.062-0.009-0.126-0.023-0.192-0.041     c-0.171-0.046-0.29-0.143-0.357-0.293c-0.087-0.186-0.086-0.414,0.002-0.682c0.088-0.267,0.236-0.613,0.444-1.036     c0.038-0.075,0.075-0.16,0.113-0.254c0.038-0.094,0.08-0.183,0.128-0.268c-0.125,0.048-0.256,0.126-0.394,0.234     c-0.139,0.109-0.279,0.22-0.421,0.333c-0.096,0.076-0.202,0.105-0.322,0.087c-0.12-0.018-0.218-0.068-0.296-0.151     c-0.078-0.093-0.108-0.196-0.09-0.308c0.018-0.113,0.069-0.212,0.155-0.297c0.133-0.095,0.271-0.2,0.414-0.313     c0.143-0.113,0.296-0.208,0.459-0.284c0.393-0.2,0.754-0.252,1.082-0.159c0.154,0.028,0.269,0.122,0.346,0.281     c0.077,0.159,0.074,0.347-0.007,0.562c-0.081,0.216-0.218,0.52-0.408,0.914c-0.048,0.113-0.097,0.225-0.149,0.338     c-0.052,0.113-0.101,0.221-0.149,0.324c-0.019,0.037-0.033,0.07-0.042,0.098c-0.009,0.029-0.019,0.056-0.028,0.084     c0.095-0.009,0.216-0.038,0.363-0.085c0.147-0.047,0.318-0.119,0.513-0.218c0.195-0.098,0.422-0.231,0.68-0.399     c0.258-0.168,0.555-0.377,0.892-0.627c0.26-0.204,0.506-0.404,0.738-0.597c0.233-0.194,0.436-0.37,0.612-0.527     c0.175-0.157,0.37-0.336,0.586-0.539c0.118-0.129,0.258-0.169,0.422-0.119c0.076,0.02,0.138,0.054,0.186,0.102     c0.048,0.048,0.085,0.095,0.113,0.142c0.064,0.133,0.066,0.288,0.005,0.464c-0.061,0.177-0.173,0.451-0.332,0.823     c-0.06,0.121-0.117,0.241-0.172,0.363c-0.055,0.121-0.107,0.232-0.156,0.335c-0.01,0.047-0.026,0.098-0.046,0.154     c0.133-0.017,0.278-0.065,0.432-0.147c0.154-0.081,0.309-0.172,0.464-0.272c0.155-0.1,0.301-0.206,0.438-0.32     c0.136-0.114,0.259-0.212,0.366-0.294c0.098-0.082,0.205-0.117,0.319-0.104c0.115,0.012,0.214,0.062,0.298,0.148     c0.074,0.097,0.107,0.2,0.099,0.312c-0.008,0.113-0.061,0.209-0.159,0.291c-0.226,0.191-0.454,0.37-0.687,0.538     c-0.233,0.168-0.468,0.312-0.703,0.434c-0.236,0.122-0.473,0.206-0.711,0.253c-0.239,0.047-0.471,0.042-0.698-0.018     c-0.151-0.059-0.259-0.154-0.324-0.286c-0.055-0.132-0.07-0.275-0.044-0.429c0.026-0.154,0.083-0.353,0.173-0.595     c-0.107,0.092-0.215,0.18-0.326,0.263c-0.111,0.083-0.229,0.175-0.354,0.277C250.99,146.465,249.977,146.977,249.248,146.98z" fill="#CCD7DE"/><path d="M263.694,147.416c-0.076-0.005-0.144-0.014-0.205-0.027c-0.061-0.013-0.124-0.031-0.189-0.054     c-0.167-0.058-0.279-0.163-0.336-0.316c-0.074-0.192-0.058-0.419,0.049-0.68c0.107-0.26,0.277-0.596,0.514-1.003     c0.043-0.073,0.086-0.154,0.131-0.245c0.044-0.091,0.093-0.177,0.146-0.258c-0.128,0.039-0.264,0.108-0.41,0.206     c-0.145,0.099-0.292,0.2-0.443,0.304c-0.099,0.069-0.209,0.091-0.326,0.065c-0.119-0.026-0.213-0.083-0.285-0.171     c-0.07-0.098-0.094-0.203-0.068-0.314c0.025-0.111,0.084-0.206,0.175-0.285c0.14-0.086,0.284-0.181,0.434-0.284     c0.151-0.103,0.309-0.188,0.478-0.252c0.406-0.172,0.77-0.2,1.09-0.085c0.152,0.039,0.261,0.14,0.326,0.304     c0.067,0.164,0.05,0.351-0.046,0.56c-0.096,0.209-0.253,0.504-0.469,0.884c-0.055,0.109-0.112,0.218-0.173,0.326     c-0.06,0.109-0.117,0.213-0.17,0.313c-0.022,0.036-0.038,0.068-0.049,0.095c-0.012,0.028-0.023,0.055-0.034,0.082     c0.095-0.003,0.218-0.023,0.368-0.06c0.151-0.037,0.327-0.097,0.528-0.182c0.2-0.085,0.436-0.202,0.706-0.351     c0.269-0.149,0.58-0.338,0.932-0.564c0.273-0.186,0.533-0.368,0.778-0.545c0.246-0.178,0.462-0.339,0.648-0.483     c0.186-0.144,0.393-0.31,0.622-0.497c0.127-0.12,0.27-0.151,0.429-0.09c0.075,0.025,0.134,0.063,0.178,0.115     c0.044,0.051,0.078,0.101,0.103,0.15c0.056,0.137,0.047,0.292-0.027,0.464c-0.073,0.172-0.203,0.438-0.388,0.798     c-0.069,0.116-0.134,0.233-0.197,0.35c-0.063,0.116-0.123,0.225-0.18,0.323c-0.013,0.046-0.032,0.096-0.056,0.15     c0.135-0.007,0.282-0.046,0.441-0.117c0.16-0.071,0.321-0.15,0.482-0.239c0.162-0.088,0.314-0.185,0.459-0.289     c0.144-0.104,0.273-0.194,0.387-0.268c0.103-0.075,0.211-0.102,0.326-0.082c0.114,0.02,0.209,0.076,0.287,0.168     c0.068,0.102,0.093,0.207,0.078,0.318c-0.016,0.112-0.075,0.204-0.179,0.279c-0.238,0.175-0.478,0.338-0.723,0.489     c-0.244,0.152-0.487,0.279-0.731,0.384c-0.243,0.105-0.486,0.173-0.728,0.204c-0.241,0.031-0.473,0.009-0.695-0.066     c-0.147-0.069-0.248-0.171-0.304-0.307c-0.046-0.135-0.051-0.279-0.015-0.431c0.037-0.152,0.107-0.346,0.213-0.582     c-0.113,0.085-0.227,0.165-0.344,0.24c-0.116,0.075-0.24,0.159-0.372,0.252C265.468,147.022,264.422,147.463,263.694,147.416z" fill="#CCD7DE"/><path d="M273.408,147.465c-0.114-0.013-0.205-0.056-0.273-0.129c-0.138-0.137-0.164-0.296-0.077-0.475     c0.001-0.009,0.049-0.118,0.143-0.324c0.095-0.206,0.205-0.44,0.33-0.699c0.065-0.153,0.124-0.286,0.175-0.398     c0.051-0.112,0.097-0.213,0.136-0.303c-0.209,0.052-0.448,0.111-0.716,0.176c-0.269,0.065-0.554,0.136-0.856,0.212     c-0.302,0.077-0.612,0.156-0.928,0.237c-0.316,0.081-0.622,0.159-0.918,0.234c-0.108,0.028-0.214,0.011-0.319-0.052     c-0.105-0.061-0.176-0.151-0.213-0.267c-0.028-0.106-0.012-0.211,0.051-0.313c0.062-0.102,0.153-0.172,0.273-0.208     c0.444-0.108,0.906-0.223,1.388-0.344c0.482-0.12,0.921-0.231,1.32-0.329c0.398-0.098,0.862-0.213,1.393-0.341     c0.049-0.004,0.095-0.005,0.139-0.005c0.044,0,0.088,0.013,0.134,0.037c0.133,0.034,0.22,0.12,0.262,0.257     c0.04,0.08,0.05,0.178,0.032,0.293c-0.019,0.116-0.064,0.278-0.137,0.486c-0.043,0.118-0.094,0.246-0.154,0.385     c-0.06,0.14-0.134,0.298-0.222,0.477c-0.013,0.036-0.027,0.068-0.039,0.095c-0.013,0.027-0.027,0.059-0.04,0.095     c0.404-0.161,0.896-0.321,1.476-0.477c0.11-0.034,0.216-0.024,0.315,0.031c0.099,0.055,0.168,0.136,0.203,0.245     c0.044,0.109,0.036,0.217-0.026,0.322c-0.062,0.106-0.147,0.175-0.257,0.209c-0.34,0.099-0.655,0.199-0.946,0.296     c-0.291,0.098-0.542,0.187-0.752,0.266c-0.251,0.094-0.477,0.181-0.677,0.262C273.566,147.459,273.493,147.474,273.408,147.465z" fill="#CCD7DE"/><path d="M278.92,148.151c-0.113-0.016-0.204-0.061-0.27-0.136c-0.135-0.141-0.157-0.3-0.065-0.477     c0.001-0.009,0.052-0.116,0.151-0.32c0.101-0.204,0.217-0.434,0.348-0.69c0.069-0.151,0.131-0.283,0.185-0.393     c0.054-0.111,0.102-0.211,0.144-0.299c-0.211,0.047-0.451,0.099-0.721,0.157c-0.271,0.058-0.557,0.121-0.862,0.19     c-0.304,0.069-0.616,0.14-0.934,0.212c-0.319,0.073-0.626,0.143-0.924,0.21c-0.109,0.025-0.214,0.005-0.318-0.06     c-0.103-0.064-0.172-0.155-0.206-0.272c-0.026-0.107-0.006-0.211,0.06-0.311c0.065-0.101,0.158-0.168,0.278-0.2     c0.447-0.096,0.912-0.199,1.397-0.307c0.485-0.108,0.928-0.206,1.33-0.294c0.401-0.088,0.868-0.19,1.402-0.304     c0.049-0.002,0.095-0.003,0.139-0.002c0.044,0.001,0.088,0.015,0.133,0.04c0.132,0.038,0.217,0.126,0.256,0.264     c0.037,0.081,0.045,0.179,0.024,0.294c-0.022,0.116-0.071,0.276-0.15,0.483c-0.046,0.117-0.101,0.243-0.164,0.381     c-0.063,0.138-0.142,0.295-0.234,0.471c-0.014,0.036-0.029,0.067-0.042,0.094c-0.014,0.026-0.029,0.058-0.043,0.093     c0.408-0.151,0.905-0.297,1.489-0.438c0.112-0.031,0.216-0.018,0.315,0.039c0.098,0.058,0.164,0.141,0.196,0.25     c0.041,0.11,0.03,0.218-0.034,0.321c-0.065,0.104-0.152,0.171-0.263,0.202c-0.343,0.09-0.661,0.181-0.954,0.271     c-0.294,0.09-0.547,0.172-0.759,0.246c-0.253,0.087-0.481,0.169-0.684,0.245C279.078,148.149,279.005,148.162,278.92,148.151z" fill="#CCD7DE"/><path d="M286.175,149.136c-0.066-0.012-0.125-0.031-0.178-0.06c-0.173-0.068-0.282-0.195-0.328-0.384     c-0.029-0.167,0.014-0.34,0.133-0.519c0.118-0.179,0.278-0.375,0.48-0.588c0.072-0.073,0.14-0.149,0.208-0.228     c0.068-0.078,0.126-0.151,0.177-0.219c0.035-0.032,0.067-0.074,0.096-0.126c-0.277-0.095-0.606-0.164-0.984-0.205     c-0.38-0.041-0.813-0.039-1.298,0.005c-0.435,0.033-0.898,0.094-1.388,0.183c-0.491,0.089-1.014,0.205-1.568,0.35     c-0.112,0.031-0.215,0.017-0.314-0.04c-0.098-0.057-0.163-0.14-0.195-0.249c-0.042-0.11-0.031-0.218,0.033-0.322     c0.064-0.104,0.151-0.172,0.263-0.203c0.577-0.151,1.118-0.275,1.627-0.371c0.508-0.096,0.995-0.159,1.46-0.188     c1.219-0.096,2.189,0.024,2.898,0.348c0.21,0.094,0.339,0.251,0.388,0.469c0.048,0.227-0.012,0.452-0.179,0.675     c-0.168,0.222-0.359,0.453-0.577,0.69c-0.022,0.016-0.042,0.035-0.062,0.061c-0.019,0.025-0.041,0.054-0.066,0.088     c0.225-0.008,0.56-0.044,1.006-0.106c0.445-0.063,1.07-0.158,1.878-0.282c0.111-0.017,0.216,0.01,0.315,0.081     c0.099,0.072,0.157,0.166,0.173,0.284c0.028,0.111,0.008,0.214-0.06,0.31c-0.068,0.097-0.167,0.156-0.298,0.179     c-0.461,0.065-0.882,0.125-1.262,0.178c-0.38,0.054-0.718,0.097-1.016,0.129c-0.406,0.041-0.708,0.067-0.907,0.074     C286.43,149.159,286.278,149.154,286.175,149.136z" fill="#CCD7DE"/><path d="M294.458,150.742c-0.065-0.014-0.124-0.036-0.176-0.067c-0.17-0.075-0.274-0.207-0.313-0.397     c-0.023-0.168,0.028-0.339,0.154-0.513c0.125-0.174,0.293-0.364,0.504-0.568c0.075-0.07,0.146-0.144,0.217-0.22     c0.071-0.075,0.132-0.146,0.186-0.211c0.037-0.03,0.07-0.071,0.101-0.122c-0.274-0.107-0.6-0.188-0.977-0.245     c-0.378-0.055-0.812-0.071-1.299-0.047c-0.437,0.016-0.902,0.058-1.397,0.127c-0.495,0.069-1.023,0.164-1.583,0.287     c-0.113,0.026-0.216,0.009-0.313-0.052c-0.096-0.061-0.157-0.147-0.186-0.256c-0.037-0.112-0.022-0.218,0.046-0.321     c0.068-0.101,0.158-0.165,0.271-0.192c0.583-0.128,1.13-0.23,1.643-0.306c0.513-0.076,1.002-0.119,1.469-0.129     c1.225-0.047,2.191,0.111,2.887,0.464c0.206,0.102,0.329,0.264,0.37,0.484c0.039,0.229-0.03,0.452-0.206,0.667     c-0.176,0.215-0.378,0.438-0.605,0.666c-0.023,0.014-0.043,0.034-0.064,0.058c-0.02,0.024-0.043,0.053-0.07,0.085     c0.226,0.002,0.562-0.021,1.011-0.066c0.448-0.044,1.078-0.115,1.892-0.206c0.112-0.012,0.215,0.019,0.312,0.094     c0.096,0.076,0.151,0.173,0.162,0.29c0.024,0.112,0,0.214-0.072,0.308c-0.072,0.094-0.173,0.15-0.306,0.167     c-0.464,0.046-0.888,0.089-1.27,0.127c-0.382,0.039-0.723,0.068-1.022,0.088c-0.408,0.025-0.712,0.038-0.911,0.038     C294.712,150.776,294.561,150.765,294.458,150.742z" fill="#CCD7DE"/><path d="M300.94,152.387c-0.112-0.028-0.197-0.082-0.255-0.165c-0.12-0.155-0.125-0.316-0.015-0.481     c0.002-0.009,0.064-0.11,0.185-0.302c0.122-0.192,0.263-0.408,0.421-0.649c0.085-0.143,0.161-0.267,0.226-0.371     c0.065-0.104,0.124-0.199,0.175-0.282c-0.216,0.024-0.461,0.05-0.737,0.078c-0.277,0.029-0.569,0.061-0.881,0.096     c-0.311,0.036-0.63,0.073-0.956,0.111c-0.326,0.038-0.641,0.075-0.945,0.11c-0.111,0.013-0.215-0.018-0.311-0.094     c-0.096-0.075-0.155-0.172-0.177-0.293c-0.014-0.109,0.016-0.21,0.092-0.303c0.075-0.093,0.175-0.15,0.299-0.17     c0.457-0.048,0.932-0.1,1.428-0.156c0.496-0.056,0.948-0.105,1.359-0.15c0.41-0.044,0.887-0.096,1.433-0.152     c0.05,0.003,0.096,0.007,0.139,0.013c0.044,0.006,0.086,0.024,0.129,0.054c0.128,0.051,0.204,0.148,0.228,0.29     c0.029,0.085,0.026,0.183-0.007,0.295c-0.034,0.113-0.1,0.267-0.2,0.464c-0.058,0.111-0.126,0.231-0.204,0.361     c-0.078,0.13-0.173,0.278-0.284,0.443c-0.018,0.034-0.036,0.064-0.051,0.089c-0.017,0.025-0.035,0.055-0.052,0.088     c0.424-0.106,0.936-0.198,1.534-0.275c0.115-0.019,0.218,0.005,0.31,0.073c0.092,0.068,0.149,0.158,0.17,0.27     c0.03,0.114,0.007,0.22-0.068,0.316c-0.075,0.097-0.17,0.154-0.284,0.173c-0.352,0.053-0.68,0.109-0.982,0.167     c-0.303,0.058-0.565,0.112-0.785,0.163c-0.262,0.059-0.499,0.116-0.709,0.17C301.098,152.402,301.024,152.407,300.94,152.387z" fill="#CCD7DE"/><path d="M306.347,153.805c-0.111-0.031-0.195-0.088-0.251-0.172c-0.116-0.158-0.117-0.319-0.002-0.481     c0.003-0.009,0.067-0.108,0.193-0.297c0.127-0.189,0.274-0.401,0.438-0.637c0.089-0.141,0.168-0.262,0.236-0.365     c0.068-0.103,0.13-0.195,0.183-0.277c-0.216,0.018-0.463,0.037-0.74,0.059c-0.278,0.021-0.572,0.046-0.885,0.072     c-0.312,0.028-0.633,0.056-0.96,0.085c-0.327,0.029-0.643,0.058-0.949,0.084c-0.112,0.01-0.214-0.024-0.309-0.102     c-0.094-0.077-0.151-0.177-0.17-0.298c-0.011-0.109,0.022-0.21,0.1-0.301c0.078-0.091,0.179-0.145,0.304-0.161     c0.459-0.035,0.936-0.075,1.434-0.117c0.498-0.042,0.952-0.08,1.365-0.113c0.411-0.033,0.891-0.071,1.439-0.113     c0.049,0.004,0.096,0.01,0.139,0.017c0.044,0.007,0.086,0.026,0.128,0.058c0.127,0.055,0.2,0.154,0.221,0.296     c0.027,0.085,0.021,0.184-0.014,0.295c-0.037,0.112-0.107,0.265-0.213,0.458c-0.061,0.11-0.133,0.228-0.214,0.356     c-0.081,0.128-0.18,0.273-0.296,0.435c-0.019,0.034-0.037,0.063-0.054,0.087c-0.017,0.024-0.036,0.054-0.055,0.087     c0.427-0.095,0.942-0.173,1.543-0.234c0.115-0.016,0.218,0.011,0.309,0.081c0.091,0.07,0.145,0.162,0.163,0.274     c0.027,0.115,0.001,0.22-0.077,0.314c-0.078,0.095-0.174,0.15-0.289,0.165c-0.354,0.043-0.683,0.091-0.988,0.14     c-0.305,0.05-0.569,0.097-0.79,0.142c-0.264,0.053-0.503,0.103-0.715,0.151C306.505,153.824,306.43,153.827,306.347,153.805z" fill="#CCD7DE"/></g><path d="M136.419,185.428c0.339,0.994-0.243,1.807-1.293,1.807h-2.481    c-1.05,0-1.632-0.813-1.293-1.807l1.918-5.627c0.339-0.994,0.893-0.994,1.232,0L136.419,185.428z" fill="#CCD7DE" opacity="0.5"/><path d="M73.584,243.196c0.994-0.339,1.807,0.243,1.807,1.293v2.481c0,1.05-0.813,1.632-1.807,1.293    l-5.627-1.918c-0.994-0.339-0.994-0.893,0-1.232L73.584,243.196z" fill="#CCD7DE" opacity="0.5"/><path d="M131.352,306.032c-0.339-0.994,0.243-1.807,1.293-1.807h2.481    c1.05,0,1.632,0.813,1.293,1.807l-1.918,5.627c-0.339,0.994-0.893,0.994-1.232,0L131.352,306.032z" fill="#CCD7DE" opacity="0.5"/><path d="M194.187,248.264c-0.994,0.339-1.807-0.243-1.807-1.293v-2.481    c0-1.05,0.813-1.632,1.807-1.293l5.627,1.918c0.994,0.339,0.994,0.893,0,1.232L194.187,248.264z" fill="#CCD7DE" opacity="0.5"/><circle cx="89.632" cy="201.476" fill="#CCD7DE" opacity="0.5" r="1.134"/><circle cx="89.632" cy="289.984" fill="#CCD7DE" opacity="0.5" r="1.134"/><circle cx="178.139" cy="289.984" fill="#CCD7DE" opacity="0.5" r="1.134"/><circle cx="178.139" cy="201.476" fill="#CCD7DE" opacity="0.5" r="1.134"/><path d="M175.054,245.733c0,3.112,0,3.112,0,3.112c-0.552,3.268-1.076,5.947-1.164,5.953    c-0.088,0.006-6.193,0.01-13.371,0.01h-4.507c-7.177,0-13.049,5.872-13.049,13.049v4.507c0,7.177-0.002,13.122-0.005,13.21    c-0.003,0.088-2.689,0.773-5.958,1.325c0,0,0,0-3.112,0c-3.112,0-3.112,0-3.112,0c-3.268-0.552-5.947-1.076-5.953-1.164    c-0.006-0.088-0.01-6.193-0.01-13.371v-4.507c0-7.177-5.872-13.049-13.049-13.049h-4.507c-7.177,0-13.122-0.002-13.21-0.005    c-0.088-0.003-0.773-2.689-1.325-5.958c0,0,0,0,0-3.112c0-3.112,0-3.112,0-3.112c0.552-3.268,1.076-5.947,1.164-5.953    c0.088-0.006,6.193-0.01,13.371-0.01h4.507c7.177,0,13.049-5.872,13.049-13.049v-4.507c0-7.177,0.002-13.122,0.005-13.21    c0.003-0.088,2.689-0.773,5.958-1.325c0,0,0,0,3.112,0c3.112,0,3.112,0,3.112,0c3.268,0.552,5.947,1.076,5.953,1.164    s0.01,6.193,0.01,13.371v4.507c0,7.177,5.872,13.049,13.049,13.049h4.507c7.177,0,13.122,0.002,13.21,0.005    c0.088,0.003,0.773,2.689,1.325,5.958C175.054,242.621,175.054,242.621,175.054,245.733z" fill="#CCD7DE" opacity="0.1"/><circle cx="133.888" cy="245.733" fill="#21242A" r="8.714"/><path d="M114.841,221.965c1.014,0.384,1.044,1.497,0.067,2.475l-2.309,2.309    c-0.978,0.978-2.091,0.948-2.475-0.067l-2.171-5.742c-0.384-1.014,0.132-1.53,1.147-1.147L114.841,221.965z" fill="#CCD7DE" opacity="0.1"/><path d="M110.12,264.775c0.384-1.014,1.497-1.044,2.475-0.067l2.309,2.309    c0.978,0.978,0.948,2.091-0.067,2.475l-5.742,2.171c-1.014,0.384-1.53-0.132-1.147-1.147L110.12,264.775z" fill="#CCD7DE" opacity="0.1"/><path d="M152.93,269.495c-1.014-0.384-1.044-1.497-0.067-2.475l2.309-2.309    c0.978-0.978,2.091-0.948,2.475,0.067l2.171,5.742c0.384,1.014-0.132,1.53-1.147,1.147L152.93,269.495z" fill="#CCD7DE" opacity="0.1"/><path d="M157.651,226.686c-0.384,1.014-1.497,1.044-2.475,0.067l-2.309-2.309    c-0.978-0.978-0.948-2.091,0.067-2.475l5.742-2.171c1.014-0.384,1.53,0.132,1.147,1.147L157.651,226.686z" fill="#CCD7DE" opacity="0.1"/></g></g><g/><g/><g/><g/><g/><g/></svg>