<?xml version="1.0" standalone="no"?>
<!DOCTYPE svg PUBLIC "-//W3C//DTD SVG 20010904//EN"
 "http://www.w3.org/TR/2001/REC-SVG-20010904/DTD/svg10.dtd">
<svg version="1.0" xmlns="http://www.w3.org/2000/svg"
 width="300.000000pt" height="300.000000pt" viewBox="0 0 300.000000 300.000000"
 preserveAspectRatio="xMidYMid meet">
<metadata>
Created by potrace 1.11, written by Peter Selinger 2001-2013
</metadata>
<g transform="translate(0.000000,300.000000) scale(0.100000,-0.100000)"
fill="#000000" stroke="none">
<path d="M1345 2843 c1 -32 0 -62 -2 -68 -2 -6 -53 -10 -128 -9 -69 0 -128 -2
-133 -5 -4 -3 -7 -33 -7 -66 l-1 -60 -39 -2 c-22 -1 -52 -2 -67 -2 -28 -1 -28
-2 -28 -69 l0 -68 -65 2 c-39 1 -65 -3 -67 -10 -3 -10 -2 -604 1 -647 1 -12
13 -15 65 -14 l64 1 4 -38 c2 -22 1 -44 -3 -50 -4 -5 -4 -19 -2 -29 4 -15 17
-19 71 -21 l67 -3 0 -65 0 -65 65 0 65 0 0 -65 0 -65 -60 -3 c-33 -1 -78 -2
-100 -1 -22 0 -49 0 -60 -1 -11 -1 -26 -2 -32 -2 -9 -1 -13 -22 -13 -68 l0
-66 -65 1 c-39 1 -65 -3 -66 -9 -1 -6 -2 -96 -3 -201 l-1 -190 -55 -1 c-30 -1
-60 -2 -66 -3 -6 -1 -11 -27 -12 -62 -1 -34 -3 -64 -6 -67 -3 -2 -154 -5 -335
-5 l-330 -1 0 -328 0 -328 1499 0 1500 0 0 328 -1 329 -202 1 c-111 0 -212 1
-225 1 -21 1 -22 5 -21 61 1 33 -1 63 -5 67 -3 4 -30 7 -59 8 -28 1 -56 3 -62
3 -6 1 -10 76 -10 199 l0 198 -65 0 -65 -1 0 66 0 65 -42 6 c-24 3 -43 2 -43
-3 0 -5 -8 -4 -19 1 -10 6 -21 7 -25 4 -3 -3 -6 5 -7 18 -2 41 3 104 7 109 3
2 33 5 67 5 l62 1 0 64 0 65 68 3 68 3 -3 64 c-4 72 0 75 87 70 25 -2 45 0 46
3 0 4 1 123 2 264 2 288 7 270 -73 273 -25 1 -49 2 -55 3 -5 1 -10 30 -10 64
l0 63 -65 0 -65 0 0 62 c0 34 -3 64 -6 68 -3 3 -34 6 -67 6 l-61 1 -3 67 -3
66 -120 1 c-66 1 -125 2 -132 3 -7 1 -12 17 -11 40 0 22 -3 44 -6 49 -3 6 -2
13 4 17 32 20 -24 25 -268 25 l-267 0 0 -57z"/>
</g>
</svg>
